<?xml version="1.0" encoding="UTF-8"?>
<svg id="Camada_1" data-name="Camada 1" xmlns="http://www.w3.org/2000/svg" viewBox="0 0 903.11 843.06">
  <defs>
    <style>
      .cls-1 {
        fill: #3a8342;
      }

      .cls-2 {
        fill: none;
        stroke: #3a8342;
        stroke-miterlimit: 10;
        stroke-width: 2.83px;
      }
    </style>
  </defs>
  <path class="cls-1" d="m567.96,375.69c-4.76-26.8-16.35-69.36-47.31-111.29-20.3-27.5-41.68-44.26-55.52-55.05-.94-.73-23.5-18.11-55.25-32.23-11.36-5.05-22.89-9.24-37.05-7.47-2.45.31-4.74.76-6.87,1.31-11.26,2.89-15.7,16.8-7.96,25.47.22.25.45.49.69.74,0,0,20.75,37.37,27.25,69.3,0,0,14.71,51.02,21.28,60.75,0,0-87.47-24.93-153.95-4.7,0,0-43.75,10.03-42.13,34,0,0,.67,12.72,14.87,11.45,0,0,91.49,53.62,107.88,71.28,16.39,17.66,31.73,9.58,31.73,9.58-10.31,14.53-25.93,41.15-29.83,77.24-8.52,78.75,46.1,134.64,54.45,142.92-12.74-27.25-10.76-39.61-5.72-45.73,7.19-8.73,19.48-5.51,35.85-11.66,9.48-3.56,21.56-12.75,30.95-38.47l3.07,17.55s-8.57,2.42-7.65,8.04c.92,5.62,8.05,9.72,11.28,4.96,3.23-4.76,5.57-8.91,5.57-8.91l7.6-65.17s26.16-31.24,42.11-36.07c4.3,1.96,30.34,13.36,55.95.75,9.64-4.75,16.09-11.35,20.03-16.3,1.71,2.85,4.27,7.03,7.52,11.99,7.92,12.11,9.53,13.02,10.91,13.33,4.53,1.03,9.76-3.65,19.85-16.97,6.2-8.19,14.47-19.95,23.12-35.17,9.23-19.95,1.05-41.59-14.12-48.42-10.66-4.8-24.27-2.05-34.68,6.48-.87-4.06-2.69-9.87-6.8-15.75-9.15-13.06-22.94-16.82-27.14-17.8Z"/>
  <path class="cls-2" d="m641.39,413.85c4.88-1.08,12.24-3.19,20.29-7.64,5.79-3.2,24.89-13.73,29.25-32.9.38-1.65,3.44-15.75-2.93-19.94-2.53-1.66-6.6-1.81-8.65.23-2.37,2.36-2.15,7.77,1.82,12.34"/>
</svg>