<?xml version="1.0" encoding="UTF-8"?>
<svg id="Camada_1" data-name="Camada 1" xmlns="http://www.w3.org/2000/svg" viewBox="0 0 903.11 843.06">
  <defs>
    <style>
      .cls-1 {
        fill: #3a8342;
      }
    </style>
  </defs>
  <path class="cls-1" d="m672.2,143.75c-.36-1.53-4.77-16.66-4.77-16.66,13.1-30.14-4.96-49.14-4.96-49.14-.25,5.94-4.83,10.85-4.83,10.85,0,7-11.83,22.13-11.83,22.13l.64-1.14-1.27.64-1.14-3.31-1.91,1.02v-2.42l-5.34,3.18-1.27-2.8-3.31,3.31-1.78-5.09-3.69,2.67-1.65-2.76-3.22,3.22-2.54-2.88-3.56,4.07s-1.53-5.77-2.54-3.9c-1.02,1.87-4.75,2.37-4.75,2.37l-2.88-2.2-2.2,4.41-2.88-4.41-3.9,4.24c2.37-16.96-7.97-31.2-7.97-31.2l-6.44,7.8c-9.16,10.01-6.11,33.75-6.11,33.75,1.02,6.78,0,9.78,0,9.78l-4.24.73,3.05,1.7-5.09,1.19,2.37,3.39-2.04,2.2,3.05,2.37-5.43,4.07,3.56,4.24c-3.22-.51-3.05,2.2-3.05,2.2l3.9,2.71-2.37,1.7,3.39,2.88c-5.6,3.73,1.7,11.19,1.7,11.19-2.1,20.85-5.82,44.72-12.25,70.71-6.22,25.15-13.76,47.35-21.33,66.31l-1.44,3.99-122.86-.51s-21.11-4.07-73.01,9.67c-77.33,30.02-76.57,108.87-72.75,117.52,3.82,8.65,22.89,98.19,7.63,110.4-15.26,12.21-8.14,73.01-8.03,73.77s2.69,4.58,2.69,4.58l.25,2.29.25,3.56s-2.04,4.83-3.05,5.85c-1.02,1.02,3.56,4.58,3.82,5.34.25.76,3.05,4.07,3.31,6.11s-1.78,4.32-1.78,4.32l2.29,3.56-.51,2.29,4.83,3.56v3.56l3.56.25v6.61l5.09-8.65s3.31,27.47,4.58,30.78c1.27,3.31,1.78,16.79,1.78,16.79l5.85,6.36,17.81-1.53c4.58,2.54,7.12-1.78,7.12-1.78,1.27,0,3.56-.51,3.56-.51,1.53-4.83-6.87-8.9-6.87-8.9-.76-3.31-6.11-4.83-6.11-4.83.51-8.65-5.34-27.47-5.34-27.47-1.02-13.48,4.32-33.58,4.32-33.58,0,0,2.54-16.28,4.58-3.56,2.04,12.72,24.93,34.34,23.66,35.36-1.27,1.02,7.38,18.82,7.38,18.82.25,9.92,5.85,14.75,5.85,14.75,8.9,1.27,28.49-3.31,28.49-3.31,4.83-6.61-17.04-13.99-17.04-13.99l-5.34-37.39c3.56-27.22-6.11-35.87-6.11-35.87,10.43-6.61,6.11-22.64,6.11-22.64,8.9-6.61,13.23-24.17,13.23-24.17,14.75-14.25,22.13-41.72,22.13-41.72l-4.83-12.97,11.45-5.85s44.77-5.85,61.3,11.45c16.53,17.3,6.36,59.78,12.21,95.14,5.85,35.36,14.75,39.05,21.62,50.37,6.87,11.32,13.23,53.04,13.23,53.04-2.29,7.38,3.94,12.46,3.94,12.46h26.07c1.02-1.4.64-3.69.64-3.69h10.05c1.7-5.43-4.75-9.3-4.75-9.3l3.57-.44c-.34-1.55-10.77-8.68-10.77-8.68-2.84-13.11-5.5-26.51-4.52-26.77.28-.07,1.37.82,1.96,1.95.19.36.27.65.29.71.31.99,2.67,5.61,8.65,16.56-.51,1.05-1.07,2.61-.94,4.47.21,3.12,2.28,5.25,4.37,7.62,1.48,1.68,3.01,2.88,4.27,3.72,1.21-.15,2.43-.3,3.64-.45,3.83-.17,7.65-.34,11.48-.51l-.63-2.2c1.03-.32,2.21-.62,3.52-.85,1.55-.27,2.95-.38,4.18-.41.02-.83,0-3.92-2.26-6.77-2.22-2.8-5.15-3.54-5.98-3.72.06,0,3.43-.07,3.5-.07.02,0,1.9-.04,1.92-.04-1.61-.73-3.3-1.45-5.08-2.14-3.06-1.21-6.01-2.21-8.8-3.05-2.99-9.24-5.99-18.48-8.98-27.72-4.07-19.33,4.07-37.31,4.07-37.31-3.39-3.73-8.82-19.53-8.82-19.53,10.18-4.6,14.92-17.11,14.92-17.11,7.12-17.3,7.12-64.1,7.12-64.1,3.05-10.85,19.33-23.4,19.33-23.4,37.65-44.09,32.9-84.45,32.9-84.45,7.8-14.58,8.82-48.84,8.82-48.84,0,0-9.5,19.33.34-1.7,9.5-23.06,9.84-62.07,9.84-62.07l4.41-12.55c9.16-23.4,12.72-93.61,12.72-93.61,2.2-2.37,3.22-6.11,3.22-6.11,3.73-8.48,2.54-23.06,2.54-23.06l1.7-3.39-3.05-6.95,4.07-6.95.17-7.12s2.71-4.92,2.35-6.44Z"/>
</svg>