<?xml version="1.0" encoding="UTF-8"?>
<svg id="Camada_1" data-name="Camada 1" xmlns="http://www.w3.org/2000/svg" viewBox="0 0 903.11 843.06">
  <defs>
    <style>
      .cls-1 {
        fill: #3a8342;
      }
    </style>
  </defs>
  <path class="cls-1" d="m417.3,606.01c-17.78-.99-26.06-.25-31.35.96-1.06.24-1.39,1.59-.55,2.28,4.48,3.7,9.9,12.79,10.59,13.97.05.09.09.18.12.27,1.28,4.07-2.24,3.13-3.58,2.65-.31-.11-.57-.34-.72-.64-6.73-12.87-32.25-13.39-34.27-13.41-.09,0-.16,0-.25.02-11.19,2.23-59.31-5.79-59.31-5.79l-94.47-18.09c-.29-.05-.54-.2-.74-.42-3.99-4.54-47.52-54.2-63.75-78.13-12.11-17.86-6.99-38.34-3.02-48.68,1.7-4.43,4.8-8.19,8.82-10.69,26.36-16.42,41.24-2.23,49.59-4.38,8.81-2.27,98.16-79.5,100.9-81.87.05-.04.08-.08.12-.13,5.09-6.02,10.4-10.22,15.09-13.12,6.02-3.72,12.96-5.63,20.04-5.67,24.6-.13,90.32-18.2,95.72-19.7.24-.07.44-.19.6-.37,20.98-23.35,90.68-52.19,98.56-55.4.45-.18.76-.6.8-1.08l.21-2.1c2.37-20.94,19.3-35.47,36.23-34.65,11.8.57,22.7,8.56,28.59,20.23.23.46.72.75,1.23.73,12.22-.52,22.39.18,29.77,1,17.04,1.9,26.99,3.14,35.53,10.85,2.47,2.23,8.21,7.56,9.93,16.19,3.01,15.1-8.89,27.25-11.18,29.42-.19.18-.31.4-.37.65-.43,1.9-2.7,10.47-9.46,14.58-.05.03-.09.06-.14.1-1.42,1.21-27.28,23.16-33.98,24.85-.37.09-.7.32-.87.67-3.86,7.42-44.52,85.31-54.96,98.06-.32.39-.39.91-.18,1.36,2.92,6.38,24.34,51.32,50.73,59.61.06.02.12.03.18.04,1.96.34,35.09,6.1,53.37,4.98,3.97-.55,6.85,1.86,6.92,3.75.07,1.79-2.34,4.19-5.98,4.32-.05,0-.11,0-.16,0-1.81-.11-3.61-.22-5.42-.34-1.67-.1-1.93,2.37-.27,2.61.19.03.37.1.54.2,3.4,2.22,6.12,4.28,8.12,5.9,4.68,3.78,5.36,5.03,5.48,6.35.23,2.41-1.4,5.06-3.85,6.25-2.6,1.27-5.8.74-7.98-1.35-.15-.19-4.09-5.3-4.24-5.5-.08-.1-1.86-2.41-2.87-3.72-.39-.51-1.08-.65-1.64-.35-2.87,1.55-6.9,3.27-11.92,4.18-9.08,1.64-16.52-.27-20.29-1.54-9.45-3.41-18.9-6.83-28.35-10.24-1.19-.43-2.24.9-1.54,1.96.42.63.81,1.34,1.13,2.13.43,1.06.65,2.06.76,2.92,0,.04.01.08.02.12.43,1.71,1.26,6-.59,10.81-1.11,2.88-2.77,4.87-3.93,6.04-.07.07-.13.15-.18.23-.41.69-1.77,2.69-4.16,3.15-3.25.63-5.98-2.07-7.12-4.04-1.33-2.3-1.07-4.63-.95-5.6.15-1.19.49-2.21.88-3.04.42-.89-.26-1.91-1.24-1.86-2.54.14-6.02-.06-9.83-1.42-6.82-2.44-10.7-7.21-12.29-9.51-.26-.37-.69-.58-1.14-.55l-43.5,2.25c-.3.02-.59.14-.82.34l-19.07,17.43c-.46.42-.56,1.09-.25,1.63l9.07,15.62c.41.71,1.36.87,1.98.34l4.2-3.57c.25-.21.56-.32.89-.31,1.92.07,8.46.76,6.49,6.96-.05.16-.13.31-.24.44l-2.02,2.49c-.67.82-.14,2.05.91,2.13l29.67,2.38c.1,0,.2,0,.3,0,2.44-.37,34.92-5.32,44.25-4.9.21,0,.41.07.59.18,1.12.67,5.25,3.23,5.97,4.43.14.23.36.4.61.49,2.19.85,10.67,4.44,8.15,8.47,0,0-1.66,3.87-5.79,1.87-.17-.08-.32-.21-.44-.36-.81-1.02-4.37-5.26-7.15-4.73-.12.02-.22.07-.33.12-.93.48-6.22,2.9-11.84-.4-.27-.16-.59-.23-.91-.17-1.74.33-7.71,1.53-10.77,2.95-.19.09-.39.13-.6.12-2.42-.1-18.07-.67-24.49,1.64-1.12.4-1.19,1.95-.11,2.43,3.71,1.66,11.51,4.75,18.85,5.17,8.4.48,13.61,2.06,15.12,2.58.27.09.51.27.66.52.51.82,2.04,2.75,4.77,2.42.15-.02.29-.02.44.02,1.76.4,13.51,3.35,8.61,10.52-.12.17-.28.31-.46.41-1.15.61-5.64,2.61-9.69-.93-8.43-1.91-19.47-3.59-32.43-3.41-11.67.15-21.7,1.76-29.56,3.6-9.5-3.03-19.76-5.95-30.73-8.6-10.26-2.47-20.07-4.44-29.34-6.02-9.59-10.87-20.46-22.01-32.78-33.02-3.41-3.05-6.8-5.98-10.18-8.8-.35-.49-.99-.67-1.55-.45-3.4,1.34-14.99,6.26-20.88,13.38-.06.07-.12.13-.19.18-1.48,1.12-18.34,13.73-28.05,10.57-.44-.14-.92-.02-1.26.3-1.68,1.61-7.11,6.26-15.64,8.42-1.43.36-1.3,2.43.17,2.58,4.88.5,11.71-.39,17.17-7.22.25-.31.61-.5,1.01-.5,3.57-.04,21.57-.7,27.82-10.35.01-.02.03-.04.04-.06.59-.74,12.23-15.33,19.74-12.01.16.07.3.18.42.31l11.7,12.46c.97,1.03-.16,2.66-1.46,2.11-6.09-2.59-14.58-4.1-19.6,4-.04.06-.07.12-.1.19-.5,1.16-4.87,11.85,4.38,15.21.14.05.29.08.44.08,5.13.07,97.68,1.63,110.12,18.68.09.12.15.25.19.39.25.8.87,3.48-2.15,3.62-.15,0-.31-.02-.46-.07-3.68-1.19-52.98-16.75-75.31-7.34-.16.07-.34.1-.51.1-3.72.06-9.12.05-15.62-.31Z"/>
</svg>