<?xml version="1.0" encoding="UTF-8"?>
<svg id="Camada_1" data-name="Camada 1" xmlns="http://www.w3.org/2000/svg" viewBox="0 0 903.11 843.06">
  <defs>
    <style>
      .cls-1 {
        fill: #3a8342;
      }
    </style>
  </defs>
  <path class="cls-1" d="m171.67,293.97c29.63-37.54,92.48-29.68,106.49-27.92,18.68,2.34,33.65,7.58,43.76,11.89,0,0,0,0,0,0,26.05,9.01,141.73,10.52,155.76,3.5,14.01-7,62.49-7.34,62.61-7.35,0,0,0,0,0,0,30.86,1.98,71.02-4.2,71.93-4.34.02,0,.02,0,.04-.02,31.63-23.55,83.52-30.57,86.94-31.01.09-.01.12-.11.07-.19l-2.56-3.84s0,0,0-.01l-6.29-11.74s-.01-.02-.02-.03c-15.21-16.3-13.33-20.97-17.06-30.97-2.56-6.85-11.21-30-2.63-43.23.76-1.17,3.06-4.73,5.61-4.46,3.06.32,4.24,5.92,7.37,14.64,1.79,5,5.71,15.92,10.43,23.83,2.55,4.26,6.85,10.21,14.27,16.23,0,0,0,0,0,0,18.49,13.3,32.57,39.52,33.35,41,.02.04.06.06.11.06l13.54-.41c.06,0,.11-.05.12-.11l2.13-15.42s0,0,0-.01l.83-3.42c-1.07-6.95,11.02-29.72,11.02-29.72,7.21-11.25,9.69-36.47,10.23-43.11.1-1.2.43-2.38,1.09-3.38,1.59-2.4,3.54-3.4,5.4-3.68,3.48-.53,6.81,1.6,8.28,4.8,3.61,7.89,7.82,20.1,8.06,35.36.19,12.21-2.16,31-14.02,43.07-2.45,2.49-4.05,7.31-6.77,13.94-2.45,5.96-2.5,11.66-2.12,15.64,0,.02.01.05.03.07,5.74,6.88,9.5,13.2,11.9,17.8,3.43,6.58,5.53,10.73,5.65,16.74.05,2.34.09,8.02-3.51,13.77-2.24,3.58-5,5.77-6.79,6.97-.04.03-.05.07-.05.11,1.81,13.73.57,24.31-.93,31.48-4.38,21-7.26,29.3-7.26,29.3-2.08,5.99-4.37,11.41-2,16.78,1.85,4.19,4.65,4.1,7.12,9.18.56,1.16,3.56,7.82.64,15.11-2.22,5.54-6.61,8.33-8.25,9.26-.01,0-.01,0-.02.02-.88.94-6.02,6.25-14.26,6.25-7.22,0-11.97-4.08-13.11-5.11-.01-.01-.02-.02-.04-.02-4.72-1.66-10.46-4.63-12.77-10.18-2.27-5.46-.02-10.42.62-14.25,1.23-7.44-3.39-18.74-28.16-35.94-.03-.02-.07-.03-.11-.02-1.87.68-48.99,17.93-57.36,31.18,0,.01,0,0-.01.02-.18.62-14.72,50.66-47.06,66.1-.01,0-.01,0-.02.01-.44.44-38.05,38.42-37.06,99.66,0,0,.5,24.53-7.51,41.56,0,0,0,0,0,.01-.08.36-11.99,51.12-4.51,60.1l26.45,29.95c.05.06.05.13-.01.17-1.86,1.24-28.43,18.27-55.95-.04-.03-.02-.04-.04-.05-.07l-7.5-28.5s0,0,0,0c-.01-.08-1.99-11.05,2-21.53,0,0,0,0,0,0,.05-.22,11.51-51.11,8.01-63.1-3.5-11.99,2.97-59.35,3.01-59.6,0,0,0,0,0,0l.5-55.4c0-.09-.08-.15-.16-.12-20.98,8.85-73.96,27.77-139.57,14.45-44.32-9-76.1-28.99-93.61-42.04-.03-.02-.06-.03-.09-.02-.92.17-14.51,2.82-15.97,12,0,0,0,0,0,.02-.31.64-55.59,115.23-54.59,128.21,0,0,6,90.98,9.51,99.14,0,.02.02.03.03.04l11.5,10.5,25.87,23.39c-.01.07-.03.14-.04.21-2.52,1.81-13.7,9.45-26.61,7.19-3.29-.58-12.73-2.23-16.54-9.21-.02-.04-.04-.07-.05-.09l-1.33-13.93s-.01-.05-.03-.07l-17.79-19.77c-.07-.08-.21-.03-.21.08l-.33,30.69s.01.06.03.08l14.66,16.99s0,0,.01.01l29.04,26.04c-2.48,1.85-16.69,12.12-34.48,8.25-7.89-1.71-13.56-5.57-16.82-8.25,0,0-.05,0-.08-.03-.02-.02-.04-.05-.04-.08l-.66-14.54s0-.05-.02-.07l-19.99-27.99s-.02-.04-.02-.06l-6.34-106.47s0-.01,0-.02c-1.48-5.78-2.98-14.36-1.99-24.5,1.7-17.38,9.7-28.83,13.18-35.08,11.38-20.46,6.73-43.45-1-81.64-11.29-55.79-29.12-59.08-30.05-99.17-.38-16.62-.96-41.35,15.02-61.6Z"/>
</svg>