<?xml version="1.0" encoding="UTF-8"?>
<svg id="Camada_1" data-name="Camada 1" xmlns="http://www.w3.org/2000/svg" viewBox="0 0 903.11 843.06">
  <defs>
    <style>
      .cls-1 {
        fill: #3a8342;
      }
    </style>
  </defs>
  <g id="avestruzes">
    <g id="Camada_1-2" data-name="Camada 1-2">
      <path class="cls-1" d="m597.11,465.49c10.66-17.44,22.79-33.18,21.54-54.1-1.05-29.57-12.18-57.89-31.53-80.28-32.96-43.66-55.52-98.12-15.07-129.33,6.14-4.21,12.94-7.38,20.11-9.37,2.54.45,5.04.85,7.54,1.34,10.7,2.24,21.63,3.2,32.56,2.85,3.17,0,5.62-.94,5.62-4.77-2.05-2.99-5.49-3.26-8.56-4.19-11.86-3.79-21.18-13.38-31.49-20.51l-5.4-4.46c-9.45-7-17.84-13.83-28.9-13.38-8.17,0-15.68,4.47-19.58,11.64-10.67,15.67-17.14,33.82-18.78,52.71-4.24,37.72,4.33,75.77,24.35,108.02,7.18,12.26,16.28,23.5,20.92,37.24l2.41,9.37c.64,4.84.12,9.76-1.52,14.36-.58,1.29-1.03,2.59-2.72,2.99-4,.79-8.07-.99-10.21-4.46-16.63-28.23-42.32-40.41-75.33-42.77-19.07-1.74-38.3-.63-57.04,3.3-25.33,6.29-43.66,14.67-62.44,33.09-15.82,16.24-27.98,35.67-35.68,57-1.86,5.76-5.81,10.63-11.06,13.65l-8.38,3.34c-14.36,4.46-19.62,8.61-31.22,18.42-11.6,9.81-24.35,45.4,11.73,55.88-1.65,3.21,6.24,37.91,42.23,29.08,2.59,6.29,21.85,27.61,42.19,3.43,0,0,4.46,12.26,23.46,7.58,13.38-3.3,22.3-17.53,19.62-38.98,3.08.49,13.38,3.21,16.59,2.19h.49c-1.93,13.48-5.29,26.71-10.03,39.47-3.92,10.66-4.46,20.83,3.26,29.93,3.82,4.74,6.71,10.16,8.52,15.97,9.88,27.05,15.65,55.44,17.13,84.2.83,3.16,1.9,6.24,3.21,9.23,1.47,2.81,0,3.79-2.01,4.46-3.71.96-7.01,3.09-9.41,6.07-2.94,3.39-6.11,6.96-4.46,12.13,2.19.36,3.79-1.07,5.49-2.05,5.51-3.34,11.39-6.02,17.53-7.98,10.53-2.85,20.43.45,29.93,4.46,10.3,4.46,20.2,9.5,30.33,14.14,3.34,1.56,6.69,2.01,8.92-1.83s1.2-6.15-2.72-8.92c-8.32-5.58-17.56-9.66-27.29-12.04-7.09-2.05-14.36-3.75-21.54-5.62,2.87-.33,5.78-.33,8.65,0,7.41.66,14.74,2.02,21.9,4.06,4.46,1.16,7.36-1.96,6.33-6.69-.62-2.99-3.03-3.88-5.44-4.77-8.68-3.02-17.93-4.08-27.07-3.08-1.47,0-3.12.8-4.46-.62.76-4.15,4.46-4.86,7.45-6.38,6.01-3.96,12.97-6.25,20.16-6.65,9.01.44,17.83,2.69,25.96,6.6,9.63,4.46,18.73,9.81,28.63,13.38,2.66,1.39,5.95.36,7.34-2.3.07-.14.14-.27.2-.42,1.86-2.55,1.31-6.12-1.24-7.98-.13-.1-.27-.19-.41-.27-1.43-.98-2.85-1.92-4.46-2.81-11.73-7.27-25.02-10.35-38.18-13.69-2.1-.21-4.1-.98-5.8-2.23,9.22.09,18.38,1.48,27.2,4.15,4.15,1.43,6.82.58,7.94-2.45,1.36-3.43-.32-7.32-3.75-8.68-.23-.09-.47-.17-.71-.24-9.08-3.2-18.78-4.2-28.32-2.9-2.32.36-3.97,0-4.06-2.81-.16-.98-.43-1.94-.8-2.85-2.05-7.45-7.27-13.38-10.66-19.98-10.66-21.27-15.25-44.15-18.42-67.48-.16-1.86.13-3.72.85-5.44,4.3-10.62,3.82-22.59-1.34-32.82-.94-1.78,0-2.45,1.16-3.7.4-.18,71.71-3.66,108.06-63.42Zm-116.53,230.93h0Zm10.35-26.76c.89,2.27.27,3.75-2.23,5.04-4.5,1.93-8.11,5.5-10.08,9.99-.32-1.25-.83-2.43-1.52-3.52-3.96-5.79-7.29-11.98-9.95-18.46-7.27-18.02-12.09-36.93-14.32-56.24-.67-2.35-.67-4.83,0-7.18,4.61-10.16,4.61-21.82,0-31.98-.62-1.34-1.2-2.94,0-4.01,2.51-2.35,4.61-5.11,6.2-8.16.58,2.85,1.89,5.51,3.79,7.72,2.75,3.07,5.03,6.53,6.78,10.26,5.23,14.8,9.7,29.87,13.38,45.13,2.24,8.97,3.73,18.12,4.46,27.34-.18,8.19.99,16.36,3.48,24.17v-.09Z"/>
    </g>
  </g>
</svg>