<?xml version="1.0" encoding="UTF-8"?>
<svg id="Camada_1" data-name="Camada 1" xmlns="http://www.w3.org/2000/svg" viewBox="0 0 903.11 843.06">
  <defs>
    <style>
      .cls-1 {
        fill: #3a8342;
      }
    </style>
  </defs>
  <path class="cls-1" d="m254.65,642.65s0-.02,0-.03h-.02s.02.03.02.03Z"/>
  <path class="cls-1" d="m830.89,273.69c-7.33-6.26-16.04-10.68-25.42-12.92-.04,0-.08-.01-.12-.02-11.36-1.69-22.92-1.19-34.05,1.45-2.97-3.76-6.84-6.73-11.73-9.01,8.41-16.12,6.75-36.19-5.27-50.84,4.63,15.67.59,32.62-10.62,44.52-.53.56-1.09,1.09-1.65,1.61-5.68-.76-12.08-1.11-19.33-1.07-12.16.07-22.54,1.21-31.16,3.57-3.3-1.19-6.46-2.79-9.4-4.77-13.13-8.57-20.95-23.27-20.72-38.94-8.12,18.65-2.54,39.8,12.29,52.24-.89.71-1.72,1.46-2.52,2.23-3.77-1.13-7.59-2.02-11.46-2.65-9.58-1.57-19.38-1.59-29.03-.03-9.34,2.35-18,6.87-25.26,13.21v.05c1.54,2.44,3.2,4.78,4.98,7.02-29.9-9.45-68.3-20.11-94.44-9.56-5.69,2.3-13.94,3.92-24.13,5-2.1-.67-4.25-1.32-6.43-1.95-22.45.37-107.32-.22-120.55-2.47,0,0-78.66-2.46-97.92-3.31l.14.02c-.97.48-1.91,1-2.82,1.56-15.43-.66-29.32-1.06-40.81-.99l.12-.19c-2.71-.31-5.45-.38-8.17-.21-11.95.76-22.54,6.05-30.21,14.07-31.83,10.36-53.91,40.64-52.93,75.17l.53,88.13h-.12c-4.94,8.76-7.76,18.56-8.24,28.6-.61,6.88-2.81,29.22-2.81,29.22,0,0,10.93.24,26.48-.79,4.71-.28.99-29.94-.38-39.25-1.17-6.36-3.58-12.42-7.1-17.84l-.53-88.13c-.75-26.68,13.89-50.56,36.3-62.54-1.35,2.06-2.52,4.24-3.46,6.51-.55,3.05-.35,4.53-.16,7.51-.29,2.6-.37,5.26-.19,7.97-.23,3.64-.3,7.28-.25,10.92-1.02,11.8-1.25,23.65-.66,35.48,2.52,33.69,11.04,88.88,12.66,97.86.1,1.38.38,3.35.98,5.32,1.23,24.49,1.38,44.76-1.09,49.14-5.9,7.55-7.77,17.5-5.01,26.67,1.59,15.59,5.79,101.81,5.79,101.81v-.07s9.61-2.39,9.61-2.39v2.04c-4.45,2.98-7.75,7.69-8.81,13.38l40.56-.24c-1.23-6.18-5.18-11.34-10.55-14.2-3.17-7.61-5.37-15.6-6.53-23.79-1.44-30.01,3.69-59.98,15.02-87.81,2.6-3.95,6.54-11.38,11.03-20.24,4.56,3.89,9.62,7.26,15.1,10.03-3.06,6.51-3.67,14-1.56,21.03,1.53,15.47,5.72,100.56,5.78,101.78l9.59-2.38v2.24c-3.76,3-6.5,7.31-7.44,12.42l40.53-.24c-1.36-6.95-6.17-12.6-12.57-15.17-2.8-7.09-4.76-14.49-5.83-22.06-1.18-24.97,2.18-49.89,9.85-73.59,2.84-.82,4.67-3.65,4.16-6.63l-.23-4.43c.41-1.05.81-2.11,1.23-3.15.6-.91,1.33-1.99,2.15-3.17,4.38-.78,8.69-1.95,12.87-3.5l4.71,7.69s.05.07.07.11c1.75,2.67,5.34,3.41,8.01,1.66,2.72-1.77,3.53-5.38,1.84-8.15l-3.95-6.36c10.21-5.88,18.71-13.92,25.09-23.35,25.95,9.5,52.81,16.47,80.21,20.76,16.41,1.34,45.29,1.06,76.19-2.32,2.74,8.2,5.05,16.84,6.23,25.72,3.27,24.55,3.38,92.92,3.38,92.92l11.97,2.26,7.71,10.66c-1.9,2.49-3.27,5.45-3.88,8.74l40.56-.24c-1.38-6.95-6.2-12.59-12.62-15.14-5.11-7.14-11.29-15.96-13.91-20.36-4.83-8.11,2.84-47.45,5.01-74.13,1.83-13.25,4.4-26.38,7.7-39.33,2.71-.67,5.38-1.37,8.02-2.1,1.69,7.32,3.12,14.27,3.53,20.15,1.3,19.06.65,107.64.65,107.64l11.97,2.45,7.18,10.85c-2.57,2.77-4.41,6.28-5.15,10.28l40.53-.24c-1.06-5.4-4.19-10.01-8.54-13-5.39-8.18-13.19-20.19-16.22-25.73-3.88-26.44-4.04-53.3-.48-79.79,2.82-18.14,7.27-35.97,13.27-53.28,17.87-12.36,34.68-26.21,50.22-41.41,8.22-7.66,16.21-15.41,23.56-22.7,5.75,7.15,14.95,11.25,24.73,10.06l20.98-.13h.23c27.67-.17,37.84-10.02,37.69-35.19l1.03-14.16c-.52-.35-1.06-.68-1.59-1.01.97-5.93,2.28-12.82,3.55-25.57,3.7-15.22,6.74-30.6,9.13-46.08,5.97,1.72,12.45,1.58,18.53-.68,14.4-6.53,26.52-17.22,34.78-30.7v-.02s0,0,0,0h0Z"/>
</svg>