<?xml version="1.0" encoding="UTF-8"?>
<svg id="Camada_1" data-name="Camada 1" xmlns="http://www.w3.org/2000/svg" viewBox="0 0 903.11 843.06">
  <defs>
    <style>
      .cls-1 {
        fill: #3a8342;
      }
    </style>
  </defs>
  <path class="cls-1" d="m285.21,290.6s-22.68-10.74-42.98,3.58c0,0-63.27,28.05-68.64,34.62-5.37,6.57-19.1,45.96-15.22,79.68,3.88,33.72,6.86,80.28,6.86,80.28,0,0-5.07,16.41-14.33,24.17-9.25,7.76,4.48,23.88,4.48,23.88,1.26,27.36,2.52,54.71,3.78,82.07,1.33.4,2.65.8,3.98,1.19,3.58,7.45,7.16,14.9,10.75,22.35,3.38,1.9,10.74,5.44,20.69,5.5,8.94.05,15.72-2.73,19.15-4.43-.08-3.03-.17-6.07-.25-9.1-5.11-1.89-10.21-3.78-15.32-5.67-4.64-4.15-9.28-8.29-13.93-12.44.13-17.74.27-35.48.4-53.22,0,0,34.92-65.36,45.36-72.52,0,0,.3,25.07,13.13,19.7l-2.09,14.03s-6.57,11.64,1.49,17.01c14.86,22.28,29.71,44.57,44.57,66.85,2.06.66,4.11,1.33,6.17,1.99,3.05,7.23,6.1,14.46,9.15,21.69,3.35,1.75,7.99,3.65,13.73,4.58,12.92,2.1,23.33-2.04,27.85-4.18-.75-3.55-1.49-7.1-2.24-10.64-4.23-1.49-8.46-2.98-12.68-4.48-3.78-3.08-7.56-6.17-11.34-9.25-9.95-15.42-19.9-30.84-29.84-46.26l1.49-29.84s10.45-32.83,6.86-43.87c-3.58-11.04,31.34,13.13,38.5,23.58l11.94-8.36h22.68s12.53-11.64,25.37-11.64c0,0,60.29,3.88,71.93,14.92,0,0,0,74.61-14.92,99.68,1.49,2.05,2.99,4.09,4.48,6.14,2.25,4.88,4.51,9.77,6.76,14.65,3.63,1.43,8.63,2.96,14.72,3.58,8.04.82,14.71-.29,19.1-1.39,1.33-4.71,2.65-9.42,3.98-14.13-6.9-2.35-13.79-4.71-20.69-7.06-.59-2.55-1.05-5.45-1.19-8.65-.49-11.06,3.03-19.91,5.67-25.07,3.18-4.18,6.37-8.36,9.55-12.53,0,0,9.25,48.35-1.19,69.84,4.23,3.63,8.46,7.27,12.68,10.9,3.82,1.64,9.38,3.48,16.27,4.02,11.04.87,19.76-2.07,24.37-4.02-.65-2.09-1.3-4.18-1.95-6.27-1.42-.69-2.96-1.38-4.62-2.05-1.74-.7-3.41-1.3-4.99-1.8-2.98-3.94-5.96-7.89-8.94-11.83-.29-.84-6.76-20.9-4.18-34.32,2.98-15.52,9.55-13.13,10.45-24.17l-.9-20.59,15.22-.4s22.68-14.92,31.83-57.5c0,0,16.91-24.87,18.11-49.54,0,0,39-66.25,83.17-86.75,0,0,15.22-13.53,34.92-5.77,0,0,27.46,3.58,57.3-17.61,0,0,39.99-11.02,34.32-37,0,0-2.69-10.16-15.82-9.86,0,0-16.12-4.48-20.59-9.25s-17.01-15.82-25.07-14.92c0,0-25.96-17.61-30.14-29.55-4.18-11.94-41.78-15.82-50.14-7.46-6.06,6.06-17.04,2.98-20.4-1.48-2.48-3.29-1.64-9.45,1.4-11.75,4.6-3.48,15.42.99,15.42.99-4.76-6.08-11.35-9.36-17.11-8.06-6.66,1.5-9.63,8.52-11.84,13.73-5.66,13.35-2.86,26.55-.8,33.33-57.06.92-79.48,5.2-88.74,9.35-.98.44-18.5,8.36-18.5,8.36-14.14-1.17-35.27-1.28-59.66,5.46-5.65,1.56-4.52,1.57-15.24,4.99-40.96,13.06-76.7,19.1-76.7,19.1-11.08,1.49-23.26,2.59-36.41,2.98-18.67.56-35.62-.41-50.44-2.09Z"/>
</svg>