<?xml version="1.0" encoding="UTF-8"?>
<svg id="Camada_1" data-name="Camada 1" xmlns="http://www.w3.org/2000/svg" viewBox="0 0 903.11 843.06">
  <defs>
    <style>
      .cls-1 {
        fill: #3a8342;
      }
    </style>
  </defs>
  <path class="cls-1" d="m724.94,244.97s17.63,9.08,25.11,9.08,17.04,7.12,17.04,7.12c0,0,1.54,4.63.95,5.46,0,0,17.1,11.04,4.75,19,0,0-5.34,14.48-19.11,10.92,0,0-10.69,15.32-12.35,25.53,0,0,5.94,12.11,0,17.81,0,0,6.41,18.28-.95,32.77,0,0-7.6,56.28-15.43,64.82,0,0-35.38,30.16-42.98,40.84-7.6,10.69-24.46,28.49-24.46,28.49,0,0,1.9-17.33-3.32-20.18-5.22-2.85-7.6,18.28-7.6,18.28,0,0-1.19-17.1-6.17-16.38s-10.92,20.66-11.4,22.56c-.48,1.9,2.26-6.29-3.62-14.48,0,0-10.15,8.73-9.62,25.47,0,0-1.25-11.4-6.77-14.96,0,0-11.93.36-11.75,11.75,0,0-23.86-42.38-24.75-52.89,0,0-9.26,9.44-12.29,8.55l6.83,37.04s-22.8,33.24-21.61,44.88l-.04,5.22s-1.85-6.41-4.94-8.55c0,0-3.09,2.14-2.14,5.7,0,0-2.61-3.09-3.8-2.61-1.19.48-6.89,2.14-6.89,7.12,0,4.99-3.56,15.91-4.04,20.42-.47,4.51-2.08,6.53,0,8.13,2.08,1.6,2.26,7.66-3.09,6.59,0,0-5.46,35.86,4.75,57.46,0,0,7.36,13.06,6.65,14.72-.71,1.66,9.02,3.56,9.02,3.56,0,0,15.91,4.04,12.82,13.06,0,0-1.19,11.16-43.45,8.55,0,0-14.72-.48-16.86-13.06,0,0,.71-8.07,6.17-11.16l-3.32-4.99s7.12-19.71,3.32-28.26c-3.8-8.55-6.17-36.8-6.17-36.8,0,0-4.27-4.04-4.04-7.84,0,0-2.85,8.31-8.55,11.16,0,0-2.14,2.85-2.37,5.46-.24,2.61,4.04,5.94,0,9.97v38.23s8.31,8.55,3.8,20.66c0,0,1.9,4.27,4.99,6.65,3.09,2.37,25.88,16.15,10.21,21.37,0,0-21.13,4.75-42.98-2.14,0,0-18.28-9.5,0-21.13l-2.61-7.12s6.89-19.23,3.8-24.69c0,0,2.61-34.91-1.42-44.88-4.04-9.97-3.32-17.33-3.32-17.33l-3.09,2.14s.48-39.18,5.94-43.93l-12.58,4.99s1.9-7.84,5.46-8.55l-10.21,3.8s14.01-32.53,11.4-44.88c0,0,2.49-7.95-2.85-10.8,0,0-58.06,56.63-163.13-24.93,0,0-13.89,14.25-14.96,19.23-1.07,4.99-6.41,16.03-12.82,18.52-6.41,2.49-11.04,13.89-15.67,38.47,0,0-8.9,22.44-13.18,27.07,0,0,3.56,13.89,0,23.15-3.56,9.26,6.41,54.85,17.45,70.52,0,0,6.41,9.26,7.48,14.96,0,0,22.44-.71,24.58,16.03,0,0,0,15.67-42.74,4.27,0,0-6.41-5.34-5.7-14.96,0,0-11.4-45.23-20.3-50.58-8.9-5.34-6.41-15.32-6.41-15.32,0,0-9.97-11.75-12.11-15.32-2.14-3.56-11.75-12.82-11.04-16.74.71-3.92-5.77-7.84-.04-13.53s11.44-33.84,9.3-43.81c-2.14-9.97-6.41-103.65-6.41-103.65,0,0-12.82-43.81,9.97-54.49l14.25-10.33s-21.35-14.24-24.58,12.11c0,0-9.62,22.8-7.12,35.62l2.49,7.12c-4.65-2.69-7.49-5.59-9.26-7.84-1.71-2.17-4.08-5.82-4.27-5.7-.05.03.11.3.08.31-.23.11-7.72-15.48-5.07-27.38l-5.7,5.7s0-23.51,8.55-30.27c0,0,12.82-17.81,20.3-12.47-.04-.45-.32-2.91-2.49-4.63-1.77-1.4-3.71-1.44-4.27-1.42,3.87-1.37,8.95-2.65,14.96-2.85,15.71-.52,27.37,6.68,32.06,9.97,0,0,25.29-1.78,24.93-14.25-.36-12.47,10.33-38.82,34.19-52,11.75-12.82,8.19-14.25,23.15-22.44,0,0,24.58-32.77,47.73-22.44,0,0,22.8-.36,32.06,28.85l6.41,29.21s6.77,5.34,13.18-.36c0,0,21.73-26,13.18-42.74,0,0-3.21-22.08,11.4-26,14.6-3.92,13.77-9.26,46.95-2.14,0,0,17.16,21.73,19.3,33.12,0,0,13.53,11.4,14.96,18.52,0,0,15.32,10.33,20.3,20.66,0,0,16.38,8.19,20.66,18.17,0,0,41.32,35.97,51.65,35.62,0,0,3.21-13.18,9.62-17.45,0,0-9.26-1.07-11.04,2.49,0,0,3.56-43.81,23.15-58.06l7.12-8.55s-8.19-2.85-11.4,1.07c-3.21,3.92,4.27-16.38,24.22-13.89,0,0,17.1-21.01,32.41-16.03,0,0,19.59-12.69,16.38-19.17,0,0,7.48,4.56,5.7,8.13,0,0,9.97-12.33,22.08-8.13,0,0-7.15,1-7.49,7.06,0,0,18.89-1.78,20.31,3.21,0,0-4.93-2.49-7.45,1.42,0,0,9.59,5.7,9.59,7.48,0,0-7.42-3.21-9.59.36-.44,1.27-1.04,3.56-.74,6.41.38,3.64,2.02,6.18,2.85,7.3Z"/>
</svg>