<?xml version="1.0" encoding="UTF-8"?>
<svg id="Camada_1" data-name="Camada 1" xmlns="http://www.w3.org/2000/svg" viewBox="0 0 903.11 843.06">
  <defs>
    <style>
      .cls-1 {
        fill: #3a8342;
      }
    </style>
  </defs>
  <path class="cls-1" d="m669.88,209.57c-28.19-9.08-43.65.19-63.72-13.63-3.8-2.62-6.55-5.23-8.14-6.85,0,0-13.79,5.52-15.52,15.86,0,0,0,4.48-8.97,1.72-8.97-2.76-22.42,6.21-23.45,10-1.03,3.79-6.9,14.14-10.34,14.48,0,0,.29,11.39,8.56,15.87,0,0,1.09,1.37.06,3.44,0,0-11.04,34.49-27.24,37.59,0,0-13.1,3.45-13.1,20.69,0,0-20,12.76-31.73,12.07-9.54,1.72-19.08,3.45-28.63,5.17-12.18,1.49-24.37,2.99-36.55,4.48h-29.66s-70.01-8.97-84.84-4.83c-14.83,4.14-74.49-21.04-66.21-45.52,0,0-40.43,36.73,18.58,57.16,0,0-26.17,8.02-59.28,83.89,0,0,8.62,66.56-6.55,85.87,0,0-32.76,38.97-28.62,66.56,0,0-9.66,15.86-3.45,40.69,0,0,6.55,24.14,3.45,31.38,0,0,3.79,22.42,10,27.59,0,0-2.41,17.93-4.14,19.66s11.03,16.21,39.31,11.38c0,0,8.62,4.14,11.72-.69,0,0,15.86,3.45,19.31-4.14,0,0,11.38,1.72,10.35-4.14,0,0,2.76-20.69-23.8-25.87,0,0-31.38-24.49-22.42-50,8.97-25.52,55.52-106.56,82.77-108.29,0,0,62.08-7.59,95.53,4.14,33.45,11.73,113.46,31.38,143.12,28.62,0,0,7.5,79.66,2.59,96.22,0,0-8.28,9.57-.78,18.62,0,0,11.45,13.64,10.94,27.45-.01.42-.04.84-.08,1.26-1.29,14.23,61.3,8.02,61.3,8.02,0,0,1.55-2.07,0-4.4,0,0,13.45,3.36,10.61-3.1,0,0-1.81-10.86-6.21-12.16,0,0-27.68-15.52-28.97-28.19,0,0,1.29-91.3,18.62-114.58,17.33-23.28,49.23-44.66,50.95-65.01,1.72-20.35,2.41-40.35,2.41-40.35,0,0,20.69-17.24,12.07-32.07,0,0,5.52-16.55,16.55-22.76,0,0,16.55-27.59,16.55-31.73-.26-1.98-.28-4.65,1.34-6.2,4.05-3.89,13.47,3.92,29.27,6.83,7.45,1.37,24.93,4.59,32.93-4.15,3.63-3.97,4.74-9.71,10.23-11.1,2.35-.59,3.74.49,6.46.57,8.32.26,17.11.53,23.03-5.24,4.36-4.24,5.69-10.3,7.34-17.82.93-4.25,1.27-7.89,1.4-10.48.66-.55,4.72-4.05,4.72-9.44,0-5.49-4.21-10.69-10.43-12.35-8.38-3.65-18.72-7.38-30.81-10.19-14.24-3.3-26.95-4.4-37.2-4.58-3.1-3.1-6.21-6.21-9.31-9.31-1.31-4.27-3.72-10.43-8.4-16.65-10.39-13.82-25.01-18.74-33.55-21.49Z"/>
</svg>