<?xml version="1.0" encoding="UTF-8"?>
<svg id="Camada_1" data-name="Camada 1" xmlns="http://www.w3.org/2000/svg" viewBox="0 0 1180.06 1169.1">
  <defs>
    <style>
      .cls-1 {
        fill: #3a8342;
      }
    </style>
  </defs>
  <path class="cls-1" d="m445.23,733.95c-4.99,14.69-13.29,33.85-27.42,53.76-5.11,7.2-10.32,13.57-15.41,19.19-6.97,7.7-7.6,19.28-1.35,27.58,4.54,6.02,8.94,10.34,12.29,13.28,24.95,21.92,57.11,25.1,60.91,25.43,14.23,1.23,21.29-1.19,33.33,4.3,12.79,5.82,22.72,16.7,20.97,19.89-2.42,4.39-27.27-5.18-27.95-3.23-.49,1.41,12.75,5.73,12.36,8.6-.43,3.21-17.83,4.69-68.81,2.15-1.21.18-3.12.35-5.38,0-7.19-1.11-11.81-6.52-12.9-7.71-4.24-4.58-16.02-10.97-48.38-19.17-9.81-7.88-21.47-29.44-38.44-55.1-11.02-16.66-5.11-31.18-5.11-31.18,4.04-9.31,9.23-24.52,9.68-43.81.31-13.61-1.84-25.01-4.08-33.25l-12.77,19.63-13.79,11.47-58.86,59.16c-2.67,2.28-6.61,6.43-7.13,12.07-.44,4.82,1.69,10.04,12.24,20.15,0,0,13.07,12.54,41.66,29.57,12.07,3.1,22.11,4.32,29.3,4.84,10.7.77,15.65.04,21.32,3.76,9.28,6.1,12.5,18.89,10.39,20.43-1.41,1.03-4.41-3.38-11.83-6.09-9.65-3.53-19.03-.05-18.99.72.06,1.06,18.47-2.71,26.34,6.99,1.92,2.37,2.7,4.91,3.05,6.45-2.55.11-6.41.28-11.11.54-6.1.34-10.48.65-11.47.72-8.8.6-16.59-.01-36.73-.72-20.59-.72-26.2-3.04-35.88-5.25-1.8-.41-3.43-1.4-4.62-2.81-19.36-22.98-33.05-37.08-43.35-46.23-2.77-2.46-13.54-11.88-18.81-24.19-1.07-2.49-2.32-6.68-4.84-15.05-1.92-6.41-2.28-8.17-1.68-10.27,1.45-5.17,6.89-6.45,10.82-9.62,8.82-7.11,7.49-21.69,7.53-29.57.05-12.33,3.53-30.44,19.35-54.83h-22.58l11.29-21.5-11.29,2.69,8.06-17.2-1.61-10.75.54-13.98-7.53-28.86s3.23-65.49,8.06-78.39-19.29,16.93-19.29,16.93c0,0,73.32-146.76,182.98-160.47,109.66-13.71,259.89,37.09,259.89,37.09,0,0,34.25-18.55,70.09-20.7,0,0,34.76-14.69,51.25-15.05,0,0,23.65-9.32,25.8-9.68,2.15-.36,2.15-9.32,8.24-11.47,0,0,3.94.36,9.68,5.73l3.58,2.87s56.62-2.87,104.29,37.99c0,0,41.57,6.81,75.98,65.23,0,0,11.83,46.59-36.91,77.05,0,0-14.33,12.18-58.77-.36,0,0-18.28-17.92-44.8,3.94,0,0-70.24,80.64-65.23,167.01,5.02,86.37,23.29,105.72,23.29,105.72l32.97,23.12c2.12,1.4,16.05,10.8,14.51,20.97-.35,2.36-1.66,5.55-3.23,5.64-2.37.14-2.99-6.56-8.06-9.95-3.53-2.36-7.84-2.18-11.02-1.61-.62,1.69-1.31,4.08-1.61,6.99-.72,6.98,1.57,10.19,0,11.56-2.46,2.14-11.06-3.13-15.63-6.53-6.4-4.76-7.86-8.09-10.71-7.58-2.51.45-2.93,3.32-7.26,10.35-1.61,2.61-7.67,12.46-10.21,11.56-1.5-.54-.6-4.42-3.63-11.15-.97-2.17-1.64-3.06-2.64-3.36-2.17-.65-5.05,1.73-6.63,3.94-2.73,3.83-1.32,6.8-3.05,7.71-2.73,1.43-10.56-3.75-12.01-11.11-1.07-5.46,1.79-9.98,2.69-11.28,0,0,0,0,0,0,5.25-21.28-5.25-41.84-11.76-63.9-9.34-31.65-25.6-62.69-53.29-60.28-4.19,6.27-11.3,18.71-13.44,36.02-1.8,14.56.68,26.41,2.69,33.33,4.73,12.52,10.98,17.27,15.59,19.35,12.25,5.52,25.25-2.27,30.26,4.52,2.54,3.43,1.84,8.98.56,9.46-1.15.43-2.43-3.39-6.09-4.3-3.94-.98-8.28,1.99-8.06,2.96.18.83,3.66-.39,7.79,1.61,1.16.56,4.45,2.16,5.29,5.47.95,3.77-1.63,8.49-4.48,8.96-3.46.57-4.72-5.52-11.87-8.17-4.64-1.73-8.98-.97-9.1-.34-.2,1.13,12.01,6.41,15.05,8.87.69.55,1.19,1.19,1.43,1.97,0,0,.36,1.12,0,2.33-.91,3.08-11.2,3.45-11.2,3.45-17.83.65-29.93,1.09-36.92-7.29-.53-.63-.92-1.18-1.16-1.54-.92-2.09-2.62-5.13-5.73-7.53-5.84-4.48-11.89-3.01-15.23-3.94-15.35-4.29.84-66.36-20.43-94.97-8.53-11.48-26.49-22.14-67.25-20.43l-19.83,20.97,5.91-18.81-11.29,5.91-1.61-12.36-23.65,16.66v-7.53l-14.51,12.36-.54-12.9-15.59,11.83s11.29-17.74,6.99-18.28c-4.3-.54-42.47-9.14-42.47-9.14Z"/>
</svg>