<?xml version="1.0" encoding="UTF-8"?>
<svg id="Camada_1" data-name="Camada 1" xmlns="http://www.w3.org/2000/svg" viewBox="0 0 903.11 843.06">
  <defs>
    <style>
      .cls-1 {
        fill: #3a8342;
      }
    </style>
  </defs>
  <path class="cls-1" d="m495.61,321.57c25.24,6.04,54.87-.55,54.87-.55,24.69-14.54,43.37-13.44,43.37-13.44v-3.57c-12.32-9.88-10.72-43.63-10.72-43.63-.55-5.49-15.91-24.97-15.91-24.97-1.1-7.13-27.71-20.58-27.71-20.58-9.88-7.13-19.48-36.22-19.48-36.22-.55-10.97,8.78-15.23,18.86-10.08,10.08,5.14,36.22,34.37,36.22,34.37l6.79,3.91,8.03-13.99c1.65-8.44-8.85-30.66-8.85-30.66-1.03-4.32-9.26-3.09-9.26-3.09,0,0,3.29-16.67,14.2-11.94,10.91,4.73,22.43,38.28,22.43,38.28l11.73,9.67,13.58-14.4s11.32-35.81,20.17-36.83c.35-.04.69-.06,1.03-.06,8.2-.06,12.76,10.76,12.76,10.76-3.91-1.44-11.42,4.94-11.42,4.94-3.81,4.73-4.42,33.13-4.42,33.13l8.85,11.32,7-2.06s30.94-42.18,44.11-40.26c0,0,12.9,6.72,6.31,21.4,0,0-10.01,28.53-33.2,39.78,0,0-7.55,4.8-10.98,13.86l-12.07,18.79s-1.37,33.2-4.53,38.55c0,0-1.1,22.09,1.51,31,2.61,8.92,7.13,51.72,7.13,51.72l11.8,54.6s2.19,13.99-4.12,21.95c-6.31,7.96-9.05,26.07-9.05,26.07l-29.08,43.35s-1.1,51.03,1.37,60.36c0,0,2.74,21.4-2.2,38.41l-3.29,53.78-.14,10.22,15.64,24.9c-.73.33-1.82.78-3.16,1.23-3.15,1.07-8.13,2.26-18.79,1.51-4.68-.33-10.83-1.06-17.97-2.74,10.09-37.08,10.03-63.62,3.84-80.12-3.29-8.78-10.43-33.75-10.43-46.64s-4.12-30.73-4.12-30.73c0,0-11.52-9.6-17.01,1.37,0,0,.55,35.12,8.23,51.58,0,0,4.12,9.05-5.21,28.53l1.1,81.21c6.77,10.06,13.54,20.12,20.3,30.18-5.61,2.29-14.53,5.14-25.79,5.49-13.22.4-23.65-2.84-29.63-5.21,1.37-11.16,2.74-22.32,4.12-33.47l5.76-69.69s-6.86-16.46-6.31-34.02c0,0-16.46-55.97-16.46-64.2,0,0-75.45,32.38-172.03-20.85,0,0-43.63,37.04-55.15,65.03-11.52,27.99-17.29,72.43-17.29,72.43v30.59s0,9.47,0,9.47l17.29,33.75c-3.79,2.38-8.55,4.73-14.27,6.31-20.87,5.75-39.12-3.13-45-6.31,1.15-13.22,2.84-26.93,4.63-41.16,2.78-22.02,6.48-46.92,10.19-58.44l1.65-44.86s-3.7-14.4,3.7-27.57c7.41-13.17-1.23-110.71-6.17-132.11-4.94-21.4-10.29-32.51-10.29-32.51,0,0-79.84-88.49-22.64-131.7,0,0,4.53,60.5,41.98,64.2,15.67-11.57,45.06-29.9,86.02-36.63,68.6-11.28,121.76,17.82,137.6,27.3Z"/>
</svg>