<?xml version="1.0" encoding="UTF-8"?>
<svg id="Camada_1" data-name="Camada 1" xmlns="http://www.w3.org/2000/svg" viewBox="0 0 903.11 843.06">
  <defs>
    <style>
      .cls-1 {
        fill: #3a8342;
      }
    </style>
  </defs>
  <path class="cls-1" d="m656.69,316.41s13.52,25.39-7.58,48.15l-3.63-10.22s-8.57,4.29-14.51,1.98c-6.76,2.45-18.28,7.81-26.38,19.46-2.48,3.57-5.25,8.61-9.23,23.08-5.26,19.12-6.99,34.17-7.21,36.06-4.42,37.44-28.01,69.3-30.38,72.43-8.02,10.61-25.7,30.57-58.7,44.52,0,0-15.99,8.33-19.95,9.32-1.42,3.18-3.39,6.87-6.14,10.72-4.38,6.12-9.15,10.42-12.9,13.27,5.19,8.13,10.39,16.27,15.58,24.4,5.87.32,11.89.76,18.05,1.32,11.25,1.02,21.98,2.38,32.15,3.96,0,0,17.07-6.18,18.05,8.41,0,0-6.93-9.15-16.08-3.46.13.32.58,1.48.07,2.62-.63,1.44-2.51,2.29-4.52,1.83-5.51-1.21-11.55-2.27-18.08-3.02-11.01-1.27-21.01-1.38-29.66-.94-1.91,1.96-5.54,4.35-10.2,7.05-5.44,3.15-11.56,5.56-14.28,2.6,0,0-1.73-2.99-5.19,1.35,0,0-5.69-5.55,6.68-10.5,2.06-1.73,4.12-3.46,6.18-5.19,0,0-7.42.99-7.42-3.22,0,0-6.43.74-10.14,3.96,0,0-6.43,1.48-6.43-2.72s-7.42-1.73-8.66,2.97c-1.24,4.7-4.95-10.14,8.41-12.37,0,0,3.96,0,4.95,1.98.99,1.98,11.87-.49,11.87-.49,0,0,3.22-3.71-.99-11.87-4.2-8.16-16.57-13.85-16.57-13.85l1.98-13.6s-50.7,1.98-111.54-2.97c0,0-142.46,59.85-166.2,54.91l-91.51,27.7,174.12-88.05s19.29-26.22,34.13-25.23l5.44-.49-7.42-5.94,25.23-4.95s3.46-5.94,17.81-11.38c14.34-5.44,66.78-68.76,106.84-93.49,0,0,57.38-40.56,70.24-61.34,0,0,22.26-14.34,41.55-56.88,0,0,24.73-30.67,69.25-29.18,0,0,40.56-3.46,48.97,20.28,1.55,2.18,4.09,6.35,5.11,12.2,1.19,6.78-.27,12.24-1.15,14.84Z"/>
</svg>