<?xml version="1.0" encoding="UTF-8"?>
<svg id="Camada_1" data-name="Camada 1" xmlns="http://www.w3.org/2000/svg" viewBox="0 0 903.11 843.06">
  <defs>
    <style>
      .cls-1 {
        fill: #3a8342;
      }
    </style>
  </defs>
  <path class="cls-1" d="m708.63,204.73c-3.02,4.53-6.61,4.35-6.61,4.35l-6.8-6.61s9.07,4.72,0-.94-8.12,4.53-8.12,4.53l8.12,11.34c-4.72,1.32-5.29-.57-5.29-.57-14.74-11.9-10.01-72.17-10.01-72.17.57-22.67-1.13-25.31-1.13-25.31-2.08,1.7-5.86,16.62-6.05,18.7s-3.59,48.55-3.59,48.55c-10.39-37.78-24.75-51.39-24.75-51.39,6.8,25.82,14.39,46.07,20.21,60.08,9.11,21.88,23.18,50.78,21.98,51.38-.02,0-.04.01-.07,0-3.4-.57-5.67,2.64-5.67,2.64-.94-20.4-21.16-26.26-21.16-26.26-13.6-.94-15.49,19.65-15.49,19.65-4.34,22.48,11.15,34.95,11.15,34.95-2.8,6.92-8.1,17.49-17.95,27.77-7.63,7.96-15.42,13.07-21.22,16.25,0,0-17.63,11.08-50.38,0-32.75-11.08-128.46-10.58-159.19-16.62-30.73-6.05-135.26,6.8-135.26,6.8l-2.52-.94c-19.23-16.67-35.17-30.35-47.42-40.99-1.84-1.6-7.18-6.25-15.3-10.58-6.45-3.44-14.92-7.83-26.07-7.56-6.7.16-12.08,1.95-15.49,3.4,2.51-.03,7.44.27,12.28,3.4,1.73,1.12,3.62,2.34,3.4,3.4-.46,2.18-9.13.35-18.14,3.4-6.14,2.08-10.49,5.76-13.2,8.56,2.22-.53,6.74-1.48,12.47-1.67,23.23-.77,43.7,11.68,43.64,11.82,0,.02-.57-.23-2.66-.98-14.74-5.31-27.58.78-26.07.02,1.51-.76,58.19,16.62,38.54,15.49-19.65-1.13-32.12,5.29-18.89,2.64,13.22-2.64,26.45,13.22,26.45,13.22,0,0-14.36,5.29-10.96,5.29s12.85,11.71,12.85,11.71c0,0-12.09,13.98-18.14,42.7-6.05,28.72,11.33,105.79,11.33,105.79-11.15,13.98-45.91,28.72-45.91,28.72-15.3.38-18.89,8.31-18.89,8.31l-4.16,71.41s-1.13,63.1-11.52,68.95c-10.39,5.86-7.93,22.67-7.93,22.67,2.46-4.53,8.5-1.13,8.5-1.13l-3.78,12.09c-3.78,1.32-6.8,6.23-6.8,6.23-6.23,19.65,0,24.56,0,24.56,0,0,8.88-6.99,8.12-4.35-.76,2.64,2.83,1.51,2.83,1.51,0,0,20.4-37.78,24.18-54.6,3.78-16.81,1.7-52.33,6.42-77.27,4.72-24.94,24.5-36.96,24.5-36.96l59.95-25.44s-3.27,9.57-14.11,14.86c-10.83,5.29-5.29,10.08-7.81,14.86-2.52,4.79,8.82,33,11.59,38.54s24.68,99.75,24.68,99.75c0,0,5.55,14.36,6.81,16.12,1.26,1.76,10.08.25,10.08.25l-.44-5.79,23.8,8.88c12.28,1.7,15.11-5.86,15.11-5.86l-4.53-3.21,2.83,1.89,2.27-4.72s-30.42-14.17-32.87-15.87c-2.46-1.7-10.01-29.66-10.01-29.66l-12.28-42.88c-6.05-32.49,25.69-59.7,25.69-59.7,17.76-7.56,69.14-67,69.14-67,0,0-21.79-.76,1.64,0,23.43.76,90.43,0,90.43,0l-2.02,5.29c-6.55,18.89-.5,94.21-2.52,119.14-2.01,24.94-19.14,68.58-20.66,78.59-1.51,10.01-9.82,26.07-9.82,26.07,0,0,1.32,2.08,3.21-.19,1.89-2.27,11.52-8.88,11.52-8.88,6.05,4.72,3.02,21.35,3.02,21.35,6.8,3.59,18.51-2.64,18.51-2.64l1.32,1.13,8.88-.94s-14.92-28.15-15.49-38.35c-.57-10.2,14.74-69.33,14.74-69.33,8.12-5.48,13.41-27.2,13.41-27.2-.19-7.18,8.88-46.1,8.88-46.1l17.42-38.01s5.82.6.34.04c-.34-.04,62.91-7.37,62.91-7.37l18.89,33.06c19.27,13.6,45.91,68.39,45.91,68.39,15.87,16.25,25.31,115.81,25.31,115.81.94,3.21,4.53,0,4.53,0-1.51-4.35,5.67-7.93,5.67-7.93,4.35,1.7,7.75,21.54,7.75,21.54,5.1,3.21,20.02,1.32,17,0-3.02-1.32,0-10.2,0-10.2,4.91,6.05,9.07,6.23,9.07,6.23h6.42c-25.5-16.62-33.06-41.18-33.06-41.18-9.82-12.09-19.9-77.14-19.9-77.14,2.27-25.94-4.03-27.46-4.03-27.46-20.4-20.91-29.91-97.73-29.91-97.73,10.39-7.93,28.72-52.9,28.72-52.9,17.19-6.05,52.52-71.03,52.52-71.03,5.1-1.89,53.09,27.02,53.09,27.02,6.42,2.08,9.82-2.64,9.82-2.64,10.58.76,10.77-10.2,10.77-10.2,3.02-7.37,1.13-10.77,1.13-10.77l-10.01-14.55c-20.21-14.74-22.86-48.55-22.86-48.55,3.02-16.25-4.91-18.51-4.91-18.51l-1.42-8.5c43.35-23.24,37.63-58.63,37.63-58.63-21.03,2.52-42.25,43.7-42.25,43.7,0,0-2.08-18.7,1.32-22.48,3.4-3.78,41.37-25.57,41.37-25.57,0,0,.94-3.71-1.7-3.14-2.65.57-33.63,15.87-40.43,14.17s4.91-33.06,4.91-33.06c0,0,9.82-30.79,7.18-39.67-2.65-8.88,3.97-15.87,3.97-15.87,0,0-.19-3.59-1.7-2.64s-3.59,3.78-5.48,3.78-7.18-2.27-6.42-6.8c0,0-.57-3.02-2.08,0,0,0-2.27,6.8,1.13,12.66,0,0,6.42,18.14-5.29,43.45-4.28,9.24-8.56,18.47-12.85,27.71-.9,1.69-2.45,5.14-2.39,9.7.04,3.11.81,5.6,1.45,7.18.31,8.44.94,25.31.94,25.31h0c-3.21-2.83-15.3-2.64-15.3-2.64l-4.3-7.75s2.79,6.99.33-1.13c-2.46-8.12,9.45-18.14,9.45-18.14,5.86-6.61,20.78-43.45,20.78-43.45,6.61-17.19,2.08-11.52,2.08-11.52-6.61,11.52-13.22,23.05-19.84,34.57"/>
</svg>