<?xml version="1.0" encoding="UTF-8"?>
<svg id="Camada_1" data-name="Camada 1" xmlns="http://www.w3.org/2000/svg" viewBox="0 0 903.11 843.06">
  <defs>
    <style>
      .cls-1 {
        fill: #3a8342;
      }
    </style>
  </defs>
  <path class="cls-1" d="m431.52,299.97c-9.55-16.17-9.29-36.15.76-51.21,10.79-16.17,29.55-21.73,43.66-20.53,13.67,1.16,22.77,8.66,39.63,22.55,11.45,9.43,19.78,18.61,25.28,25.28h39.63c2.81-4.45,6.14-11.18,6.6-19.59.55-9.84-3.26-14.09-4.71-22.93-2.55-15.49,3.74-35.41,13.21-38.11,12.85-3.67,30.58,24.62,33.71,29.61,7.96,12.7,20.69,38.49,18.83,79.26,0,0,23.23,25.96,24.6,40.08l24.14,23.69,31.43,77.44s1.82,12.75-2.28,20.95c0,0,1.82,24.14-1.82,33.25,0,0-20.5,29.61-36.9,32.8,0,0-20.95,6.83-37.35,6.38l-16.4,14.58s-20.95,4.1-29.15,22.32l-17.99,16.4s-19.81-.23-27.33,12.53l18.9,1.59s10.02,9.11,5.69,17.08c-7.7,2.07-17.4,3.99-28.7,4.67-11.82.71-22.09-.14-30.22-1.37-4.56-3.19-9.11-6.38-13.67-9.57-6.68.3-13.36.61-20.04.91.61.06,4.99.56,7.74,4.56,2.74,3.97,1.68,8.21,1.52,8.81-5.56,1.46-12.78,2.82-21.26,3.04-10.14.26-18.67-1.18-24.9-2.73-5.47-3.64-10.93-7.29-16.4-10.93-27.16,9.81-48.18,9.92-62.86,7.9-11.32-1.56-28.31-5.69-30.97-.38-2.11,4.2,6.82,10.14,4.56,15.26-3.19,7.21-24.53,3.56-28.01,2.96-9.18-1.57-16.81-2.88-18.75-8.43-2.27-6.46,4.81-13.99,5.7-14.92-6.9-2.64-99.41-39.36-107.5-111.14-3.11-27.57,7.06-53.09,14.58-71.97,16.17-40.61,40.62-67.82,56.48-82.9,17.93-12.09,42.29-26.05,72.88-37.35,34.1-12.59,64.68-17.72,87.69-19.81Z"/>
</svg>