<?xml version="1.0" encoding="UTF-8"?>
<svg id="Camada_2" data-name="Camada 2" xmlns="http://www.w3.org/2000/svg" viewBox="0 0 227.61 175.67">
  <defs>
    <style>
      .cls-1 {
        fill: #3a8342;
        stroke-width: 0px;
      }
    </style>
  </defs>
  <g id="Camada_1-2" data-name="Camada 1">
    <path class="cls-1" d="m.24,146.05c.73,4.43,9.54-1.8,10.09-5.21,4.33-2.24,7.13-8.65,10.5-12.23,6.45-1.83,13.48-4.3,20.77-4.21,5.65,1.68,11.93,3.48,17.96,4.06,8.15,1.97,15.73,5.08,23.97,5.62,1.82,6.11,1.92,15.92,5.14,21.7,3.62.68,11.93,6.56,12.59,4.54.88-.03,2.33,2.75,2.61,1.42-.14-3.84-4.96-3.45-7.28-5.51,2.65-.71,8.37.91,11.87.97,5.2,1.65,6.61,9.76,12.42,11.71,4.91,5.03,11.57,5.22,16.35,6.76,1.99-.37-3.46-4.23-5.8-3.56-18.51-7.83,10.75-2.57,15.98-1.94,2.32-2.93,8.32,2.75,5.72-.82-6.38-4.95-15.99-2.18-23.54-4.58-2.14-.83,7.61-1.65,7.41-1.56,0-.08,1.73.86,1.06.08-4.15-5.25-10.78,1.92-15.66-.56-8.07-4.26-12.56-12.84-18.05-19.89-2.33-3.51-3.21-4.54.2-6.39,14.77-4.8,30.88-9.72,44.59-18.26,7.37-4.65,20.48-10.22,25.11-17.15,43.03-30.37,8.49-74.58,37.39-86.78,5.06-.93,11.25-.43,15.96-.72-4.22-6.69-13.51-4.33-19.85-6.96-12.96-8.94-34.71-10.11-43.76,5.05-5.66,6.11-4.29,18.37-16.35,18.93-16.61,3.1-35.56,2.63-49.11,7.85-19.37,7.03-36.92,15.76-48.72,24.49-1.54.69-34.84,27.69-38.19,33.91-1.1,2.04-1.23,4.61.6,5.75,2.43,1.91-.77,3.43-1.43,6.22-1.04,4.31-3.99,9.79-4.42,13.51-4.07,6.25-2.94,11.94-6.01,18.28-.24.02-.53,3.37-.24,2.62.32.99-.41,1.88.12,2.86Zm119.07,18.39s.03-.04.04-.07c0,.04.01.08-.04.07Zm0,2.04s-.02.04,0,0c-.04.02-.03.01,0,0Zm-.92-2.73s.01,0,0,0c0,0,0,0,0,0Zm-.45-1.25s0,0,0,0c0,0,0,0,0,0Zm-.75.14s.03-.04.04-.02c-.01.01-.03.02-.04.02Zm-1.82-2.23s.02,0,.03.01c-.01,0-.02,0-.03-.01Zm-1.35-4.29s-.01-.01,0,0c0-.02.01-.02,0,0Zm-2.82.32s0,0,0,0c0,0,0,0,0,0Zm-.22,1.21s.04-.06.09,0c-.03,0-.06,0-.09,0Zm-.35-4.64s0,0,0,0c0,0,0,0,0,0Zm-1.82,3.9s-.01.02-.01.03c0-.02,0-.02.01-.03Zm-.34-.9s0,0,0,0c0,0,0,0,0,0Zm-.17-7.35s.05,0,.05.03c-.02,0-.03-.02-.05-.03Zm-6.83,10s0,0,0,0c0,0,0,0,0,0Zm-14.1-24.24s0,0,0,0c0,.01,0,.01,0,0Zm.4-.59s.01-.02.03,0c0,0-.02,0-.03,0Zm5.61-.33s-.06,0-.02,0c0,0,.02,0,.02,0Zm2.34,4.51s.02-.07.03-.11c.01.04,0,.08-.03.11Zm.28-4.39s0,0,0,0c.01,0,0,0,0,0Zm.57.33s0,0,0,0c0,0,0,0,0,0Zm.09,3.05s0,0,0,0c0,0,0,0,0,0Zm.11.87s0,0,0,0c0,0,0,0,0,0Zm.38.77s0,0,0,0c0,0,.01,0,0,0Zm.43,1.7s0,0,0,0c0,0,0,0,0,0Zm.27,0s0,0,0,0c0,0,0,0,0,0Zm0-1.91s0,0,0,0c0,0,0,0,0,0Zm0,1.91h0s0,0,0,0Zm.22-5.93s-.03-.01,0,0c0,0,0,0,0,0Zm1.38,3.68s0,0,0,0c0,0,0,0,0,0Zm.61,3.66s0-.09,0-.13c.11.08.13.07,0,.13Zm.89-6.98s0,0,0,0c0,0,0,0,0,0Zm.9,5.35s0,0,0,0c0,0,0,0,0,0Zm1.7,6.54s0-.01,0-.01c0,0,0,0,0,.01Zm.71-3.43s0,0,0,0c0,0,0,0,0,0Zm.91,3.34s.07-.09.1-.04c-.04.02-.08.03-.1.04Zm.32,1.26s-.03-.04-.04-.06c.04.02.11.02.04.06Zm.32,3.84s0-.02,0-.02c0,.01,0,.01,0,.02Zm1.65-1.27s0,0,0,0c0,0,0,0,0,0Zm-.35,5.93s0-.03.02-.01c0,0-.01,0-.02.01Zm-.99.56s0,0,0,0c0,0,0,0,0,0Zm-.02-.04s.04.03,0,.04c0-.02,0-.03,0-.04Zm-1.93-.71c.28.25.24.23-.07.16-.02-.1.02-.14.07-.16Zm3.49-2.42c1.4,2.2-2.3.31-3.57.46-2.04.16,2.88-1.1,3.57-.46Zm-9.81,1.26s0,.02,0,.03c0-.01-.03-.03,0-.03Zm-9.52-12.01s.02,0,.01.02c0,0,0-.02-.01-.02Zm6.34-7.39c.72,5.46,6.63,8.93,9.46,13.59,5.27,4.46-12.69,5.19-13.7-.14-1.97-4.37-2.39-9.31-3.4-13.92,1.8.16,7.16-.92,7.64.47Zm-8.02-1.68s0-.05.02-.04c0,.02-.01.03-.02.04Zm-.21,1.79s-.01,0-.02,0c0-.02,0,0,.02,0Zm-.79,1.09s0,.02,0,.04c-.02,0,0-.02,0-.04Zm-.26,3.12s0,0,0,0c0,0,0,0,0,0Zm0-2.17s0,.01,0,.02c-.02,0,0,0,0-.02Zm-.2-.58s.02-.01.03-.02c-.01,0-.02.03-.03.02Zm0,0s0,0,0,0h0Zm0,0s0,0,0,0c0,0,0,0,0,0Zm-1.16-.55s.01,0,.02,0c-.01,0-.03.01-.02,0Zm-1.49-2.85s.02-.01.01,0c0,0,0,0-.01,0Z"/>
  </g>
</svg>