<?xml version="1.0" encoding="UTF-8"?><svg id="Camada_2" xmlns="http://www.w3.org/2000/svg" xmlns:xlink="http://www.w3.org/1999/xlink" viewBox="0 0 160 160"><defs><style>.cls-1{fill:#fff;}.cls-2{fill:#3a8342;}.cls-3{clip-path:url(#clippath);}.cls-4{fill:none;}</style><clipPath id="clippath"><rect class="cls-4" width="160" height="160"/></clipPath></defs><g id="Camada_1-2"><g class="cls-3"><circle class="cls-1" cx="80" cy="80" r="80"/><path class="cls-2" d="m98.25,50.99c1.75-.04,4.35.09,7.33.96,4.36,1.27,7.13,3.42,9.82,5.6,3.52,2.85,8.08,6.46,7.73,10.25-.08.89-.55,3.09-1.64,3.34-.39.09-.68-.12-1.26.06-.78.24-.82.78-1.43,1.09-1.02.53-1.78-.54-3.15-.29-1.08.2-1.75,1.07-2.35,1.85-1.05,1.36-1.32,2.82-1.4,3.63.43,3.27.46,7.48-.09,12.34-.77,6.87-3.01,15.13-8.85,20.72-.39,1.21-.92,2.92-1.46,5-1.32,5.02-1.12,5.96-.64,6.31.77.55,1.81-.78,3.36-.34,1.75.5,3.18,2.98,2.52,4.43-.53,1.17-2.29,1.3-4.15,1.53-3.23.38-5.9-.34-7.56-.95,0,0-7.28-7.4-7.45-11.49,0,0-6.16-2.21-7.84,5.94v.45c1.45-.39,4.16-.87,7.13.13,3.97,1.34,7.52,5.03,6.8,6.77-.26.63-1.05.93-6.77,1.18-11.31.49-13.68-.45-15.21-2.06-.77-.8-1.2-1.64-1.43-2.19,0,0-25.22,3.53-32.11-9.83,0,0-5.88-12.78,7.4-28.91,0,0,11.94-18.24,35.13-15.8,1.08.31,5.52,1.47,7.4-.67.88-1,.84-2.28.61-6.21-.21-3.53-.42-6.61-.61-9.13-.74-.56-1.76-1.45-2.74-2.71-.47-.6-1.73-2.35-3.15-7.71-1.02-3.87-1.53-5.85-1.23-8.4.21-1.84.53-4.57,2.24-5.3,2.27-.97,5.51,2.24,6.39,3.11.45.45.86.91,3.95,6.22,2.45,4.21,3.26,5.75,3.95,7.98.39,1.28.62,2.36.76,3.11Z"/></g></g></svg>