<?xml version="1.0" encoding="UTF-8"?>
<svg id="Camada_1" data-name="Camada 1" xmlns="http://www.w3.org/2000/svg" viewBox="0 0 903.11 843.06">
  <defs>
    <style>
      .cls-1 {
        fill: #3a8342;
      }
    </style>
  </defs>
  <path class="cls-1" d="m375.93,495.52c.22,14.04.43,28.09.65,42.13,1.3,26.58-6.81,15.56-6.81,15.56,0,0,.65-56.07-2.27-54.45s-3.24.32-3.24.32c-3.89-3.57-2.59-58.99-2.59-58.99-8.1-2.92-9.72-12.96-9.72-12.96-10.05,7.45-25.28-.65-25.28-.65l-4.86,35.48s.97,10.54-8.1,18.65c-9.08,8.1-2.27,75.84-2.27,75.84,0,0,1.62,8.43-5.51,0-7.13-8.43-.65-62.23-3.89-78.76-3.24-16.53,2.92-53.48,2.92-53.48-21.39,10.05-44.73,5.67-44.73,5.67,1.94,34.51-15.56,49.11-15.56,49.11-14.26,9.4,10.37,64.82,10.37,64.82-28.85-7.45-23.01-65.79-23.01-65.79-6.81-10.37-.65-29.49-.65-29.49,5.51-22.69-.65-18.64-.65-18.64-8.1,1.78-17.5,23.83-17.5,23.83-10.37,33.06-32.41,35.33-32.41,35.33,0,0-23.66,25.28-24.63,38.24-.97,12.96-4.54,6.81-4.54,6.81-3.89-22.69,15.56-50.88,15.56-50.88,22.69-47.32,58.01-69.68,58.01-69.68,5.51-8.43,14.91-10.05,14.91-10.05,0-18.15,22.36-44.73,22.36-44.73,9.72-10.05,23.66-4.54,23.66-4.54,10.05.65,17.46,27.23,17.46,27.23l.04-3.57c-.65-8.1,6.48-21.39,6.48-21.39,10.05-20.42,23.01.65,23.01.65-.32-19.12,12.64-36.62,12.64-36.62,31.44-38.89,75.52-32.09,75.52-32.09,23.34-8.75,56.39-.32,56.39-.32,7.78-12.64,11.02,1.62,11.02,1.62,10.37-.97,25.28,8.43,25.28,8.43.07-5.46,2.34-9.78,5.83-11.02.49-.17,1.96-.7,3.27-.15,3.24,1.36,4.05,8.64,2.24,17.97l3.24,1.94c21.39,15.23,6.48,53.26,6.48,53.26h6.48c30.47-24.2,55.75-10.81,55.75-10.81h7.13c37.92-.64,56.72,33.07,56.72,33.07h3.89c29.49,11.67,51.21,62.2,51.21,62.2,20.09,60.9-7.78,74.9-7.78,74.9,7.78-46.02-17.5-57.54-17.5-57.54-3.89,9.55,4.21,22.86,4.21,22.86,10.05,27.55,1.94,41.81,1.94,41.81l-12.64-26.25c-6.48-22.04-39.87-45.28-39.87-45.28-38.24-34.59-34.03-57.13-34.03-57.13,0,0-20.58-8.43-29.33-1.62,0,0-6.81,6.81-15.56,8.75,0,0,42.78,20.76,48.62,50,5.83,29.24-5.35,64.73-5.35,64.73l-5.83,3.4s8.26-51.07-.97-61.27c0,0-46.19-2.42-63.69-47.15-3.34,2.74-12.16,9.19-24.79,9.72-5.83.25-10.69-.84-14.1-1.94,3.84,16.1,7.67,32.19,11.51,48.29h0c9.08,59.64-22.69,67.74-22.69,67.74,8.1-22.36-6.48-64.5-6.48-64.5-5.19-5.19-12.96,9.07-12.96,9.07,10.37,22.04,6.44,57.04,6.44,57.04-6.2-1.46-21.03-18.96-26.37-33.06-15.73-41.48-23.64-68.57-45.94-76.81-4.38-1.62-11.25-2.96-21.15-.49"/>
</svg>