<?xml version="1.0" encoding="UTF-8"?><svg id="Camada_2" xmlns="http://www.w3.org/2000/svg" xmlns:xlink="http://www.w3.org/1999/xlink" viewBox="0 0 160 160"><defs><style>.cls-1{fill:#fff;}.cls-2{fill:#3a8342;}.cls-3{clip-path:url(#clippath);}.cls-4{fill:none;}</style><clipPath id="clippath"><rect class="cls-4" width="160" height="160"/></clipPath></defs><g id="Camada_1-2"><g class="cls-3"><path class="cls-2" d="m123.08,48.82s1.99-2.52,1.44-5.18c0,0-2.23,3.23-3.14,3.66-.04.02-.07.03-.1.04-.83.22-.62,0-.62,0,0,0,.96-2.62.62-3.7,0,0-3.28,3.72-3.65,4.82l-2.44.95s-6.02-1.3-24.82,9.15l-3.2.85s-4.37.63-7.96,3.23c0,0-5.67,2.01-17.29-2.84-5.66-2.36-11.53-1.73-16.06-.46-6.18,1.73-10.41,7.45-10.14,13.86.13,3.2,1.05,6.75,3.56,10.08,0,0,3.73,4.31,1.1,9.82,0,0-3.26,4.25-.95,9.45l.35,11.71.24,2.25s2.76,2.52,2.76,3.86l.12.93h4.07s-.53-1.55-.53-1.55c0,0-2.26-1.31-2.26-2.28,0-.97-1.02-4.57-1.02-4.57,0,0-.63-7.04-.21-9.24.42-2.21,1.21-6.3,3.47-8.25,0,0,1.79-1.94,2.21-5.88,0,0,2.63-4.99,4.1-5.83,1.47-.84,3.62-2.27,3.62-2.27,0,0,10.71,6.57,14.49,7.04,0,0,13.55,1.37,16.81,1.05l.2,10.75s.91,4.49.16,7.37l-.79,5.28.12,1.06s1.3.87,2.17,3.66l.08.47s1.3.98,3.62,1.04l-.1-1.3-1.54-1.69s-1.16-2.41-1-4.88l.16-2.47.32-3.94s.39-2.01,1.06-3.11c0,0,1.38,3.19.83,6.89s-.04,6.03-.04,6.03c0,0,2.6,1.73,3.27,4.1,0,0,1.61.91,3.74.91v-1.38s-2.05-1.61-2.05-1.61c0,0-1.81-1.42-1.81-3.94,0-2.52-.32-5.4-.12-7.05.2-1.65.24-3.35.75-3.62s.71-4.88.71-4.88c0,0,1.18-4.61,1.81-5.28s.71-4.41.71-4.41c0,0,3.47-1.69,4.45-7.52-.43-5.75,2.88-9.26,4.18-10.95s5.2-6.93,6.74-7.48c1.54-.55,2.4-.2,2.4-.2,0,0,.8,2.21,3.63,2.13,0,0,4.09,1.97,6.73,1.65,0,0,.47,2.76,3.43,1.93,0,0,3.11-.75,2.01-4.69,0,0-1.65-3.47-5.16-6.62l-1.06-1.34s.39-1.65-.59-2.21c0,0-1.73-.75-1.85-1.46"/></g></g></svg>