<?xml version="1.0" encoding="UTF-8"?>
<svg id="Camada_1" data-name="Camada 1" xmlns="http://www.w3.org/2000/svg" viewBox="0 0 903.11 843.06">
  <defs>
    <style>
      .cls-1 {
        fill: #3a8342;
      }
    </style>
  </defs>
  <path class="cls-1" d="m748.47,264.22c-5.91-4.42-20.64-14.18-41.92-15.81-17.87-1.37-31.73,3.66-38.45,6.63-6.45-2.08-15.79-3.88-24.18.21-12.7,6.19-16.34,22.55-17.75,28.02-4.69,18.23-18.15,46.09-57.66,87.21-27.34-14.93-67.98-10.17-67.98-10.17-48.91-23.76-32.37-12.06-110.85-28.62-78.49-16.56-146.96,99.86-174.66,144.52-27.69,44.67-109.43,86.37-109.43,86.37-21.58,36.26,27.73,81.65,27.73,81.65,9.42-31.59,93.08-85.15,82.68-67.01-10.39,18.13,20.57,87.15,20.57,87.15,5.06,1.35,12.4,3.06,21.37,4.19,21.5,2.73,51.91,2.14,53.44-4.84.71-3.22-4.41-9.13-31.96-20.98,18.51-9.12,41.59,12.12,57.91,17.49.44.14.91.28,1.42.4,18.55,4.57,84.03-2.53,84.03-2.53,6.23-4.71,12.63,5.75,12.63,5.75.83-6.85-8.11-10.29-8.11-10.29-4.95-10.14-30.96-11.17-30.96-11.17-11.56,6.7-11.76-3.85-11.76-3.85,47.6-79.88,129.9-54.6,129.9-54.6,0,0,27.83,49.22,27.57,63.28-.26,14.06,21.5,21.23,21.5,21.23,10.69,6.39,50.45.83,50.45.83,1.42-2.8-3.48-5.65-3.48-5.65,6.68-.14,8.4,7.08,8.4,7.08.91-4.74-1.71-7.75-1.71-7.75,5.3-3.66,17.55,5.84,17.55,5.84-.44-14.66-13.62-15.84-13.62-15.84-2.96-5.29-21.23-6.46-30.03-5.1-8.8,1.35-9.61-10.61-9.61-10.61,3.19-3.85,6.12-52.35,6.12-52.35,8.5-10.85,28.46,2.98,28.46,2.98l20.64,74.36c2.21,1.22,5.97,3.11,10.88,4.59,11.24,3.4,19.2,1.9,38.5,1.11,4.62-.19,11.8-.42,20.75-.4-.49-2-.97-3.99-1.46-5.99.73.33,1.89.96,2.98,2.13.92.98,1.44,1.96,1.74,2.65.12-.59.23-1.45.1-2.46-.2-1.6-.89-2.76-1.3-3.35,1.59-.27,6.2-.84,10.52,1.88,1.39.87,2.42,1.88,3.16,2.77,1.1-7.9-12.32-12.07-12.32-12.07-6.14-9-33.98-6.4-33.98-6.4-15.11-9.58-14.09-25.66-14.09-25.66,0,0,6.82-15.65,15.61-51.59,2.08-39.54,23.23-91.9,23.23-91.9,24.07-12.51,27.35-30.95,27.35-30.95-.37-25.85,14-47.12,14-47.12,41.66-42.74,26.96-98.47,26.96-98.47l2.8-4.86c1.07-2.57,3.74-9.97,1.57-19.11-2.59-10.86-10.24-16.68-12.29-18.14-2.68-1.99-6.21-2.27-8.96-.71-3.37,1.9-3.93,5.6-3.99,6.04Z"/>
</svg>