<?xml version="1.0" encoding="UTF-8"?>
<svg id="Camada_2" data-name="Camada 2" xmlns="http://www.w3.org/2000/svg" viewBox="0 0 191.85 193.2">
  <defs>
    <style>
      .cls-1 {
        fill: #3a8342;
        stroke-width: 0px;
      }
    </style>
  </defs>
  <g id="Camada_1-2" data-name="Camada 1">
    <g>
      <path class="cls-1" d="m11.55,147.64c6.9-3.41,22.93-2.32,32.81-5.98.89,1.21,2.02,1.03,3.3-.06,1.1.12,2.08-.17,2.99-.69.8.19,1.69.31,2.5.17.79.37,1.58.73,2.36,1.1h0c.84,1.03,1.31.16,1.87-.26-.23,2.85,2.91,2.99,4.22,4.66,1.31,2.22,4.41,2.86,5.51,5.2-2.76,7.73-4.48,16.08-8.78,23.19-1.56.66-3.07,1.3-4.63,1.96-.14,0-.27.05-.37.19h0s0,0,0,0c-2.71.22-8.32,2.88-7.57,5.99.88,1.06,1.48-.1,2.01-.55,4.45-3.85,8.13-1.26,12.76-.58h0c3.19.1,6.31.18,9.22,1.63h0c5.29,4.4,10.88,1.37,16.95,3.12-1.06-4.35-3.94-4.96-7.32-4.79h0c.22-.4.44-.79.67-1.19,3.95-1.2,7.57.63,11.65,1.61-1.11-3.65-3.47-4.7-6.55-4.73-.89-2.82-6.61-1.57-8.78-1.21-12.5-.03-8.73-1.99-7.13-11.21h0c1.17-2.78,2.33-5.56,3.5-8.35.54-2.49,1.51-4.23,4.59-3.08,3.83.95,10.41-2.22,8.93,5.11-.33,1.56,1.5,2.33,1.84,3.72.52,1,.24,2.56,1.93,2.73-.01-.18,0-.36.04-.54,1-.07,3.69.54,1.58,1.62.31.84,2,1.79,1.22,2.68.49,1.08,2.26-.03,2.5,1.47h0c-.53.95,2.08,2.5-.57,3.07,1.39,1.52.88,4.01,2.35,5.62.13.68.25,1.37.38,2.05,0,0,0,0,0,0-.09.18-.16.38-.2.58.53.48-.08,1.93,1.37,1.62,0,0,0,.02,0,.03,0,0,0,0,0,0h0s0,0,0,0c0,.24.02.47.03.71.39,0,.77-.02,1.17-.01.81.92,2.22.86,3.33,1.1-.65.32-1.25.67-.37,1.75.01,0,.02,0,.03,0-.18.21-.07.55.03.77-.27.04-.54.09-.81.13-.89-.93-1.78-.24-2.66.01.22-1.75-1.43-1.03-2.12-1.59.23-.46.36-1.08.03-1.52.57.05,1.06-.08,1.33-.69-.48.01-.96.02-1.44.04,0,.15-.03.29-.05.44-.09-.09-.15-.23-.29-.27.09-.04.17-.12.24-.29-.09-.2-.06-.37.09-.53-.23.23-.46.45-.69.68-1.1-1.28-.75-3.3-2.19-4.41,1.97,7.7-11.11,8.06-9.68,12.62,1.18,1.48,2.07-.74,3.07-1.28,2.25-1.23,4.84-.99,7.16-1.84.4,2.98,2.3,1.5,3.79,1.27,3.92-.49,7.51.99,11.17,1.94,4.38,1.14,8.74.41,13.36.27-1.37-5.15-5.36-2.91-8.75-4.29.04-.31.04-.27.08-.58,4.9-.52,8.37-2.63,13.55-.67-5.55-8.55-13.61-2.96-21.21-3.9-2-.69-4.2-.76-5.99-2.05-.29-1.05-.51-2.13-1.35-2.93-.35-1.89-1.17-3.59-2.13-5.23,0,0,0,0,0,0h0c-.18-1.07.47-2.57-1.43-2.72h0c.58-6.06-3.35-11.78-.84-17.78,1.33-.47,2.05-.73,3.39-1.2l.15.07c-.16.72-.24,1.08-.41,1.8l.33.5c-.5.21-1.37.54-.95,1.04.69.82,1.6-.31,2.46-.17,0,0,0,0,0,0h0c.48,0,.96,0,1.45.01h0s0,0,0,0c.71-.56,1.21-1.44,2.17-1.55,4.09.96,7.02-2.57,10.81-3.38.13-.2.31-.26.54-.2,3.97-2.46,7.94-4.92,11.92-7.38,13.61-4.91,22.97-18.32,32.33-28.9-.05-.23-.06-.43-.03-.62,1.13-.51,2.27-1.01,3.4-1.52-.19-.23-.39-.47-.58-.7.19-.06.31-.18.37-.37.89.48,1.17-.53,1.77-.74.3-.25-.08-.54-.2-.79.15.08.3.18.47.31,4.22-3.14,4.96-8.14,6.99-12.51,8.24-12.34,11.07-37.87,4.57-51.15.38.25-4.02-6.34-5.18-8.18.11-.87.09-1.73-.28-2.58,0,0,0,0,0,0,2.58.54.71-1.72-.23-2.5,1.46-2.41,3.88-1.19,5.87-1.29,0,.12-.02.24-.03.35,0,0,.05-.04.05-.04,0,0,0,0,0,0,.44.74.99,1.44,1.93,1.27.83-.15.6-.84.42-1.41.29-1.38-1.81-2.76,0-4.14,1.14,3.27,4.47,1.72,2.31-.99h0c-.37-.72-.43-.85-.8-1.58.66-.91,1.15-1.87,2.09-2.39.17-.04.33-.1.49-.19,1.31,1.4,2.51-.4,3.78-.14,9.36.47,4.41-2.31.04-5.63h0c-7.12-3.13-14.65-5.17-20.9-10.06-2.54-2.27-5.45-3.7-8.65-5.05-.24-.1-.46-.18-.68-.26.63.28.68.68-.76.94-.96-.16-2.07.35-2.83-.66.6-.65,1.99-.68,2.97-.47-2.3-.63-3.34.16-3.89.73-.28.29-.34.74-.12,1.09.85,1.4,2.19,2.2,3.74,2.74.1.46.41.71.89.81,3.3,2.75-.82,9.89-1.12,10.52-.14-.19-1.65,5.82-1.45,4.69-.31,1.62-.52,3.93.23,4.52,0,0,0,0,0,0,.64,1.06,3.45,3.52,3.73,4.11.41,1.8,2.67,7.04-.06,15.75l.11.11s0,0,0,0c-.04-.04-.07-.07-.11-.11-6.89,4.36-21.13-2.59-22.2-2.94-20.48-6.67-46.6-6.49-65.78,2.16-3.54,1.63-5.97,2.54-7.84,3.66-20.69,10.67-35.74,31.16-40.86,53.66-.75,3.2-3.5,5.88-4.99,8.89-4.31,1.95-5.31,8.2-7.7,12.01-1.35,3.95-4.87,11.6-6.66,17.39-1.13,3.64-1.29,5.43-1.59,7.33-.94,6.04,8.42,1.8,11.49.29Zm157.19-79.35c-.17.76,0,1.67-.87,2.14-1.52-1.08-.94-2.58.87-2.14ZM9.84,128.74c-1.03-.39-.55-2.6.61-2.09.45.45.57,2.26-.61,2.09Zm3.36-2.44c-1.46.07-1.13-2.17.16-2.21,1.41.26,1.27,2.24-.16,2.21Zm1.2,3.28s-.04,0-.05-.02l.05.02Zm1.48-10.09c-2.17.11-1.23-2.78.38-2.04.82.69.32,1.46-.38,2.04Zm1.93,3.65c-.18.35-.64.56-.84.72-2.84-.46,1.33-2.88.84-.72Zm3.04-13.8c-.11.53-.47.8-1.01.74-1.84-.36,1.09-2.56,1.01-.74Zm.78,8.66c-1.53,0-1.57-.94-1.32-2.07,1.65-.58,2.56.8,1.32,2.07Zm4.39-25.62c-.29-.88-.14-1.66,1.08-2.13.65,1.08.24,3.26-1.08,2.13Zm1.4,24.22c-1.71.94-2.46.45-2.2-1.5,1.88-1.18,2.48-.48,2.2,1.5Zm4.33-23.12c2.07-.36,1.61,2.45,0,2.89,0-.92.04-2.26,0-2.89,0,0,0,0,0,0-1.4.49-1.72-.15-1.44-1.4,1.45-1.22,2.55-.11,1.44,1.4Zm-.4,6.11c-.92-.7-.14-2.71,1.04-2.46.23.86-.46,2.25-1.04,2.46Zm2.31.77c.54,1.01-1.81,1.78-1.8.36.33-.74,1.3-.83,1.8-.36Zm1.09-15.38c2.64,4.06-.34,7.89-.7,3.45-2.87-1.91,1.73-11.77.7-3.45Zm1.71,12.91c1.34.64,2.24,2.31-.06,2.5-2.9-2.85.41-10.62.06-2.5Zm2.23,3.88c.31,1.16-1.5,4.03-2.2,1.98.11-1.14.53-2.04,2.2-1.98Zm-.22-17.29c-2.39-.19-.41-3.69-.88-5.33,1.14-3.7,2.6,4.41.88,5.33Zm.5-.34s-.04.03-.07.04c0,0,.07-.04.07-.04Zm5.53,17.25c.38-1.24.77-2.47,2.27-2.8.81,1.48-1.51,5.97-2.27,2.8Zm3.74,6.34c-.07.65-.55.99-1.18,1-1.97-.24,1.11-2.59,1.18-1Zm-.63-21.41c-.26,1.56-1.2,1.27-2.2.8-1.24-3.29,3.27-5,2.2-.8Zm-.93-17.32c-1.77-.22-1-2.57.43-2.51,1.71.07,1.03,2.47-.43,2.51Zm-3.38,34.67c2.69-.46,1.17,3-.11,2.8-1.09-.9.28-1.83.11-2.8Zm2.99-10.83c.14,1.78,1.67,2.71-1.51,4.95-3.06-4.58,2.04-15.31,1.51-4.95Zm-.86,17.05c.14,1.75-3.13.55-2.76-1.1.27-1.75,1.98.85,2.76,1.1Zm-3.48-29.25c-.73-1.25.47-2.46.09-3.7,0,0,0,0,0,0-.38-1.14-.51-2.2.91-2.84.57,1.03.08,2.73-.91,2.84,1.92.93,1.97,1.95-.09,3.7Zm-.99,9.46c-1.63-1.16.17-3.52,1.36-3.39.56,1.17-.16,3.21-1.36,3.39Zm1.78-18.67c-1.44.16-1.55-2.47.13-2.35,1.6,0,1.44,2.5-.13,2.35Zm2.08,12.01c-2.76,3.64-2.53-2.69-.08-3.44,1.57,1.11-.26,2.3.08,3.44Zm2.41-18.79c-2.9,1.39-1.88-3.52.44-2.24.84.94.47,1.68-.44,2.24Zm1.06,37.42c1.02,1.72,1.42,3.22-1.3,3.59.28-1.3-.02-2.86,1.3-3.59Zm3.83-20.9c.41,1.13.1,2.32-.93,3.17-1.57-.71-.57-4.34.93-3.17Zm-1.13-13.97c1.36-.44,1.19,1.39,1.86,2.16-2.03,1.03-3.49-2.19-1.86-2.16Zm-.92,28.47c-2.14.92-.34-2.78.09-3.62,1.94.03,1.27,3.14-.09,3.62Zm-1.7,5.62c.89-.99.59-2.25.74-3.4,3.2-.98,2.01,3.71-.74,3.4Zm1.23-20.06c-.14.27-.36.38-.66.33-2.51-5.41,4.15-6.22.66-.33Zm2.18-14.9c-.75.24-1.35.04-1.69-.65-.11-2.84,2.44-1.44,1.69.65Zm-1.15-4.55c.03-1.9.62-3.08,2.81-2.11.23,2.26-.81,2.82-2.81,2.11Zm1.05,12.28c.03-.68-.21-1.8-.51-3.05,2.59-2.09,3.98,1.24.51,3.05Zm1.25,25.79q.42-2.68,2.18-4.06c-.11,1.56.4,3.41-2.18,4.06Zm1.1,22.54s-.03-.03-.03-.03c0,.02,0,.03.03.03Zm8.66-33.12c1.02-5.29-2.45-4.84.79-10.84,1.47.44,2.29,10.56-.79,10.84Zm1.72-11.89c-.38-1.17-.54-2.23.98-3.15.49,1.48.45,2.52-.98,3.15Zm-6.9,7.36c-.2-2.41,3.45-6.72,2.85-2.04,1.39,2.64-3.9,6.3-2.85,2.04Zm2.31-4.9c-1.2-1.04.62-5.12,2.14-2.88-.65,1-.81,2.38-2.14,2.88Zm1.93-9.35c-.56,2.13-.43,4.52-2.61,5.93-3.18-.91-.3-6.92,2.61-5.93Zm1.21-9.17c1.02,1.35.91,2.39-.76,2.83-3.11.84-1.47-4.4.76-2.83Zm.78,3.04c.03,4.65-3.65,6.48-1.08.41.3-.26.7-.34,1.08-.41Zm.06,41.41c0,.34-1.34,2.37-2.04-.01,1.03-3.46,4.28-3.37,2.04.01Zm-4.11-3.36c-1.18-3.25,5.4-16.99,3-6.04-2.11.9.84,6.73-3,6.04Zm-1.98-9.74c.11-1.62-.01-4.67,1.35-5.34,3.09-1.21.89,4.73-1.35,5.34Zm-.31,5.63c-.8-1.01.29-1.72.39-2.57,1.27-.28,1.03,2.3-.39,2.57Zm-.8-26.4c-.66-1.66-.14-5,2.4-5.41-.57,2.05.21,5.16-2.4,5.41Zm-1.38,10.04c-1.42-.75.02-3.71,1.71-3.52.48,1.03.03,3.54-1.71,3.52Zm.29-8.03c1.64.65.34,1.54.19,2.34-2.56,5.62-4.25-.67-.19-2.34Zm-.68-12.69c1.85-.72,2.92.47,1.33,1.84-2.23.67-1.33-.91-1.33-1.84Zm-1.1,32.89c-1.12-.85.36-3.83,1.06-4.91,2.55.35.48,5.03-1.06,4.91Zm3.2-35.88c-.97.72-1.96.55-2.94.04-.54-2.69,3.5-2.78,2.94-.04Zm-.34,9.41c-2.91-1.08-.4-2.67-.38-4.02,3.47,1.02.08,2.7.38,4.02Zm2.71-11.74c-2.63-1.24-1.11-4.25,1.14-2.62.56.66.37,2.22-1.14,2.62Zm2.5,3.53c-.95.17-1.74.4-2.74.27-.69-2.44,3.21-2.79,2.74-.27Zm3.04-9.05c.01,1.48-1.08,1.62-2.15,1.72-2.64-.43,1.29-3.98,2.15-1.72Zm.58,4.68c-.08.67-.05,1.57-1.08,1.46-3.29-.18,1.03-4.35,1.08-1.46Zm.14,18.3c-4.65,1.16-.11-2.17-1.31-2.69,2.36-5.75,2.75-.81,1.31,2.69Zm7.39,18.11c.93-7.49,2.96-7.52,2.09.21,2.28-1.87,3.39,2.85,2.07,4.3-8.47,6.54-.42-4.12-4.16-4.51Zm9.73-15.11c-4.43,2.73-4.43-4.85.02-2.29-.76.41.33,1.5-.02,2.29Zm-5.74-12.07c1.88.59,3.34,3.57.2,3.89-1.86-1.82-.83-3.05-.2-3.89Zm.29,13.79c1.75.17-.53,3.61-.81,4.81-1.73-1.92-.49-3.54.81-4.81Zm.1-15.51c.73-1.8,3.26.27,1.87,2.27-.8-.7-2.47-1.1-1.87-2.27Zm3.36,6.53c1.39,1.48.29,3.54-1.53,2.18.08-1.19.12-2.14,1.53-2.18Zm-1.41,27.41c-2.09-1.19-1.12-8.07,2.15-7.24.72,2.4-.03,6.24-2.15,7.24Zm-1.92-6.54c.23-2.23.3-5.35,1.9-7.34,1.65,1.86.88,8.45-1.9,7.34Zm-5.98-5.6c.14-1.27.51-2.51.78-3.77,2.87.62-.6,7.22-.78,3.77Zm-3.93-22.54c2.68-3.07,2,.98,1.74,2.9-1.91,4.35-2.16-1.27-1.74-2.9Zm2.46,10.82c1.47.75-.78,3.44-1.79,2.66-.69-.94.35-3.29,1.79-2.66Zm1.37-3.04c-.55,1.03-1.08,2.07-2.67,2.05.03-4.68,4.21-9.65,2.67-2.05Zm-1.92,30.26c-1.95-1.79-.16-6.45,2.45-5.92,1.64,1.99-.16,5.18-2.45,5.92Zm-1.61-12.12c-1.3-1.93-.13-3.52.72-5.14,3.23-.02-.2,3.67-.72,5.14Zm-1.21-5.65c-1.07-1.47,1.35-5.55,3.29-5.69-.8,1.81-.1,6.63-3.29,5.69Zm1.8-23.74c-.75,1.12-.67,3.7-2.08,2.78.03-1.34-.43-3.05,2.08-2.78Zm.07-7.26c.07.73.14,1.45.21,2.18-2.92,2.11-2.92-3.13-.21-2.18Zm.88-2.93c-.26.76-.83,1.21-1.53,1.53-.95-1.97.18-1.86,1.53-1.53Zm.62-2.66c-.7.63-1.43.66-2.11-.07.7-.49,3.03-1.67,2.11.07Zm-.53,10.12c-.78-.9.42-1.85,1.29-1.86,2.41.35.06,3.4-1.29,1.86Zm5.17,18.15c-.81,1.99-.58,5.29-3.14,5.95.84-1.58.52-6.61,3.14-5.95Zm2.99-13.61c.38,1.12-1.01,1.93-1.25,2.8-4.49,1-1.55-6.95,1.25-2.8Zm1.08-6.95c-2.75,1.39-2.16-.14-2.8-2.08,2.59-.47,2.65-.26,2.8,2.08Zm-.77-8.65c.55-.56,1.2-1.19,1.97-.88,1.27,1.31-1.08,2.25-1.97.88Zm2.86,5.03c-1.52.04-1.41-1.02-1.36-2.03,1.9-.29,1.22,1.14,1.36,2.03Zm1.37,10.33c1,1.03.49,1.81-.41,2.53-2.43,2.53-2.64-4.17.41-2.53Zm.11-9.38c0-1.1,0-2.07,0-3.04.94.63,1.11,2.27,0,3.04Zm5.01,30.72c-.04-1.46.73-2.08,2.11-2.08,1.32,1.28-.43,3.62-2.11,2.08Zm3.09,13.07c3.71-5.26,1.72,8.33-1.79,6.43-.48-2.07,1.39-4.32,1.79-6.43Zm-.82-23.07c-.92.12-1.63.1-2.18.08-2.49-3.47,7.88-4.25,2.18-.08Zm-3.04,5.07c-.04-1.64.69-2.14,2.2-1.51.09,1.7-1.09,1.56-2.2,1.51Zm-.54,15.99c-.22-.86-.02-1.89-.95-2.48.51-5.3,2.87.13.95,2.48Zm-2.44-15.62c.77-.13.66-1.31,1.25-2.01,3.84.58-2.21,7.94-1.25,2.01Zm1.61-3.28c-2.33-.9-1.64-2.19-.05-3.22,1.52.91.74,1.78.05,3.22Zm-2.2-8.7c.85-.66,1.86-.76,2.88-.83,1.58,1.4-2.17,2.29-2.88.83Zm.76-21.6c.29-.98,1.32-.85,1.97-1.31.38,2.13-.14,2.12-1.97,1.31Zm2.12,5.04c-.02.89-.43,1.4-1.37,1.38-.26-1.45-.16-2.39,1.37-1.38Zm-.81,13.63c-.56-1.45-.53-3.42,1.46-2.78.3,1.12-.39,4.54-1.46,2.78Zm1.63-7.92c-.16-1.65.84-1.6,1.98-1.36.39,1.39-.77,2.44-1.98,1.36Zm4.11,8.09c-.61.54-.48,1.84-1.67,1.71-1.19-1.44.14-2.06,1.67-1.71Zm2.42-1.91c.11.84-.67,1.28-1.13,1.28-3.39-.77-3.15-6.81,1.13-1.28Zm.57-6.86c-.29,1.05-.97,1.53-2.06,1.39-.34-1.98.35-2.66,2.06-1.39Zm.77,14.58c2-.65,3.3,1.7.76,2.11-1.16-.02-.62-1.28-.76-2.11Zm46.87-5.22c.41-.96,1.18-.9,2.09-.8.49,1.8-1.59,2.88-2.09.8Zm.64,5.84c.8-.07,1.64-.24,2.16.64-.51,2.09-2.65,1.34-2.16-.64Zm.85-12.23c-.74.45-.99-.19-1.07-.84.8-1.34,2.46-.08,1.07.84Zm-1.04,10.07c.03,1.01-1.27,1.5-2.15,1.39.09-1.44.1-3,2.15-1.39Zm-.6,5.9c-.93.17-1.69,1.36-2.79.49-2.32-2.69,3.59-2.88,2.79-.49Zm-3.62,11.39c-1.6-1.21.1-2.6,1.44-1.48.11,1.07-.5,1.44-1.44,1.48Zm-2.15-7.26c1.21-1.13,2.01-.93,2.36.73-.95,1.33-1.51.06-2.36-.73Zm.07-14.43c-.73.27-1.46.54-2.19.8-.74-2.07,1.72-3.17,2.19-.8Zm-1.47-7.22c-.46.44-.95.45-1.46.08-1.87-2.06,2.1-2.91,1.46-.08Zm3.06,15.95c1.9,3.46-4.95,1.57-2.34-.81,1.03.03,2.44-.71,2.34.81Zm.46-4.98c.31,1.52-.34,3.38-2.07,2.02-1.68-1.75.25-2.83,2.07-2.02Zm-2.91,15.78c-1.36-.14-1.24-1.19-1.18-2.17,1.88-.04,4.21,1.77,1.18,2.17Zm-2.74-5.86c-.71-.48-.78-1.15-.69-1.95,3.35-1.39,2.83,3.85.69,1.95Zm1.34-8.53c.23.78-1.2,2.78-2.06,2.07-.33-1.7.27-2.47,2.06-2.07Zm-3.54-1.79c-1.49-.44-.58-2.2-.57-3.3,2.29-.18,3.19,3.54.57,3.3Zm.79,6.05c-.74.79-1.07,2.36-2.71,1.38-2.17-1.34,2.86-3.32,2.71-1.38Zm-5.86-3.62c-.92-4.04,6.1-3.2,5.13.05-.43,1.89-1.65.53-1.73-.46-.94,1.68-2.09,1.83-3.4.41Zm-7.14,6.34c-.94-.14-1.72-1.61-.48-2.01,2.53-4.23,4.95,2.95.48,2.01Zm2.01,4.77c.74,2.38-1.73,3.82-3.65,1.94-1.59-2.37,2.28-4.37,3.65-1.94Zm1.74-9.22c-.58.21-1.16.22-1.75.03-3.91-3.34,5.31-2.85,1.75-.03Zm-3-4.72c-1.53-.08-1.58-3.1.59-3.05,1.96-.33,2.23,3.82-.59,3.05Zm-5.4,1.38c.93-1.85,3.94-1.17,4.45.61-.76,2.57-5.2,2.61-4.45-.61Zm-1.35-3.71c1.07-2.95,3.71-.86,3.16,1.73-2.19,1.5-2.84.18-3.16-1.73Zm3.76-8.45c.35.89.91,2.12-.66,2.08-2.52.48-1.59-2.86.66-2.08Zm5.07,3.11c-.63.97-1.16,4.85-2.05,1.74-5.46.6-1.34-1.98,2.05-1.74Zm-2.1-3.9c1.17-.4,4.33.23,3.45,1.81-1.66,1.75-5,.85-3.45-1.81Zm2.68,6.26c-.67-.37-.48-1.51.04-1.84,2.95-1.32,2.69,4.92-.04,1.84Zm1.52,6.65c-.79-.99-2.16-3.06-.1-3.42,2.83.48.6,2.32.1,3.42Zm2.23-12.06c2.06-.02,1.09,2.43-.64,2.01.05-.73-.53-1.76.64-2.01Zm.02,15.7c1.66,1.63.84,4.26-1.58,3-.97-1.39.02-3.08,1.58-3Zm-1.43-18.76c.34-1.04,1-1.58,2.13-1.37,1.77,1.68-1.07,3.82-2.13,1.37Zm4.12,10.74c-.87.93-2.56.95-2.57-.66-.02-2.33,3.29-1.4,2.57.66Zm-2.61,15.84c-1.31-1.59,1.03-1.57,2.07-1.4.18,1.87-.41,2.91-2.07,1.4Zm.78,7.31c2.07,5.38-5.48,1.77-.88-.76.56-.51,1.27.14.88.76Zm-3.02-2.65c-1.32-.27-1.57-1.18-1.4-2.34,2.31-2.04,4.26,2.09,1.4,2.34Zm-2.7-5.56c-1.01-1.12.23-3.27,1.86-3.09,2.03,1.09.54,5.4-1.86,3.09Zm-1.6,8.89c-1.33-1.23.19-3.12,1.75-2.66,2.34,1.32.3,3.08-1.75,2.66Zm.68,3.68c-.09.67.04,1.71-.74,2.29-2.53-.23-1.18-4.11.74-2.29Zm-5.13-2.92c-.91-2.56,2.93-5.78,3.04-1.47-.82,1.15-1.56,1.94-3.04,1.47Zm-.61-12.26c-4.97-1.91,2.62-7,.04-1.33,5.89.76,3.96,7.49-.04,1.33Zm-4.45,3.6c.09-1.21.41-2.31,1.52-3,3.77.07,1.18,5.85-1.52,3Zm-10.1-17.21c-.74-.85-1.5-1.7-.48-2.85,3.35-3.31,4.66,4.73.48,2.85Zm-.58-5.1c-1.73.11-1.52-1.07-1.45-2.17,1.25-.09,1.85,1.12,1.45,2.17Zm-2,17.76c.32-1.07,1.17-.91,1.96-.41-.07,1.23-2.12,2.25-1.96.41Zm2.56,10.21c-1.24.33-2.39.09-3.46-.58-1.57-2.18,4.82-2.56,3.46.58Zm1.4-7.21c.47.23.98.35,1.49.47-3.95,7.47-8.31-2.61-1.49-.47Zm.91-8.39c2.5,1.04.51,3.38-1.47,3.49-1.66-1.61-1.2-4.16,1.47-3.49Zm.84-2.56c-1.57.34-2.6-2.21-.76-2.49,2.55-1.04,4,2.96.76,2.49Zm3.44,1.06c1.52,1.39.31,2.04-.75,2.73-2.67,0-.51-2.03.75-2.73Zm-2.08-7.98c.5.06,1.35-.16,1.98.02,3.14,3.28-5.51,2.52-1.98-.02Zm.71-10.84c.47-1.13-.19-2.51.78-3.47,2.52-2.22,1.61,3.59-.78,3.47Zm3.52,2.89c.59.48.1.69-.42.89-4.01,2.12-2.08-7.23.42-.89Zm.18,6.91c-1.77-1.21-4.27-5.44-.3-5.3,2.24-1.19,2.12,5.36.3,5.3Zm-.76,7.07c-.86-1.09,1.05-3.76,2.1-3.87,2.14,1.71,1.04,5.47-2.1,3.87Zm4.37,2.69c.15.78-.2,1.15-.96,1.2-4.47,1.26-.42-5.65.96-1.2Zm-5.79,5.65c.47-2.85,3.82-1.95,3.47.67-1.26.51-3.2,1.34-3.47-.67Zm2.1,10.95c-2.67-.05-1.48-2.95.69-2.28.59.81.42,2.14-.69,2.28Zm-3.35-5.28c-.69-1.98,1.35-3.59,2.9-1.96,1.32,1.85-1.52,3.75-2.9,1.96Zm-2.19-2.41c-.6-.15-1.22-.26-1.76-.57.29-6.98,7.83.68,1.76.57Zm-.98,6.13c-1.1-1.34-.49-3.39,1.4-2.79,1.03,1.68,1.24,2.96-1.4,2.79Zm0,9.24c-3.07-.84.23-1.3.12-1.96,1.78.57.99,1.03-.12,1.96Zm-4.89-2.75c.41-2.45.46-2.87,2.68-3.46,5.91.11,1,5.23-2.68,3.46Zm.57,10.05c-2.86.31-1.65-2.02-1.2-2.57,2.83-6.98,3.68-1.43,1.2,2.57Zm1.71-33.13c-1.52,1.25-2.56-.62-3.13-1.2-1.22-2.85,6.65-2.88,3.13,1.2Zm-4.62-4.99c-.33-1.63.8-2.81,2.06-1.42-.18,1.2-.05,2.85-2.06,1.42Zm-.6-17.47c-.94-1.17-.86-3.2,1.21-2.66.7,1.39,1.05,2.62-1.21,2.66Zm1.3,3.1c-.51-.31-.37-.61.02-.9,2.83-1.38,2.8,1.4-.02.9Zm1.51,4.91c-2.73.01-1.93-2.84-.02-3.6.39,1.21,2.48,3.64.02,3.6Zm4.35-9.25c-.81.32-1.88,1.46-2.55.4-.82-2.27,2.5-3.28,2.55-.4Zm1.4,4.29c-.73.72-1.44.53-2.15-.03-1.27-1.85,2.75-2.02,2.15.03Zm.07,4.3c-.95,1.12-1.96,2.47-3.17.9-1.11-2.42,2.54-3.36,3.17-.9Zm2.04,2.9c-.1,1.24-.13,4.38-2.06,2.83-2.26-2.19-.55-3.08,2.06-2.83Zm3.04-12.26c-1.23.07-2.83,1.27-3.57-.11,1.28-2.77,2.43-1.42,3.57.11Zm.91-2.53c.89-.39,1.65-.48,2.35.08.33,1.42-1.69,1.44-2.35-.08Zm2.6,4.7c-1.23.8-2.3.88-2.99-.68.71-1.07,3.17-1.35,2.99.68Zm0,5.76c-1.46.14-2.85-2.45-.89-3,2.45-.2,1.09,1.93.89,3Zm-.01,7.84c-2.54-.05.15-2.62-1.01-3.38-1.08-5.56,5.14,1.15,1.01,3.38Zm2.34,2.26c-1,2.09-1.97,1.44-2.92-.03-.54-2.14,2.92-1.36,2.92.03Zm-.09-16.59c-.04-.78.26-1.54,1.05-1.45,2.25.97.88,2.82-1.05,1.45Zm4.96,4.07c-.1.68-2.62.61-2.61-.37.01-2.38,4.53-.92,2.61.37Zm.24-3.65c-.52-.67.07-1.29.48-1.85,2.04-.35,1.33,3.44-.48,1.85Zm2.68,5.96c-.28.79.42,3.27-.71,3.04-2.33-.67-2.08-4.43.71-3.04Zm1.91-2.07c-.12.26-.28.3-.51.14-3.81-.71,1.06-3.82.51-.14Zm-.5-3.64c-.58-1.29,1.03-3.25,1.87-1.64.54,1.46-.68,1.71-1.87,1.64Zm2.2,3.65c-.82-1.08.32-1.45.75-2.07,2.86-.17,1.37,4.02-.75,2.07Zm4.21,9.42c.66,2.34,3.25-.51,4.21,1.53-.54,4.93-2.43-.75-3.44.44-1.59,2.23-4.15-2.12-.77-1.97Zm1.54-2.12c-1.19.86-3.15-.55-1.93-1.99,1.57-.74,2.97.29,1.93,1.99Zm-2.17-5.16c-1.57-1.69.69-2.3,2.13-2.07.25,1.47-.46,3.71-2.13,2.07Zm.67-4.98c-.07-.8-1.88-.82-1.06-1.86,1.59-1.31,3.59,1.26,1.06,1.86Zm1.54,2.02c-1.17-1.14.17-2.48,1.34-1.86.15,1.05.43,2.2-1.34,1.86Zm4.94,4.44c-1.08,1.84-2.32.72-2.89-.71,1.03-1.85,2.93-1.63,2.89.71Zm.67-5.05c-.49.15-.92,1.14-1.35.73-1.27-1.76.56-2.81,1.35-.73Zm1.43,12.23c-.52,2.14-1.97.37-2.68-.31.57-.35,2.51-.95,2.68.31Zm-.59-8.73c-.18-.87-.27-1.57.63-2.01.48.88,1.61,1.97-.63,2.01Zm1.34,3.64c-.32.45-.47,1.24-1.31.68-.6-1.73,1.35-2.78,1.31-.68Zm.02,8.21c1.24.07,2.32.31,2.2,1.93-1.63,1.29-2.47-.28-2.2-1.93Zm.85-4.63c0-.66.01-1.31.02-1.97,1.57.32,1.86,2.25-.02,1.97Zm1.34,2.96c.22-.72,1.25-1.95,1.79-.8.37.9-1.92,2.11-1.79.8Zm2.06-12.24c-.81.64-1.63,1.36-1.93-.41.73-.27,1.48-.66,1.93.41Zm.78,3.71c-1.13.55-1.06-1.58-.4-2.1,1.85-.98,2.32,2.22.4,2.1Zm1.52,3.3c-1.57-.05-.42-1.73.59-1.8.04.69.34,1.61-.59,1.8Zm.64,6.67c-1.04-.34-1.7-.94-1.39-2.16,2.38-.52,1.24,1.23,1.39,2.16Zm2.24,28.8s-.05.05-.05.05c.03,0,.05-.01.05-.05Zm0,.04c2.34-.64,1.73.91,1.56,2.15-2.09,1.29-1.81-.48-1.56-2.15Zm3.11-12.76c0,.36-.16.57-.51.65-4.92,2.62-1.39-6.04.51-.65Zm1.28,4.08c-.07,1.18,0,2.18-1.45,2.07-.25-1.16.25-2.05,1.45-2.07Zm1.37,19.52c-1.74.34-2.15-2.3-.72-2.31,1.05.37,1.67,1.54.72,2.31Zm2.16-34.62c-1.16.6-1.32-1.54-.66-2.14,1.68-.42,1.12,1.38.66,2.14Zm-.58,5.06c.19-.6.45-1.08,1.2-.64,1.44,2.5-2.47,4.01-1.2.64Zm-.16,14.38c.38-1.65,2.97.75,2.26,2.07-1.97,1.69-1.74-.46-2.26-2.07Zm2.27,6.51c.75.74,2.71,1.17,1.35,2.19-1.51-.5-2.73-.6-1.35-2.19Zm1.78-7.38c-.77.91-1.25.28-1.73-.33.99-.86,1.44-1.18,1.73.33Zm-.61,6.56c-.18-.66-.36-1.32-.54-1.98,1.96-.79,1.38,1.35.54,1.98Zm2.3,3.62c.27-.22.49-.17.68.11.81,3.42-3.11,1.99-.68-.11Zm2.9-8.55c.73,1.1-.16,1.54-.85,2.05-3.5-.45-1.53-1.56.85-2.05Zm.06-15.15c-.85,1.9-1.67.74-2.88-.22-.6-3.1,1.9-.98,2.88.22Zm.46,3.5c-.95.67-1.72.79-2-.64,1.1-.6,1.69-.74,2,.64Zm.27,6.6c-.53.91-1.19.85-2.09.5.18-1.26,1.44-1.93,2.09-.5Zm-.02,2.76c-.05-.68.82-.89.75-.08-.2.36-.48.22-.75.08Zm-1.8,8.71c.77-1.81,3.54.41,1.87,1.62-1.16.51-2.51-.16-1.87-1.62Zm-1.16,6.78c.1-.5-.04-1.26.83-1.17,2.51.37-.44,4.03-.83,1.17Zm-.36,2.05c1.63-.4,1.41,2.53-.16,2.33-1.16-.05-.94-1.92.16-2.33Zm-2.45-1.02c-.41-1.29-.34-3.08,1.38-2.73.82,1.56-.08,2.25-1.38,2.73Zm.24,4.47c1.67.05,1.4,2.33-.01,2.51-1.5.29-1.38-2.43.01-2.51Zm-2.25-.94c-2.33-.73.63-4.15,1.92-1.88-.27,1.01-.6,2.14-1.92,1.88Zm-.19,4.72c1.23-.29,1.06,1.86,0,2.02-1.24.19-1-1.84,0-2.02Zm-2.53-2.5c-.09-.73.34-1.05.98-1.19,2.39.19-.4,3.67-.98,1.19Zm.29,5.32c1.73.08,1.18,2.55-.21,2.62-1.54.01-1.16-2.57.21-2.62Zm-1.35-3.46c1.24.03,1.06,1.88.2,2.25-1.19.44-1.4-2.28-.2-2.25Zm.1-3.29c.04.99-.53,1.49-1.5,1.54-1.72-1.56.86-4.25,1.5-1.54Zm-4.33-17.17c-.3-1.22.09-1.7,1.28-1.98,2.29.97.07,2.21-1.28,1.98Zm1.93,19.6c-.19.83-.44,1.63-1.28,2.06-1.67-.55-.43-4.17,1.28-2.06Zm-3.54-12.35c.03-.68-.02-1.4.84-1.65,1.36.52.34,2.86-.84,1.65Zm-.66,15.06c.79-.03,1.14.47,1.34,1.14-1.04,1.33-2.43.02-1.34-1.14Zm-2.1-31.64c1.12-.34,2.62.09,2.12,1.56-1.38.39-2.28.14-2.12-1.56Zm-2.27,4.28c.21-1.59,1.24-1.15,2.2-.89,3.61.62-2.19,2.37-2.2.89Zm-.33-7.7c.52-.89,2.02-1.08,2.52-.02.08,2.73-3.44,2.94-2.52.02Zm-1.66,5.51c-.18-1.28-.02-2.48,1.52-2.16.4,1.32.18,2.59-1.52,2.16Zm1.01,13.87c-.91-.73-1.44-2.17.13-2.32.99.64.05,1.49-.13,2.32Zm-.99,8.19c.17-.39.37-.85.7-1.06,1.93-.56.21,2.66-.7,1.06Zm-.7-2.81c.3-.91,1.24-1.44,1.41-.21.09,1.03-1.25,1.14-1.41.21Zm1.32-13.44c1.24,1.99.4,2.21-1.47,1.35-.17-1.03.32-2.22,1.47-1.35Zm-2.2-.93c.43.96-.59,2.06-.73,3.07-1.91-1.7-2.85-4.68.73-3.07Zm-4.18,23.46c1.15.29.8,1.45.12,1.79-1.29.15-.66-1.32-.12-1.79Zm.09-3.42c.95.29.42,1.09.3,1.7-1.59.56-1.78-1.81-.3-1.7Zm-.5-17.56c.76.03,2.93,1.91,1.72,2.18-1.43.25-3.48-.91-1.72-2.18Zm2-3.3c.13.75-.23,1.16-.94.98-4.47,2.35-1.63-5.44.94-.98Zm-3.93,21.85c-.5.46-1.11,1.24-1.72.76-1.16-1.4,1.43-2.94,1.72-.76Zm-1.87-14.96c-.16-1.16.71-1.64,1.87-1.42.41,1.4-1,3.02-1.87,1.42Zm-1.14-11.56c-.34-1.61,1.55-3.1,3.07-2.51,2.9,2.34-.86,6-3.07,2.51Zm-1.98,4.2c-.62-1.33.94-2.25.67-3.52,1.15-3.09,3.32,6.61-.67,3.52Zm.04,7.21c-.02-.99-.6-2.37,1.37-1.98,1.41.94-.25,2.07-1.37,1.98Zm-.43.73c2.09.94,1.14,3.24-1.03,2.76-.7-1.53-1.21-3.68,1.03-2.76Zm-4.67-2.11c1.54-1.45,3.54.76,2.17,2.2-2.03,1.78-1.68-.59-2.17-2.2Zm-1.55,5.77c-.96-2.49.89-2.21,2.31-2.35,0,1.25-.91,2.89-2.31,2.35Zm.19,8.18c-.04.84-.6,1.21-1.39,1.16-1.81-.12,1.1-3.19,1.39-1.16Zm-2.01,7.53c-.11-.96.35-1.5,1.29-1.61,1.75.37-.15,2.41-1.29,1.61Zm-.12.16s.1-.19.12-.16c.02,0-.12.15-.12.16Zm-3.1-3.65c.42-.36.8-.91,1.45-.55,1.14.98-1.56,2.57-1.45.55Zm.36-15.22c1.08-.66,1.92.09,2.61.93-.06,3.21-5.07,1.24-2.61-.93Zm-1.79-1.47c.51-.33.97-.27,1.39.18-.15,2.58-4.06.74-1.39-.18Zm-2.21-8.43c-1.02-1.62,1.34-3.8,2.52-1.99,1.29,1.72-1.02,3.44-2.52,1.99Zm-.58,20.85c-.2-.89.34-1.51.79-2.16,1.21.8.66,2.24-.79,2.16Zm-.1,5.3c1.53.02.77,2.41-.54,1.98-1.33-.24-.54-2.11.54-1.98Zm-2.14-21.88c-.89-.11-3.23-.32-2.85-1.58,6.84-4.41,9.31,5.67,2.85,1.58Zm-1.98,6.56c1.61-.55,1.41,1.37.59,2.03-2.27-.08-.29-1.38-.59-2.03Zm-3.31-5.89c1.04-2.13,4.56-.78,3.34,1.5-1.43,1.36-4.39.76-3.34-1.5Zm-3.69,19.19c.98-2.58.58-3.83,1.32-6.05,4.92-9.65,5.14,3.33-1.32,6.05Zm-2.44-6.9c4.7-5.19,2.23,3.89-.02,5.74-4.65,6.11-1.36-3.26.02-5.74Zm-4.5-34.89c.74-.13,1.61-.33,2.25.02,2.19,3.15-2.89,3.88-2.25-.02Zm-.53,11.05c-1.82-.92-1.59-5.12.95-4.39,1.84,1.16,1.3,4.38-.95,4.39Zm-1.42,8.64c-.22-.64.15-1.02.6-1.37,4.76-2.36,1.93,5.84-.6,1.37Zm-1.27,18.67c4.5-6.19,3.94-.03,2,3.72-4.09,5.37-4.37-.44-2-3.72Zm-5.78,0c-2.58-1.31,4.44-11.6,3.43-5.65-.28,3.09-2.01,3.92.8,5.22-2.48,8.9-12.16,9.71-4.23.43Zm-7.55.06c.96-1.95.91-4.63,3.76-5.21,1.35,1.95-1.49,8.21-3.76,5.21Zm.16,2.19c5.23-4.23,3.01,5.18-.91,5.64-4.27.89.27-3.89.91-5.64Zm-5.75,0c.86-1.48.84-4.52,2.85-4.7.46,1.06-.63,5.04-2.85,4.7Zm1.39.79c.9,1.2.24,2.01-.68,2.76-5.5,6.91-3.64-2.44.68-2.76Zm-8.02,64.56l.56,2.16c-.37-.02-.75.05-1.12.26,0,.38,0,.77.01,1.15-.72-.09-1.16.59-1.11,1.25-.64.65-1.78,1.67-.79,2.46-.37.03-.73.16-1.07.34-.14-.87-.98-1.44-1.78-.99.34-.29.56-.74.48-1.27,2.29-.35,3.54-1.7,3.77-4.02-.11-.12-.21-.24-.32-.36.58-.24,1.01-.57,1.35-.97Zm4.16-9.98c.26.59.7,1.01,1.48,1.15-.32.51-.27,1.05.14,1.6,0,.04,0,.08,0,.12-.88-.82-1.81-.63-2.04.72-.33,1.89-1.58,3.13-2.35,4.69.16.23.23.4.25.52-.05,0-.1-.02-.14-.03-.11.12-.22.24-.32.36-.4-.01-.66.15-.87.43.61-.96.83-2.16,1.22-3.24.78-2.14,1.9-4.15,2.62-6.31Zm-1.05-65.37c-3.35,1.28-.08-8.84,1.54-4.37.19,1.38.32,4.12-1.54,4.37Zm-3.73,16.68c.52-2.17,1.35-3.39,4.02-3.99-1.52,1.62-1.92,3.21-4.02,3.99Zm2.27,7.91c-1.22.53-.76-1.62.2-1.5,1.25-.09.4,1.22-.2,1.5Zm.64,3.49s-.04,0-.03-.03c0,0,.03.03.03.03Zm-.03,0c.04,1.28-.16,2.41-1.79,2.42-1.73-1.08.28-2.98,1.79-2.42Zm-4.03-4.95c.72.11,1.9-.29,1.78.95-.29,2.11-4,.53-1.78-.95Zm-2.99-7.19c.28-.85.25-1.87,1.23-2.36,4.12-3.44.4,6.64-1.23,2.36Zm1.51-6.88c1.2.88-.63,2.18-.91,3.18-2.73.9-.64-3.5.91-3.18Zm-2.53-4.99c-.59,1.51.14,4.5-1.81,4.55-1.15-.91-.54-4.19,1.81-4.55Zm-1.28,9.57c2.93-1.24-.18,5.12-1.09,2.1-.27-1.03.1-1.72,1.09-2.1Zm-.09-3.56c-.16,1.23-.41,2.41-1.87,2.77-.08-1.4.35-2.45,1.87-2.77Zm-2.13,17.3c.05.89.31,1.93-1.05,2.03-1.82-.63-.43-2.56,1.05-2.03Zm-3.86-17.6c1.33-1.35.28-3.51,2.52-4.04q.07,3.19-2.52,4.04Zm-1.22,19.51c.47.51.81,1.13.13,1.78-2.09.54-1.92-3.11-.13-1.78Zm-2.06-6.43c.08-.77,1.35-.84,1.45-1.86,4.09-.22,1.05,2.85-1.45,1.86Zm-.89,4.82c1.66-.09.52,1.63-.5,1.78-.07-.67-.3-1.51.5-1.78Zm-2.06,2.28c1.46-.09,2.11,1.77.51,2.29-1.65.41-2.07-1.86-.51-2.29Zm-.96-7.09c.43-.27.88-.34,1.37-.18,3.3,2.82-4.08,3.31-1.37.18Zm-.47-17.66c.07,1.49-.02,2.66-1.9,3.81-.31-1.92-.04-3.11,1.9-3.81Zm-2.01-3.84c1.96-2.62,2.79,2.56.26,2.39-1.15-.1.07-1.58-.26-2.39Zm-2.42-9.37c-.1-1.54.7-3.45,2.32-3.46.71,1.04-.54,5.03-2.32,3.46Zm.1,32.34c1.31-.1,1.71.2,1.49,1.54-1.3.16-3.06-.12-1.49-1.54Zm-.81,8.95c1.33-.48,2.14,1.75.66,2.02-1.3.65-2.01-1.5-.66-2.02Zm-1.54-22.76c1.45-.22.5,2.26-.53,2.22-1.57-.23-.41-2.31.53-2.22Zm-3.2-.18c-.53-1.3.09-1.92,1.59-2.46.05,1.44-.24,2.29-1.59,2.46Zm-2.22,7.74c2.34-.66,2.91,1.43,1.3,2.74-1.55.49-2.59-1.8-1.3-2.74Zm-.72-27.47c2.49.86,1.1,2.37.62,3.72-1.63-1.01-.55-2.46-.62-3.72Zm-1.51,12.24c.03-.97,1.4-1.47,1.31-.6.12.89-1.29,2.02-1.31.6Zm-1.34,24.1c.51-.94,2.25-1.63,2.07.1-.04,1.2-2.21,1.46-2.07-.1Zm.45,4.23c.94.76.57,1.86-.66,1.94-1.45-.07-.6-1.97.66-1.94Zm-2.04-5.16c.84.75,1.03,1.74.51,3-1.99-.22-2.46-3.49-.51-3Zm-3.07,7.99c1.74.16,1.54,1.91.27,1.75-1.23.15-.6-1.43-.27-1.75Zm-.73-4.4c1.42.32,1.15,2.23-.22,2.3-1.22.33-1.65-2.6.22-2.3Zm-3.87,9.15c.42-.93.86-2.26,2.09-1.13,1.27,1.46-1.24,2.53-2.09,1.13Zm1.08,6s-.03-.02-.03-.04c0,0,.03.04.03.04Zm-1.73,1.1c.02-1.02.83-1.21,1.71-1.11,1.12,1.45-1.28,2.98-1.71,1.11Zm.36-14.09c1.49-.04,1.71,2.04.2,2.08-1.16.2-1.27-1.88-.2-2.08Zm-2.1,15.1c.82.46.85,1.63-.25,1.39-1.17-.16-.86-1.32.25-1.39Zm-1.4-5.78c1.22-.1,3.12-1.69,2.9,1.34-1.86,1.49-2.68.73-2.9-1.34Zm-1.18-4.58c-.41-1.48.94-1.51,1.77-1.95,1.53,1.32-.93,3.95-1.77,1.95Zm-1.72,8.75c.02-.7.44-1.18,1.05-1.3,2.81.03-.48,3.87-1.05,1.3Zm-1.86-5.86c-.04-1.39,1.9-1.77,2.12-.27.07,1.33-2.16,1.77-2.12.27Zm.64,8.54c1.41-.25,1.51,2.04.21,2.23-1.46.43-1.38-2.05-.21-2.23Zm-3.07-11.54c0-1.23,2.03-2.11,1.99-.7-.38.94-1.03,1.73-1.99.7Zm-.82,6.63c-.19-1.48,2.12-1.81,1.94-.23.05,1.11-1.98,1.62-1.94.23Zm-1.33,8.14c.3-.62.58-1.35,1.42-1.4,2.67.38-1.14,3.84-1.42,1.4Zm-2.81-4.99c.96.41,2.1-2.05,2.88.04.35,2.55-3.12,2.33-2.88-.04Zm-.2-.13s.04-.05.04-.05c.19.16.16.24-.04.05Z"/>
      <path class="cls-1" d="m93.64,177.18c-.98-1.05-1.02-2.45-1.37-3.73-1.14-.85-1.03-2.17-1.28-3.36,1.83.46,2.01,1.85,1.89,3.4.61,1.16,1.4,2.28.75,3.69Z"/>
      <path class="cls-1" d="m100.15,76.23l-.02.02s.01-.01.02-.02c0,0,0,0,0,0Z"/>
      <path class="cls-1" d="m90.75,60.42s.02,0,.03.02c0,0,0,0-.01.01,0,0-.02-.03-.02-.03Z"/>
      <polygon class="cls-1" points="31.75 93.48 31.75 93.48 31.75 93.48 31.75 93.48"/>
      <path class="cls-1" d="m156.35.42c-.21-.08-.42-.14-.61-.19.24.05.45.12.61.19Z"/>
      <polygon class="cls-1" points="42.05 76.94 42.05 76.94 42.05 76.94 42.05 76.94"/>
    </g>
  </g>
</svg>