<?xml version="1.0" encoding="UTF-8"?><svg id="Camada_2" xmlns="http://www.w3.org/2000/svg" xmlns:xlink="http://www.w3.org/1999/xlink" viewBox="0 0 160 160"><defs><style>.cls-2{fill:#3a8342;}.cls-3{clip-path:url(#clippath);}.cls-4{fill:none;}</style><clipPath id="clippath"><rect class="cls-4" width="160" height="160"/></clipPath></defs><g id="Camada_1-2"><g class="cls-3"><path class="cls-2" d="m107.68,40.53s-.18-2.38,1.73-2.45l.03.08c.04.12.2.16.31.08l.52-.42s-.11,1.15.19,1.8c.07.14.28.14.36,0,.23-.41.62-1.19.47-1.64,0,0,.6.98.43,2.03-.02.1.12.15.18.07.19-.23.41-.62.32-1.16,0,0,.83.45.54,1.75-.03.14.15.25.28.16.23-.15.5-.44.64-1,0,0,.77.18.22,1.82-.04.11.09.21.21.16.27-.11.64-.29.83-.52,0,0,.05.42-.03.79-.02.1.11.18.2.12l.38-.24-.2,1.33c-.02.1.07.2.19.2h.56v1.25s1.36.5,1.77,1.63l.16.76s2.08.87,1.78,2.66c0,0-.96.33-3.71-.41,0,0-1.12-.14-1.95.13,0,0-.37,2.22-2.14,3.09,0,0-.91.58-1.86-.16,0,0,.43,7.4,2.53,11.18.09.15.15.32.18.49.47,2.15,3.37,16.37-.99,24.95,0,0-2.84,7.46-8.01,10.68l-7.92,8.63s-3.84,8.22-13.14,9.83c0,0-.08,2.69,1.32,4.97,0,0,.93.91.89,1.47h2.27s2.38-.42,3.53-1.36c0,0,1.42-.63,2.11-.58,0,0,1.96-.49,2.79-.09,0,0-1.76.49-2.05.94,0,0-.87,1-2.31,1.33,0,0-1.36,1.26-4.05,1.8,0,0,.76.98,3.7.98s3.45,1.05,3.45,1.05c0,0,1.05.49.97,1.1,0,0-1.38-1.05-2.62-.68,0,0-1.36.1-2.21-.09,0,0-3.31-.23-3.88-.65l-.76-.41s-2.34-2.86-6.35-1.21c0,0-3.86.45-5.49,0,0,0-.49-.23-1.03.28s.21-1.42,2.33-1.47c0,0,2.53-.84,3.49-1.45,0,0,.83-.21.83-.7s.05-3.15-.36-3.38l-.44-1.12s-24.35-6.23-26.98-17.36c0,0-2.09-6.16-.7-7.42,0,0-3.64-5.39-1.78-7.56,0,0-7.6-5.11-4.5-7.98,0,0-7.44-7.28-3.57-9.8,0,0,.93-5.53,4.65-6.09,3.72-.56,7.83.7,8.06,1.68s6.05,5.95,8.99,4.55c2.95-1.4,10.62-1.26,10.62-1.26,0,0,8.37-4.34,13.18-4.97l3.72-3.29s5.51-13.44,7.83-15.12c2.33-1.68,2.71-2.45,5.84-2.94,0,0,2.71-.16,3-.63s.44-.26.44-.26Z"/></g></g></svg>