<?xml version="1.0" encoding="UTF-8"?>
<svg id="Camada_1" data-name="Camada 1" xmlns="http://www.w3.org/2000/svg" viewBox="0 0 903.11 843.06">
  <defs>
    <style>
      .cls-1 {
        fill: #3a8342;
      }
    </style>
  </defs>
  <path class="cls-1" d="m662.26,537.59c7.51,92.22,20.91,114.83,32.55,116.57,5.37.8,15.19-2.12,20.91,3.94,4.15,4.39,5.05,12.35,1.98,17.43-5.8,9.62-24.4,6.65-30.69,5.64-6.69-1.07-11.92-3.12-15.18-4.62l-67.52-120.49c-11.08-15.93-19.39-7.39-19.39-7.39-10.39,10.62-10.62,108.95-10.62,108.95,15.53-3.3,18.53,7.46,18.97,13.85.23,3.25-1.13,6.45-3.74,8.38-7.99,5.92-19.62,1.54-19.62,1.54-20.08,8.77-27.24-16.16-27.24-16.16-7.62-18.24-16.85-117.26-16.85-117.26-12.37,6.23-32.24,14.12-56.78,13.85-31.71-.35-42.82-14-64.4-6.23-12.33,4.44-21.84,16.19-40.86,39.7-16.43,20.31-16.79,26.72-15.7,30.93,1.95,7.53,9.75,12.85,23.77,22.39,5.52,3.76,10.32,6.52,13.62,8.31,2.68-.39,6.58-.84,11.31-.92,7.27-.13,10.9-.19,13.85,1.38,6.87,3.67,12.24,15.63,6.92,22.16-3.31,4.07-10.1,5.22-16.68,3.06-20.95,2.25-32.72-2.98-32.72-2.98-21.12-6.96-75.13-65.05-75.13-65.05-5.19-4.85-.69-10.39-.69-10.39-8.31,1.38-13.16,10.04-13.16,10.04,1.04,16.27,20.08,38.09,20.08,38.09,2.42,4.85,6.92,2.42,6.92,2.42,1.27-.19,3.06-.38,5.19-.35,4.47.07,11.3.18,15.41,4.67,3.63,3.97,5.9,12.18,1.21,17.14-3.42,3.62-9.55,4.44-14.89,1.73-3.16,1.24-9.36,3.13-16.45,1.43-5.7-1.37-9.5-4.47-12.06-6.74-13.27-11.79-22.28-27.42-26.72-35.24-5.19-9.15-10.98-19.68-17.14-31.46-8.31-12.81-9.35-25.62-8.31-28.74,1.04-3.12,9.69-8.66,30.47-23.2,20.77-14.54-2.77-44.32-2.77-44.32-25.62-34.28-12.46-75.48-12.46-75.48-10.02-5.43-24.48-14.6-38.78-29.33-22.29-22.95-31.82-46.62-37.05-60-9.56-24.45-12.24-45.51-13.16-56.78-2.12-26.11,2.25-36.53,5.58-76.63,1.85-22.25,2.42-42.17,2.38-59.12-6.92-33.27,3.46-27.44,3.46-27.44,6.92.23,15,28.39,15,28.39,8.54,9,7.39,47.09,7.39,47.09,0,0-4.62,37.16,0,86.56,1.12,11.95,3.82,24.58,10.36,40.37,2.54,6.14,12.16,28.17,34.07,49.77,13.29,13.1,24.49,24.14,42.65,27.21,10.86,1.83,20.16.13,26.03-1.47,29.08-15.47,70.17-7.62,70.17-7.62,24.01,4.62,95.1,0,95.1,0,0,0,24.24-5.31,44.55-3.92,22.85,6.23,60.94-3,60.94-3,16.16-4.39,28.39-37.16,28.39-37.16-8.08-12.7-6.69-23.37-6.69-23.37-7.1-11.6-2.25-16.27-2.25-16.27-10.56-14.2-4.15-41.2-4.15-41.2,6.58-15.75,17.66-6.58,17.66-6.58l30.47,39.3c12.29-7.27,29.67-2.29,29.67-2.29,0,0,25.21-39.43,28.67-44.28,0,0,16.27-6.75,14.37,13.33,0,0,1.21,63.88-5.54,74.09,0,0-3.81,27.01-10.56,36.87,0,0-21.7,122.28-31.39,137.05l-2.77,19.85Z"/>
</svg>