<?xml version="1.0" encoding="UTF-8"?>
<svg id="Camada_1" data-name="Camada 1" xmlns="http://www.w3.org/2000/svg" viewBox="0 0 903.11 843.06">
  <defs>
    <style>
      .cls-1 {
        fill: #3a8342;
      }
    </style>
  </defs>
  <path class="cls-1" d="m575.43,424.45c-8.56-13.86-21.92-32.81-41.61-52.14-22.58-22.15-52.67-51.68-99.05-60.51-48.73-9.28-89.4,9.23-106.49,18.4,0,0-46.12,37.6-46.62,52.14,0,0-38.1,28.07-42.11,44.62,0,0-23.06,26.07-17.04,45.12,0,0,3.01,17.55,7.52,22.56,0,0,13.54,39.1,35.09,43.11,0,0,7.02,31.58,46.12,51.13,0,0-57.31,1.34-78.36,13.87l-35.44,12.7s56.82,21.46,169.11,21.36c0,0,149.06-.97,208.88-17.68l19.72-6.35s34.09,7.69,57.82-33.76c23.73-41.44,32.42-113.63,33.42-126,1-12.37-6.22-52.47-10.36-73.19-.33-1.67,8.02-37.44,8.02-37.44,0,0,3.34-10.68-4.01-19.37,0,0,16.71-13.14,21.6-13.75,0,0,3.76.39,3.76-3,0,0,1.88-5.01-4.26-5.14,0,0-3.01-1.25-3.01,1.5l-21.31,11.4s-11.28-1-11.53-4.76l17.55-24.69s3.63-1.75,3.01-3.89c0,0-.63-5.14-5.89-2.76,0,0-2.76,1.25-2.13,2.88,0,0-21.18,21.68-21.06,25.44,0,0-6.52-2.26-13.54,1.38,0,0-22.31,14.04-29.45,9.78,0,0-60.74-82.3-64.75-132.76l-2.17-8.98s.25-5.39-2.63-4.14c0,0-4.57.44-6.7,4.76,0,0,1.82,7.87,4.57,10.45,0,0,7.77,45.69,16.92,64.87,9.15,19.18,23.81,56.02,23.81,56.02,0,0-25.57-35.59-30.58-54.64l-1.88-4.39-.63-6.14s-6.64-3.13-9.9,2.38c0,0-1.88,5.64,4.39,8.4,0,0,13.66,47.12,21.43,58.9l16.63,30.23c1.06,5.69,1.88,11.83,2.3,18.39,1.66,25.94-3.57,47.91-9.15,63.67Z"/>
</svg>