<?xml version="1.0" encoding="UTF-8"?><svg id="Camada_2" xmlns="http://www.w3.org/2000/svg" xmlns:xlink="http://www.w3.org/1999/xlink" viewBox="0 0 160 160"><defs><style>.cls-1{fill:#fff;}.cls-2{fill:#3a8342;}.cls-3{clip-path:url(#clippath);}.cls-4{fill:none;}</style><clipPath id="clippath"><rect class="cls-4" width="160" height="160"/></clipPath></defs><g id="Camada_1-2"><g class="cls-3"><circle class="cls-1" cx="80" cy="80" r="80"/><path class="cls-2" d="m119.45,45.09s1.28-4.18,2.73,0c0,0,1.66,6.87-2.2,11.46,0,0-.26,3.72,1.36,6.25,0,0,.78,3.61-.81,6.71,0,0-1.69,3.27-.94,6.31,0,0,1.82,2.77.17,4.15,0,0-.43.44-.7.44,0,0-1.46,1.78-3.53,0,0,0-.31-.04-.54-.47,0,0-1.41-1.25-1.2-2.77,0,0-2.02-4.01-3.51-4.59,0,0-5.9,2.14-7.97,4.84,0,0-2.02,6.39-7.11,9.4,0,0-3.1,5.6-3.17,10.53,0,0-.34,4.63-1.33,6.75,0,0-1.3,5.44-.58,7.65l.31,1.71c.56.55,1.14,1.17,1.73,1.84.44.51.84,1,1.21,1.48-.35.25-1.78,1.19-3.68.92-1.22-.17-2.06-.75-2.46-1.06-.56-.72-1.12-1.44-1.69-2.16.08-.55.16-1.11.25-1.66-.28-.87-.56-1.74-.84-2.61,1.14-4.54,1.64-8.29,1.87-10.9l.45-11.99h0s-.81-1.53-2.16-.9c0,0-20.51,3.96-28.43-4.05,0,0-2.65-.72-3.15,3.15,0,0-6.25,10.89-6.25,16.76l1.21,10.43.54,1.29c1.05.64,1.75,1.32,2.18,1.82.4.46.45.62.42.76-.15.55-1.74.69-2.96.43-.53-.11-.95-.29-1.23-.43-.18-.58-.36-1.17-.54-1.75l.34-.71s-2.02-5.33-2.02-7.76c0,0-1.01,8.06-.27,10.16l2.63,3.21c1.23.75,2.02,1.54,2.49,2.1.38.46.49.68.45.9-.14.71-1.8.96-2.68.99-1.63.06-2.88-.62-3.46-.99-.09-.73-.18-1.46-.27-2.19l-2.46-3.07s-.48-13.68-1.07-14.53c-.58-.85-.67-2.61-.67-2.61,0,0,3.78-7.65,3.42-12.73-.36-5.08-3.51-6.25-4.27-13.27-.76-7.02,1.08-12.6,5.53-13.59,0,0,12.55-2.79,18.02.65,0,0,20.13.16,22.74.07,0,0,8.91-.09,13.23-1.62l9.81-3.73.49-.09s-3.1-3.87-3.46-6.79c0,0-.99-3.6.18-4.99,0,0,.49-.63.94.18,0,0,.67,3.37,2.38,5.08,0,0,3.55,2.97,3.69,4.23,0,0,2.92-.9,4.14.22,0,0,2.79-5.67,2.52-6.79l.19-2.06Z"/></g></g></svg>