<?xml version="1.0" encoding="UTF-8"?>
<svg id="Camada_2"
  xmlns="http://www.w3.org/2000/svg"
  xmlns:xlink="http://www.w3.org/1999/xlink" viewBox="0 0 160 160">
  <defs>
    <style>.cls-1{fill:transparent;}.cls-2{fill:#3a8342;}.cls-3{clip-path:url(#clippath);}.cls-4{fill:none;}</style>
    <clipPath id="clippath">
      <rect class="cls-4" width="160" height="160"/>
    </clipPath>
  </defs>
  <g id="Camada_1-2">
    <g class="cls-3">
      <circle class="cls-1" cx="80" cy="80" r="80"/>
      <path class="cls-2" d="m44.59,117.8c.01-1.09.03-2.17.04-3.26l.03-1.88-.88-12.92c-2.57-2.57-.44-8.15-.44-8.15-1.69-2.19-3.45-15.61-3.45-15.61-2.26-5.52,1.57-11.79,1.57-11.79,4.26-6.52,12.23-9.03,12.23-9.03,0,0,4.45-.41,7.9-.41l19.37,2.04c3.7,0,11.91.44,16.8-2.04,1.25-1.16,6.65-7.55,10.16-8.75,3.51-1.19,7.34-1.76,9.59.44,0,0,1.83.63,2.67,1.63,0,0,4.22-.13,4.85.63,0,0,1.44,2.32-4.14,2.7,0,0-.44.56.19,1.44,0,0,1.57,2.63,2.51,3.39,0,0,3.07,3.39,1.19,4.45,0,0,1.41,2.45-.61,2.51,0,0-1.71,1.5-4.86.61,0,0-5.06,12.55-14.72,21.77l-4.33,5.36s-1.69,4.89-4.56,7.76c-.18,1.22-.31,2.54-.38,3.95-.15,3.34.15,6.3.6,8.75,1.82,1.68,2.32,2.15,2.32,2.16h0c.29.18.92.63,1.36,1.46.11.21.19.41.26.61.25.76-.24,1.57-1.02,1.71-.37.07-.79.11-1.24.12-1.09.02-1.97-.19-2.54-.38-1.01-.91-2.02-1.82-3.03-2.73-.27-2.86-.4-5.21-.47-6.82-.18-4.26-.19-9.08-.19-9.08-.28-.15-.55-.31-.83-.47-.57-.33-1.12-.66-1.66-.99-.17,1.34-.29,2.82-.33,4.42-.04,2.01.06,3.84.24,5.45,0,0,1.74,1.69,1.74,1.69h0c.28.29.5.44.62.8.13.38.12.96-.23,1.25-.22.19-.5.18-.96.16-.34-.01-.84-.08-1.43-.3-.87-.75-1.74-1.49-2.61-2.24-.05-4.26-.09-8.52-.14-12.78-.85-.58-1.16-.79-2.01-1.37-2.37.92-5.85,1.95-10.15,2.14-5.43.25-9.77-.95-12.35-1.88,0,0-4.26,5.83-7.84,7.59-.06,2.4-.32,4.3-.53,5.56-.31,1.8-.63,2.84-1.66,7.48-.22.98-.39,1.78-.5,2.28.77.92,1.49,1.57,2.01,1.99.81.66,1.33.92,1.63,1.63.07.18.44,1.11,0,1.82-.59.95-2.2.81-2.88.75-.94-.08-1.83-.39-2.76-.94-2.3-1.37-3.55-3.48-4.15-4.7Z"/>
    </g>
  </g>
</svg>
