<?xml version="1.0" encoding="UTF-8"?><svg id="Camada_2" xmlns="http://www.w3.org/2000/svg" xmlns:xlink="http://www.w3.org/1999/xlink" viewBox="0 0 160 160"><defs><style>.cls-2{fill:#3a8342;}.cls-3{clip-path:url(#clippath);}.cls-4{fill:none;}</style><clipPath id="clippath"><rect class="cls-4" width="160" height="160"/></clipPath></defs><g id="Camada_1-2"><g class="cls-3"><path class="cls-2" d="m112.44,42.34c1.54.09,3.87.43,6.41,1.65,1.31.63,2.68,1.29,2.61,1.9-.07.62-1.76,1.33-9.38,1.54,0,0-5.44,4.1-5.33,7.34,0,0,1.65,4.36.82,10.83l-1.29,3.38s.11,5.77-3.79,9.24c0,0-4.21,10.7-7.64,14.08,0,0-.74,1.98-1.29,2.28v1.02c-.16.25,6.32,6.87,6.32,6.87l1.02-.22.96-.63s.74-.55.85.44c0,0,2.06-.05,1.32,1.59,0,0-.27-.71-.82-.41,0,0,.11.44-.71.58,0,0-.08.58-.99.49,0,0-.6.73-1.62,0l-.71.6-2.39.25s-.77,1.1-1.26.27l-.14-.44s-.66.66-.41,1.21c0,0-1.07-2.58.47-3.13,0,0,.66-.03.69.11.03.14.49-.14.49-.14l.3-1.15.06-.25-4.89-4.89s-2.36-1.07-1.87-2.45l-9.39.54-1.07.62s.78,4.48,2.85,5.77c0,0,.77.14.91.41,0,0,1.04-.47,1.59-.03,0,0,1.52-.61,2.01-.49,0,0,1.73.14,1.73,1.73,0,0-1.04-1.02-1.57-.88,0,0-.74,1.4-1.37.99,0,0-.36.71-1.43.47,0,0-.85.38-1.79.16-.93-.22-.16-.05-.16-.05,0,0-.47.22-.88.27,0,0-1.29.41-1.88.33,0,0-1.33,1.04-1.97.14-.33-.74.14-1.13.14-1.13,0,0-1.57-.41-2.31,1.68,0,0,.14-2.8,1.92-2.94,0,0,1.68.49,1.92.41.25-.08-.38-4.48-1.29-5.66,0,0-5.51,2.98-7.29,4.39l-8.83,6.52s-1.32-.29-.95-3.18c0,0-18.15,17.28-18.15,17.12s.37-1.53.37-1.53l-2.93,2.85v-.54l-.82.54v-1.28l-1.24,1.07.41-1.24-1.11.62.21-.49-.21.12v-.49l-.41.25.33-.87-.66.21v-1.28l-1.11,1.03v-1.86l-.7.33,1.4-2.8s5.38-6.19,7.35-7.59c1.97-1.4,15.91-14.31,15.91-14.31l4.83-4.08s2.02-5.49,2.76-6.64c0,0,2.68-7.31,4.17-10.07l5.36-10.43s4.74-5.28,5.94-6.15,2.47-2.06,2.47-2.06l5.32-9.73c.18-2.15.95-3.49,1.47-4.21,2.74-3.8,8.26-3.71,11.49-3.65,3.26.05,4.72.82,5.15,1.06,2.21,1.23,3.3,3.15,3.75,4.08Z"/></g></g></svg>