<?xml version="1.0" encoding="UTF-8"?>
<svg id="Camada_1" data-name="Camada 1" xmlns="http://www.w3.org/2000/svg" viewBox="0 0 903.11 843.06">
  <defs>
    <style>
      .cls-1 {
        fill: #3a8342;
      }
    </style>
  </defs>
  <path class="cls-1" d="m583.48,193.08s-.18.1-.51.27c-.43-2.2-.96-4.39-1.6-6.55-7.94-23.05-29.9-38.3-54.27-37.69-32.92,0-41.23,9.42-47.11,28.27-6.65,21.24,0,103.75,0,151.01s-49.52,40.12-89.64,84.95c-40.12,44.83-53.16,105.43-84.95,115.62l-.09-.04c-22.08,7.09-97.06-7.1-92.33,7.09,4.73,14.19,40.38,102.55,170.16,99.1,6.39-.17,12.5-.38,18.4-.68-2.19,11.83-3.14,23.88-2.79,35.94,3.54,10.59,23.57,11.78,38.91,15.32,15.34,3.54,34.22,8.27,34.22,8.27,0,0,18.84-11.83,15.34-17.69-1.86-6.14-1.86-12.7,0-18.84h-73.15l2.32-23.99c10.97-.95,21.23-2.38,31.11-4.62,7.6,5.56,22.53,6.89,34.56,9.67,15.34,3.54,34.22,8.27,34.22,8.27,0,0,18.84-11.8,15.34-17.71-1.86-6.14-1.86-12.7,0-18.84h-37.8c11.44-6.87,23.11-15.66,35.61-26.96,44.91-43.25,70.44-102.81,70.79-165.16,0-51.91-30.7-87.34-40.12-108.56-9.42-21.22-30.7-68.4-28.26-77.86,1.09-4.25,11.19-5.63,21.99-5.87,0,0,.01.02.02.03l-.06-.02c4.05,5.35,52.44,8.2,58.41,8.2,3.67-.12,7.11-1.84,9.42-4.69l-38.14-36.22Z"/>
</svg>