<?xml version="1.0" encoding="UTF-8"?>
<svg id="Camada_1" data-name="Camada 1" xmlns="http://www.w3.org/2000/svg" viewBox="0 0 903.11 843.06">
  <defs>
    <style>
      .cls-1 {
        fill: #3a8342;
      }
    </style>
  </defs>
  <path class="cls-1" d="m760.55,446.85l10.9-10.9s3.63-7.57-5.45-9.08c0,0-11.5-3.03-19.07-10.59,0,0-20.89-19.98-43.29-25.43,0,0-55.7-40.26-87.18-48.43l-9.35-21.65c-.23-.54-.81-.88-1.38-.73-.44.11-.85.5-.87,1.53-.02.82-1.08,1.2-1.59.56-.26-.33-.52-.87-.73-1.73l-15.82-19.37s-2.5-2.42-1.97.91c0,0-.68,1.89-1.74.3l-8.48-8.78s-3.18-1.74-3.03,3.03c0,0,0,1.97-1.66,1.06l-13.94-13.22s-3.46-3.65-4.98,1.04c-1.21,1.36-4.09,1.97-4.69-.91,0,0-4.54-7.36-8.32-1.49,0,0-1.21,2.55-3.48-.48,0,0-5.45-7.11-9.38-1.06,0,0-1.66,4.24-6.81.3,0,0-3.03-7.72-11.5-1.97,0,0-2.88,1.66-8.17-.45,0,0-7.64-2.8-10.37,4.01,0,0-.3,3.86-6.28-.83,0,0-6.36-3.71-7.87.83,0,0-.61,3.41-6.13-.08,0,0-10.52-5.83-11.81,1.66,0,0,.91,6.58-6.89,2.72,0,0-8.48-7.42-10.67.61,0,0,1.97,2.72-1.36,1.66-3.33-1.06-20.28-1.14-18.99,3.56,1.29,4.69-3.86,1.66-3.86,1.66,0,0-10.22-1.74-6.28,6.21,0,0-12.64,1.74-22.55-3.33,0,0-5.68-1.14-2.72,6.36,0,0-14,2.57-34.21-4.84,0,0-12.56-4.31-34.66,4.77,0,0-21.04,2.42-36.17,7.42,0,0-15.44,7.57-20.89,7.11,0,0,9.84,38.75,19.37,46.77,0,0,9.38,28.45,42.53,33.15,0,0-16.72,9.04-41.36,2.12,0,0-44.2-21.78-60.46-31.98-3.9-2.45-8.19-4.23-12.69-5.21-15.75-3.44-32.45-3.1-43.8-2.55-4.48.21-8.81,1.68-12.48,4.25-7.2,5.06-18.47,14.93-21.88,28.98,0,0-4.69,21.64,1.82,37.38,0,0,1.21,17.25-1.66,28-2.88,10.75,3.78,47.98,18.62,56,0,0,10.75,7.87,17.25,7.42,6.51-.45,45.4-.91,51.61-4.69,6.21-3.78,33.6-13.47,45.1-26.18,11.5-12.71,47.83-13.17,62.81-4.69l1.51,1.06s-18.92,1.21-30.27,11.81c0,0-16.19,26.94-35.11,32.09,0,0,40.18,39.05,112.38,22.02,0,0-.57,5.79,2.16,5.34,0,0,12.26-1.82,15.44-5.68,0,0,1.93,2.16,4.99.34,3.06-1.82,29.97-9.54,33.83-16.69,0,0,73.1,3.41,82.52,7.83,0,0-19.52,2.43-20.66,14.21-1.14,11.78-.91,15.3,4.24,24.53,0,0,7.57,21.95,1.66,32.99,0,0,39.05-10.44,54.26-27.92,0,0,4.77-2.95,13.85-.23,0,0,30.19-26.33,32.24-44.04,0,0,17.71-.91,27.92-4.99,0,0,29.71-9.67,41.77-10.9,0,0,36.32-9.31,45.63-19.98,9.31-10.67,27.7-17.71,27.7-17.71,0,0,5.22.23,8.17-2.72,2.95-2.95,13.17-9.54,15.44-18.16,2.27-8.63,14.98-17.25,14.98-17.25,0,0,5.86-9.8-.91-12.26l-14.83,5.6Z"/>
</svg>