<?xml version="1.0" encoding="UTF-8"?>
<svg id="Camada_2" data-name="Camada 2" xmlns="http://www.w3.org/2000/svg" viewBox="0 0 190.49 179.97">
  <defs>
    <style>
      .cls-1 {
        fill: #3a8342;
        stroke-width: 0px;
      }
    </style>
  </defs>
  <g id="Camada_1-2" data-name="Camada 1">
    <path class="cls-1" d="m2.02,114.53c.29.36.06,1.04.67,1.15,1.82-1.03.34-.98.64-2.89,1.08-2.57-.03.57,1.1,1.44,2.62,2-2.05-6.95,2.65-1.31,2.33.24-.91-2.8-.34-4.11.75-.32.82,1.36,1.49,1.81,2.54,2.6,1.17-1.2,1.11-2.42,3.22,3.05,4.44,1.21,4.03-1.92.15.14.29.28.41.42-.08.03-.09.05-.03.06,0,0,.02-.04.04-.06,1.23,1.35,1.58,2.62,3.44.66-1.28-.85.47-2.44,1.69-.79,1.4,1.57,6.27,3.5,9.59,5.21.53,1.06,1.86.1,2.62,1.05,1.07,1.28,2.39,1.14,3.77,2.06.7,1.59,9.32,1.33,7,2.86.59-.06,1.03-.8,1.74-.35-1.41,1.06,1.82.81-.1,1.41-.72.63,1.44-.2,1.64.49-.97.36.94.35-.14.66.11.52,1.13.29,1.14.81-.51.65.63.07.98,0,1.18,1.19,2.55-.56,3.28,0-1.23,1.02.92-.11,1.39-.31,1.14.51-.74.76-.26,1.41.12.09-.18.05-.17.3-.97,1.46-2.35,1.83-2.76,3.65-2.59,8.5,1.05,5.34,1.94,13.45,6.05,35.74,3.29,15.68-11.96,25.37,7.08.91,15.21.24,22.45,2.61,6.58,1.16,15.76.16,21.1,2.26-1.16,1.69-3.42,1.3-5.22,1.31-3.22-.25-6.39.88-8.52,3.26,2.36.57,7.11-.47,10.37-.45,9.56-1.12,18.29,5.62,27.92,5.66,3.53-.09,6.92,2.03,9.58-.79,1.55-.5,8.36,1.59,5.67.16-6-3.14-13.16-1.87-19.82-3.13-.04-1.89,8.91-.13,12.25-.64,3.11.21,7.52,2.2,9.48-.98,1.48-1.85,7.58,1.15,6.86-.14-7.51-5.16-16.96.37-25.19-2.66,1.85-1.19,5.62.06,7.88-1.2,1.36-.89,2.87-1.84,4.26-1.88,6.37.39-3.97-1.92-6.5-.9-6.48,1.08-13.22,2.23-19.96,2.22-4.56-2.12-3.3-3.53,1.14-2.28,1.59-1.13-8.84-1.35,2.12-2.65,6.68,1.59,2.52-.72-.59-1.39-.67-.67-2.45-.2-3.44-.66-2.04-1.44-5.53,1.77-6.79-.55,4.38-1.53-.93.59-2.94-3.94-3.91-5.74-7.86-11.46-10.96-17.75-.89-1.73.05-2.29.62-3.49.45.58.55.48.59.12.03-.03.05-.08.05-.13-.01.02-.03.04-.04.06.04-.32.05-.79.22-1.15,14.73-26.12,86.57-9.32,87.65-85.43.44-16.05,4.13-21.84,14.1-29.26.71-1.19.87.71,1.28-.46.5-1.44,1.51-.5,1.84-1.45.67-.96,1.02.02,1.35-.23,1.19-1.69,3.59-1.73,5.62-1.9,4.69-.24,4.73-.85,3-1.4,0,.03.01.05-.01.05-.02,0,0-.03,0-.06-2-.63-6.33-1.17-8.65-.94,1.66-2.51,9.14-2.55,12.23-.76,1.51,1.21.85-.51.11-1.18-2.32-3.05-6.66-3.26-10.08-4.17-1.43-2.12-3.06-3.86-4.19-4.81-.33-.31-.62-1.06-1.36-1.25.06.21.7,1.13-.05.77-1.94-2.07-1.15-.65-2.73-1.16-1.39-1.44-.89-.35-2.07-.53-.32-.19-3.3-1.99-2.68-1.11,0,0,0,0,0,0,.02.09.07.13.16.14,1.48,1.37-2.28-.34-3.37-.12,2.04.86-6.5,1.54-7.77,3.72-11.39,6.9-11.85,21.87-19.27,31.73-11.27,16.14-34.22,7.34-50.56,13.08C50.03,57.79,12.79,79.39,0,115.61c.8-1.55,3.52-5.6,2.82-2.27-.06.49.07.91.17,1.37-.4-.3-.5-.92-.97-.18Zm53.75,19c.49.86.98-.36.56-.97.38-.94,1.3-1.01,1.29-2.14.65-.68,1.15-1.85,1.65-2.44.85.23,4.73-5.33,3.92-2.62-.03.12,1.1-.31.64.47-1.7,2.08-2.19,4.59-4.08,6.88-.9,2.51,1.69-.53.66,1.8-2.29,7.15.94-.1.65,6.13.55.74.66-.32.64-.75.29-1,.27,1.29.56,1.65.26-.76.49-.11.73.18,1.97,2.69,4.11,5.39,6.08,8.15,2.56,5.33,13.01,12.65,1.95,12.28-11.45.5-13.16.32-14.23-11.2-.34-5.57-2.17-12.05-1.02-17.42Z"/>
  </g>
</svg>