<?xml version="1.0" encoding="UTF-8"?><svg id="Camada_2" xmlns="http://www.w3.org/2000/svg" xmlns:xlink="http://www.w3.org/1999/xlink" viewBox="0 0 160 160"><defs><style>.cls-1{fill:#fff;}.cls-2{fill:#3a8342;}.cls-3{clip-path:url(#clippath);}.cls-4{fill:none;}</style><clipPath id="clippath"><rect class="cls-4" width="160" height="160"/></clipPath></defs><g id="Camada_1-2"><g class="cls-3"><circle class="cls-1" cx="80" cy="80" r="80"/><path class="cls-2" d="m103.76,65.52c.48-.63,1.17-1.53,1.44-2.78l.31-1.41c-.35-.53-1.16-1.92-1.13-3.85.03-2.38,1.31-3.96,1.68-4.4.42-.46,1.24-1.24,2.51-1.68,2.34-.83,4.41.09,4.88.31,0,0,1.24,1.13,2.03,2.37l2.85,2.37s1.72,2.4.89,4.5l-.76,2.13s-.45.21-.65-.27c0,0,.58-2.44.17-3.02l-1.99-1.2-1.48.21s-.07,7.15-2.65,10.31c0,0-2.75,4.71-4.77,5.91,0,0,.24,1.03-.03,1.58s2.71,1.99,2.58,4.95c0,0,2.71,4.53.96,9.17-.48,2.06-2.32,8.73-8.72,13.82-7.3,5.8-15.37,5.45-17.27,5.32,1.11,2.99,2.21,5.98,3.32,8.97l.53,1.48,3.07,1.1s3.07.69,4.13.62c1.06-.07,1.55.89,1.55.89h-5.87s-2.35-.34-2.99-1.08.98,1.4,2.29,1.6,2.86.89,2.86.89c0,0,.57.18.57.64l-5.13-.69s-3.34-1.65-3.52-3.4c-.24.17-.51.38-.78.64-.42.41-.74.82-.96,1.16-.12-.22-.14-.41-.15-.53-.02-.76.74-1.17,1.75-2.68.05-.08.1-.14.12-.19-.89-3.27-1.77-6.55-2.66-9.82,0,0-.12.02-.25,0-.18-.02-.28-.15-.32-.19.38,2.71.77,5.43,1.15,8.14.09.26.26.67.64,1.08.46.5.97.73,1.24.82l-.57.73c-.57.07-1.88-1.15-1.88-1.15.05.41,1.65,1.56,1.65,1.56-.13.21-.27.43-.4.64-.13-.05-.25-.11-.38-.16-.64-.26-1.02-.59-1.25-.86,0,0-.2-.22-.84-1.34-.44.09-2.15,1.37-2.15,1.37v-.55c.09-.55,2.15-2.38,2.15-2.38l-.92-8.43-.39-.14s-6.87,6.6-13.71,6.18c0,0-4.67,1.89-9.41-4.26,0,0-2.23-2.95,4.16-7.49,0,0-3.09.93-3.33.27l-.24-.65-.07-1.48-4.17-.09-4.12,3.87s-4.44-2.63-4.07-4.79c0,0-4.81-3.07-3.16-5.86,0,0-4.4-3.11-2.43-6.55,0,0-4.53-3.07-2.29-6.41,0,0-3.53-3.85-1.56-5.82,0,0-5.04-5.86-1.01-7.15,0,0-2.98-5.18.6-6.41,0,0-.92-7.1,2.98-6.23,0,0-.14-4.58,4.12-4.17,0,0,.96-2.98,3.85-2.06,0,0,1.47-2.29,3.85-.5,0,0,2.38-1.92,4.31.73,0,0,1.79-1.6,3.53,1.19l1.74,4.03s2.56-.27,3.16,1.92c0,0,2.24-.73,2.43,1.69,0,0,1.6-.55,1.92,1.47,0,0,2.75-1.37,3.53,1.1l.87,1.19s1.97-3.07,2.93-.46l1.33-1.56.78,1.88,1.24-1.88.5,1.01,3.07-2.52s5.73,7.92,13.01,9.34c0,0,6.41.05,7.01-2.56.74-.02,1.47-.05,2.21-.07Z"/></g></g></svg>