<?xml version="1.0" encoding="UTF-8"?>
<svg id="Camada_2" data-name="Camada 2" xmlns="http://www.w3.org/2000/svg" viewBox="0 0 176 190.81">
  <defs>
    <style>
      .cls-1 {
        fill: #3a8342;
        stroke-width: 0px;
      }
    </style>
  </defs>
  <g id="Camada_1-2" data-name="Camada 1">
    <path class="cls-1" d="m111.18,8.83c4.51-4.66,9.68-7.82,16.25-8.58,8.33-.96,15.69.67,21.55,7.15.66.73,1.96.87,2.95,1.29,1.11.46,2.88.65,3.22,1.45,1.7,3.94,4.01,7.9,2.9,12.42-.87,3.53-2.12,6.99-3.43,10.39-1.07,2.77-2.74,5.32-3.65,8.13-.88,2.7-.34,5.16,1.47,7.8,2.23,3.26,3.5,7.21,4.98,10.94.44,1.1.73,3.14.16,3.6-2.77,2.23-1.31,5.66-2.78,8.25-1.24,2.2-1.38,5.16-2.92,7.03-5.68,6.89-9.18,14.9-12.68,22.93-1.55,3.56-2.56,7.24-1.76,11.23.96,4.82,1.55,9.72,2.71,14.48,1.85,7.63,4.03,15.17,6.06,22.75.12.46.41.99.28,1.38-1.31,3.89.29,6.57,3.5,8.56,1.96,1.22,4,2.32,5.98,3.51,1.94,1.16,3.73,1.78,6.17.88,1.47-.54,3.53.19,5.24.67,2.17.6,4.29,1.43,6.35,2.33.85.37,1.5,1.21,2.25,1.83-.71.73-1.41,2.06-2.14,2.08-2.23.06-4.48-.39-7.03-.68-1.93,2.6-2.31,2.66-5.95.61-.4-.22-.93-.57-1.27-.46-2.41.76-4.79,1.62-7.71,2.64,4.22,3.69.68,7.71.65,11.66,0,.63-1.18,1.25-1.81,1.87-.57-.62-1.43-1.16-1.66-1.89-.82-2.66-1.34-5.42-2.18-8.07-.27-.84-1.19-1.48-2.07-2.51.82,5.12,1.59,9.52,2.17,13.94.1.74-.65,1.59-1.01,2.39-.62-.63-1.54-1.15-1.81-1.9-.63-1.81-.91-3.74-1.42-5.59-.43-1.58-.97-3.13-1.46-4.69l-1.16.25c.36,2.27.79,4.54,1.02,6.83.07.72-.43,1.49-.67,2.23-.65-.46-1.59-.78-1.88-1.41-.89-1.92-1.55-3.94-2.26-5.94-1.38-3.9-2.57-4.64-6.72-4.15-2,.24-4.12.92-5.99.5-1.63-.36-2.84-2.49-4.48-2.91-1.76-.45-3.85.53-5.69.23-1.85-.31-3.5-1.84-5.35-2.12-3.97-.61-7.96-.45-11.81,1.11-.89.36-2.12.27-3.08-.01-4.04-1.21-8.04-2.58-12.61-4.07.7-5.66,1.43-11.54,2.16-17.5-.65-.26-1.38-.56-2.1-.86-2.55,2.39-4.45,4.96-7.82,6.59-2.98,1.44-5.14,4.76-9.13,4.41-1.47-.13-2.92-.49-4.98-.85-1.11,1.55-5.38-.52-6.45,3.81,1.88.55,3.74,1.24,5.66,1.62,3.92.79,7.91,1.27,11.8,2.2,1.06.25,2.03,1.54,2.66,2.58.25.42-.55,2.1-.83,2.09-1.13-.04-2.25-.51-3.37-.85-.17-.05-.3-.31-.46-.33-.8-.09-1.74-.41-2.35-.09-.37.2-.13,1.41-.34,2.12-.33,1.13-.57,3.01-1.25,3.2-4.19,1.21-8.64.94-12.63-.28-2.58-.78-4.56-1.63-7.34-.7-1.58.53-3.81-.18-5.51-.9-1.73-.74-3.24-2.07-4.69-3.33-3.11-2.68-3.43-4.21-1.94-8.11.79-2.06,1.14-4.07-.49-6.19-3.49,1.26-6.99,2.57-10.51,3.79-4.35,1.51-8.8,2.19-13.35.98C3.04,161.43.07,158.46,0,155.38c-.06-3.01,2.48-6.02,7.04-6.99,5.62-1.2,11.37-1.86,17.09-2.44,1.9-.19,2.93-.69,3.72-2.42,1.56-3.42,2.24-6.83,1.8-10.65-.62-5.38-.83-10.82,3.01-15.43.51-.61,1.02-1.99.72-2.38-1.57-1.98.11-3.34.67-4.89.4-1.08.94-2.11,1.38-3.18,1.35-3.25,1.37-7.45,6.06-8.3.42-.08.84-.75,1.07-1.24,3.73-7.95,8.91-14.92,15.02-21.12,7.81-7.93,14.77-16.9,25.15-21.9.41-.2.82-.56,1.05-.95,4.64-7.9,11.5-13.65,18.41-19.41,1.19-.99,1.78-3.13,1.95-4.8.28-2.68-.05-5.43-.08-8.15-.02-1.22-.24-2.55.15-3.64.9-2.51,2.11-4.9,3.06-7.03,1.35-.53,3.02-.7,3.91-1.62Zm21.69,145.21c-7.36-12.55-12.45-25.98-15.93-40.07-.54-2.21-1.46-4.32-2.45-7.19-2.06,2.84-2.95,5.49-2.36,7.96,1.87,7.86,4.63,15.38,8.38,22.65,4.04,7.84,7.24,16.13,10.59,24.31,1.7,4.16,2.56,4.97,8.46,4.9-2.4-4.54-4.38-8.64-6.68-12.56Zm-36.91,6.84c5.53.79,10.81,1.54,16.98,2.41-4.09-7.06-7.78-13.45-11.53-19.94-3.19,5.26-4.76,11.04-5.44,17.53Z"/>
  </g>
</svg>