<?xml version="1.0" encoding="UTF-8"?>
<svg id="Camada_1" data-name="Camada 1" xmlns="http://www.w3.org/2000/svg" viewBox="0 0 903.11 843.06">
  <defs>
    <style>
      .cls-1 {
        fill: #3a8342;
      }
    </style>
  </defs>
  <path class="cls-1" d="m249.26,329.06c-1.92-.73-5.79-2.17-11.09-2.72-9.48-.99-17.49,1.49-22.7,3.71,0,0-16.25,10.31,9.6,24.6,0,0,24.76,8.28,28.16,16.01,0,0,15.82,18.33,41.38,19.86,9.13.54,19.33.65,30.73-.4,42.11-3.88,73.86-21.17,73.86-21.17,41.1-20.63,67.83-36.93,86.68-50.42,5.88-4.21,23.26-16.93,44.33-15.67,9.21.55,14.73,3.51,18.24,6.31,1.41,1.13,13.01,10.69,10.09,22.83-1.9,7.91-8.79,12.02-10.58,13.02,0,0-78.66,49.27-120.52,53.29,0,0-110.51,10.72-119.28,15.79-6.43,3.73-32.06,4.98-56.81,23.91-13.63,10.43-21.09,21.8-25.6,28.52-11.46,17.1-32.66,48.73-25.88,84.76,10.18,54.1,75.22,74.59,79.3,75.81,24.14,7.22,42.94,4.53,73.38.05,24.79-3.65,76.35-11.87,124.73-47.63,11.83-8.74,30.1-30.46,66.64-73.9,19.56-23.26,54.6-65.99,100.75-98.37,7.44-5.22,22.42-15.27,42.02-14.52,4.01.15,27.46,1.76,38.08,19.41,5.64,9.37,5.03,18.9,4.53,26.72-1.29,20.15-10.85,34.96-25.95,57.79-1.54,2.33-8.42,13.16-15.19,20.96-41.91,48.33-102.68,63.55-180.59,83.05-25.8,6.46-37.08,8.45-37.08,8.45-18.04,3.58-24.61,3.92-45.35,9.84,0,0-18.84,5.37-103.97,40.32-1.92.69-3.01,2.74-2.51,4.71.5,1.98,2.46,3.26,4.48,2.94,50.63-17.22,90.68-29.03,111.8-33.88,14.99-3.44,23.68-4.15,28.19-4.36,17.81-.82,27.48,3.16,62.82-2.06,24.32-3.59,97.84-15.13,164.04-69.15,16.84-13.74,44.55-36.84,63.62-76.72,10.25-21.42,25.72-53.76,12.57-86.47-2.14-5.33-9.67-22.17-27.43-33.76-35.57-23.21-80.69-4.78-96.12,1.52-15.15,6.19-27.52,15.22-52.26,33.3-25.33,18.51-42.89,34.68-48.76,40.19-30.83,28.89-31.28,36.97-54.93,60.64-12.54,12.56-42.63,42.15-89.16,62.42-27.64,12.04-57.82,25.29-92.89,16.58-10.44-2.59-32.87-8.16-40.55-26.12-10.97-25.66,16.76-56.49,19.98-60.07,12.71-14.13,28.43-22.35,48.53-28.66,47.36-14.86,61.9-1.19,111.73-7.57,57.85-7.4,95.53-32.32,130.96-57.96,13.11-9.49,22.79-18.06,29.65-31.59,2.07-4.09,15.03-30.64,4.35-59.71-16.32-44.42-71.42-50.12-75.07-50.44-15.24-1.33-26.83,1.66-36.73,4.3-27.22,7.28-35.66,18.43-78.26,46.65-36.79,24.36-56.01,32.95-70.86,38.41-20.55,7.56-31.07,11.29-42.88,9.08-14.63-2.74-30.98-12.85-56.21-22.44Z"/>
</svg>