<?xml version="1.0" encoding="UTF-8"?>
<svg id="Camada_1" data-name="Camada 1" xmlns="http://www.w3.org/2000/svg" viewBox="0 0 903.11 843.06">
  <defs>
    <style>
      .cls-1 {
        fill: #3a8342;
      }
    </style>
  </defs>
  <path class="cls-1" d="m790.79,382.48c1.64-12.37.34-22.84-3.21-26.98,0-.02-.01-.04-.02-.06-.02,0-.03,0-.05,0-.82-.93-1.75-1.56-2.8-1.77-1.11-.22-2.26.04-3.43.66-17.66-3.36-34.81-9-51.02-16.81-4.27-2.32-10.4-6.33-17.7-11.27,8.93-3.76,17.74-7.81,26.38-12.22,13.31-6.65,25.58-15.21,36.43-25.39l.03-.05s-65.55-21.86-85.61-25.39c-12.27-2.15-24.77-.04-35.53,5.77-12.28-3.55-23.15-6.42-29.89-7.65-20.37-3.55-41.26,2.29-56.84,15.89-4.32,6.71-7.66,13.94-10,21.46-18.05-3.81-36.71-6.86-52.96-6.94-41.56-.18-159.64-4.11-229.73-4.11l.03.08c-21.18-.01-47.41,16.13-67.55,37.48-17.7.72-38.07-4.83-34.1-21.71.35-1.47.8-2.91,1.35-4.32,10.86-.97,21.42-4.13,31.02-9.29,15.23-8.99,12.85-32.6-7.62-26.76-13,3.9-23.98,12.68-30.64,24.5-8.58,1.04-17.21,1.6-25.82,2.31-3.23.51-5.43,3.54-4.92,6.76.47,2.96,3.07,5.1,6.07,4.99,6.12-.51,12.69-.84,19.29-1.32-.83,2.94-1.4,5.95-1.7,8.99-1.67,18.1,15.4,28.84,33.28,32.65-10.74,15.24-17.67,31.53-17.67,45.82-.01,24.33,5.25,48.38,15.44,70.47,1.87,4.42,3.58,8.36,5.13,11.86,4.66,27.03,7.69,51.23,1.3,63.64-9.19,25.86-10.67,53.84-4.27,80.53l10.15,2.97,2.92,17.44h11.2l2.89-5.43,4.54,5.43h10.15c-6.19-8.61-10.4-18.49-12.34-28.92-2.82-14.94,24.35-42.87,36.52-59.14,3.53,19.64,13.14,64.7,13.14,64.7l10.74.91,3.45,22.29h8.73l3.1-6.47,5.56,6.47h11.42c-6.11-7.79-10.32-16.89-12.31-26.58-1.23-24.28,4.79-48.38,17.29-69.23,4.48-4.78,14.76-14.55,25.56-24.77,22.79,4.29,45.89,6.98,69.11,8.01,16.2,1.59,46.06,7.85,77.47,10.55,2.03,4.97,3.68,10.12,4.63,15.37,3.45,19.35,7.62,61.44,7.62,61.44l9.72,4.87,3.05,20.46h10.15l2.54-5.69,4.37,5.69h7.92c.27-9.54-1.58-19.01-5.41-27.75-4.47-5.37,8.16-43.87,17.05-67.7,1.98,20.21,7.09,67.7,7.09,67.7l11.65,3.02,4.87,24.73h7.62l6.19-6.14,8.15,6.14h6.09c-2.79-9.37-6.65-18.39-11.5-26.89-4.16-20.7-4.16-42.03,0-62.73,4.51-19.28,11.99-37.73,22.11-54.74,2.95-2.72,5.88-5.46,8.78-8.23,7.41-2.53,15.53-6.17,24.45-10.63,33.08-16.53,85.07-47.7,96.12-53.31,8.67-3.04,18.11-3.04,26.78,0,.18-.17.34-.36.52-.53,5.35-.18,11.57-9.94,15.21-23.67.6-1.7,1.15-3.42,1.6-5.17.31-2.1.5-4.21.64-6.32Zm-590.56-107.59v.03c1.23-.49,2.51-.88,3.81-1.14h.28c-.36,2.32-1.76,4.34-3.81,5.48-4.98,2.95-10.49,4.86-16.22,5.64,4.69-4.24,10.09-7.62,15.94-10Z"/>
</svg>