<?xml version="1.0" encoding="UTF-8"?>
<svg id="Camada_1" data-name="Camada 1" xmlns="http://www.w3.org/2000/svg" viewBox="0 0 903.11 843.06">
  <defs>
    <style>
      .cls-1 {
        fill: #3a8342;
      }
    </style>
  </defs>
  <path class="cls-1" d="m546.16,693.87c.86,1.19,2.01,3.08,2.69,5.63,1.04,3.91.42,7.21,0,8.83-.3-1.86-1.03-4.71-3.07-7.42-2.8-3.72-6.82-5.54-7.17-5.12-.35.42,3.37,2.68,4.35,7.04.54,2.39.08,4.6-.51,6.27-1.17-1.86-2.93-4.23-5.5-6.53-1.82-1.63-3.6-2.83-5.12-3.71.95,1.61,2.03,3.8,2.82,6.53.61,2.13.9,4.05,1.02,5.63-.84-1.66-2.27-4-4.61-6.27-3-2.91-6.13-4.38-8.06-5.12-21.24,7.17-42.23-7.42-42.23-7.42l-63.47-125.15c-26.87-21.24-54,14.59-54,14.59-15.61,18.68-4.51,92.2-4.51,92.2,2.59-.67,11.13,6.62,11.13,6.62,17.47-.38,17.66,19.77,17.66,19.77-3.46,4.61-15.93-.22-15.93-.22-4.61,3.71-11.93,0-11.93,0l-63.6-1.33c5.37-13.36-21.88-87.61-21.88-87.61,0,0-14.72,21.11-18.04,37.5-3.33,16.38,5.76,32.76,5.76,32.76,13.56,2.3,13.44,15.36,13.44,15.36-5.37,3.46-11.13.13-11.13.13.26,2.43-7.42,1.79-7.42,1.79l-70.64-3.33c3.33-19.71-9.73-126.18-9.73-126.18-35.32-122.85-13.56-190.93-11.77-195.03,1.79-4.1,16.38-14.84,16.38-14.84,0,0,9.21-27.9,38.13-60.15,28.92-32.25,84.72-57.07,100.58-61.43,15.87-4.35,35.06,6.4,45.81,4.1,10.75-2.3,30.7,2.82,30.7,2.82,0,0,15.11,5.12,28.42,5.72,13.31.6,27.39-3.16,39.71-.35,12.32,2.82,45.91-12.41,45.91-12.41,35.9-24.76,56.63-6.14,56.63-6.14,7.87,12.29,20.28,6.78,20.28,6.78,13.56,0,44.79-21.24,44.79-21.24,13.31-14.84,26.36,3.97,26.36,3.97,15.36-3.84,29.82,10.11,29.82,10.11,9.98-2.69,12.41,4.22,12.8,4.22,0,0,26.23-16.32,24.12,13.63,0,0,1.2,5.57.12,7.29l-.5,1.15s11.33,8.64,12.09,14.59c0,0,4.61,12.09,0,19.96,0,0,18.81,23.61,32.63,32.25,0,0,5.95,6.14-2.11,12.67,0,0-3.84-4.61-2.3,4.41-3.67,5.51-5.71,10.35-6.91,13.82-1.6,4.63-1.71,6.87-3.46,10.75-2.39,5.31-5.75,9-8.25,11.33-1.12,2.75-2.43,4.75-3.89,5.57-3.94,2.21-11.85,3.26-27.79-1.34,0,0-19.58,23.99-43.77,9.79,0,0-21.88,13.44-33.59,25.72,2.39,52.74-6.74,90.96-15.61,116.2-4.74,13.49-15.53,38.68-37.11,89.07-6.74,15.74-12.35,28.69-16.12,37.37.47,2.38,1.53,6.03,4.26,9.38,5.49,6.75,12.77,6.2,23.31,12.6,4.21,2.55,7.69,5.46,10.56,8.35,0,0,12.8,6.31,7.93,14.42-.33-1.43-1.03-3.59-2.66-5.72-3.42-4.49-8.37-5.56-9.79-5.82.68.31,4.01,1.93,5.47,5.85,1.23,3.29.38,6.16.1,7.01-.5-1.46-1.47-3.6-3.36-5.66-3.73-4.07-8.47-4.95-10.08-5.18.97.52,2.68,1.63,3.94,3.68,2.54,4.15,1.05,8.65.81,9.34-.43-1.25-1.9-4.96-5.84-7.63-3.57-2.42-7.14-2.61-8.5-2.61.74.35,3.48,1.75,4.9,4.99,1.07,2.44.83,4.65.67,5.57-1.23-1.58-3.18-3.72-6.06-5.63-3.55-2.36-6.95-3.34-9.1-3.78-1.94.81-5.75,2.05-9.89.77-.35-.11-1.46-.47-3.46-1.66-2.16-1.29-5.26-3.49-8.45-7.17-.21.6-.42,1.19-.64,1.79.9.36,2.95,1.35,4.35,3.58,2.63,4.23.43,8.97.26,9.34-.69-1.89-2.36-5.59-6.14-8.57-1.8-1.42-3.59-2.28-4.99-2.82Z"/>
</svg>