<?xml version="1.0" encoding="utf-8"?>
<!-- Svg Vector Icons : http://www.onlinewebfonts.com/icon -->
<!DOCTYPE svg PUBLIC "-//W3C//DTD SVG 1.1//EN" "http://www.w3.org/Graphics/SVG/1.1/DTD/svg11.dtd">
<svg version="1.1" xmlns="http://www.w3.org/2000/svg" xmlns:xlink="http://www.w3.org/1999/xlink" x="0px" y="0px" viewBox="0 0 1000 1000" enable-background="new 0 0 1000 1000" xml:space="preserve">
<metadata> Svg Vector Icons : http://www.onlinewebfonts.com/icon </metadata>
<g><path d="M500,12.1C229.4,12.1,10,230.5,10,500c0,269.4,219.4,487.9,490,487.9S990,769.4,990,500C990,230.6,770.6,12.1,500,12.1z M500,939.1C256.4,939.1,59,742.5,59,500S256.4,60.9,500,60.9S941,257.5,941,500S743.6,939.1,500,939.1z"/><path d="M883.3,794l-1.4-1.9c-23-31.3-77.8-60.3-135.9-90.9c-47.7-25.2-127.5-67.4-128-88.3l-0.1-21.4c51.8-50.3,80.2-118.4,80.2-193.1c0-58.3,0-235.6-198.9-235.7c-198.9,0-198.9,177.4-198.9,235.7c0,74.7,28.4,142.9,80.2,193.1l0,20.9c-0.5,21.5-80.3,63.6-128,88.8c-58,30.6-112.8,59.6-135.9,90.9l-1.4,1.9c12.5,16.1,25.6,31.7,40,46.1c-0.6-7.9-0.6-16.5,1-23.8c19.2-22.3,71.4-49.9,117.8-74.4c81.3-42.9,151.5-80,152.6-129.1l0.1-41.7l-7.7-6.8c-46.8-42-72.6-100.9-72.6-166c0-134.7,44.3-189.6,152.9-189.6c108.6,0,152.9,55,152.9,189.6c0,65.1-25.8,124-72.6,166l-7.7,6.9l0.1,42.2c1.1,48.6,71.3,85.6,152.6,128.6c46.4,24.5,98.6,52.1,117.8,74.4c1.6,7.3,1.5,15.9,1,23.8C857.7,825.7,870.8,810.1,883.3,794z"/><path d="M806.1,873.6l-164.4,87.9C702.4,942.9,758.1,912.7,806.1,873.6z"/><path d="M356.8,961.5l-164-87.7C240.7,912.9,296.2,943,356.8,961.5z"/></g>
</svg>