<?xml version="1.0" encoding="utf-8"?>
<!-- Generator: Adobe Illustrator 22.0.1, SVG Export Plug-In . SVG Version: 6.00 Build 0)  -->
<svg version="1.1" id="Camada_1" xmlns="http://www.w3.org/2000/svg" xmlns:xlink="http://www.w3.org/1999/xlink" x="0px" y="0px"
	 viewBox="0 0 140 40" style="enable-background:new 0 0 140 40;" xml:space="preserve">
<style type="text/css">
	.st0{fill:#9A9A9A;}
</style>
<g>
	<path class="st0" d="M92.5,18.9l-0.9,2.6h2.6c0.9,0,2.1-0.3,2.3-1.2c0.3-1.1-0.5-1.4-1.4-1.4H92.5L92.5,18.9z M84.7,29.1L89,16.3
		h7.7c1.1,0,3.2-0.1,4.1,0.7c0.2,0.2,0.4,0.7,0.5,1c0,0.4-0.1,1.1-0.2,1.6c-0.2,0.8-0.8,1.5-1.5,2s-1.6,0.9-2.5,0.9
		c0.9,0,1.5,0.5,1.8,0.9c0.3,0.3,0.4,0.9,0.4,1.6c-0.1,1.4-0.1,2.8-0.1,4.2h-4.5c0-0.7,0.1-1.9,0.2-2.5c0.2-2,0.2-2.7-2-2.7h-2
		L89,29.1H84.7L84.7,29.1z"/>
	<g>
		<g>
			<polygon id="SVGID_1_" class="st0" points="9.7,36.1 30.9,36.1 15.5,19.2 			"/>
		</g>
	</g>
	<path class="st0" d="M43.1,22.8c-0.5,1.3-0.4,2.4-0.1,2.9c0.3,0.6,1.1,1,2.4,1c1.2,0,2.4-0.4,3.1-1c0.8-0.5,1.6-1.7,2-2.9
		c0.4-1.3,0.4-2.6,0.2-3.2c-0.3-0.6-1.2-1.1-2.5-1.1c-1.1,0-2.2,0.4-3,1.1C44.3,20.4,43.6,21.6,43.1,22.8L43.1,22.8z M44.3,29.4
		c-2.5,0-4.4-0.8-5.2-1.7c-0.8-1-0.9-2.9-0.2-4.9c0.6-2,2.1-3.8,3.8-4.9c1.8-1.1,4-1.7,6.6-1.7c2.5,0,4.5,0.7,5.3,1.7
		c0.8,1.1,0.9,3,0.3,5c-0.7,2-2.2,3.9-3.8,4.9C49.4,28.6,47,29.4,44.3,29.4L44.3,29.4z M67.4,20.6c0.1-0.6-0.2-1.2-0.4-1.4
		c-0.2-0.2-0.8-0.6-1.5-0.6c-1.2,0-2.3,0.5-3.1,1.1s-1.7,1.9-2,3.1s-0.4,2.4-0.1,2.9c0.3,0.6,1.2,1,2.3,1c0.9,0,1.8-0.3,2.3-0.6
		c0.5-0.3,1.2-1,1.6-1.8h4.2c-0.8,1.7-1.9,3-3.4,3.8s-3.5,1.2-6,1.2c-2.3,0-4.1-0.7-4.9-1.7c-0.8-1-0.9-2.8-0.3-4.7
		c0.7-2.1,2.1-3.9,3.8-5c1.7-1.2,3.9-1.8,6.4-1.8c2.1,0,3.7,0.5,4.6,1.1c0.8,0.7,1.1,1.9,0.7,3.3L67.4,20.6L67.4,20.6z M70.7,29.1
		L75,16.3h11.7l-1,2.8h-7.2L77.8,21h6.6l-1,2.8h-6.6L76,26.3h7.5l-1,2.8C82.5,29.1,70.7,29.1,70.7,29.1z M113.4,20.4
		c0-1.3-1.1-1.7-2.2-1.7c-1.2,0-2.5,0.5-3.3,1.1c-0.9,0.7-1.8,1.9-2.1,3.1c-0.3,1.2-0.3,2.3,0.1,2.9c0.4,0.5,1.5,1,3,1
		c1,0,2-0.2,3-0.5l0.8-2.1h-3.2l0.8-2.4h7l-2.3,6.6c-1.3,0.3-2.7,0.5-3.8,0.6c-1.1,0.1-2.3,0.2-3.4,0.2c-2.8,0-4.9-0.6-5.8-1.5
		s-1-2.8-0.4-4.8c0.7-2.1,2.2-4,4-5c1.8-1.1,4.3-1.8,7-1.8c2.1,0,3.8,0.5,4.6,1.1c0.8,0.6,1.1,1.8,0.7,3.2
		C117.9,20.4,113.4,20.4,113.4,20.4z M121.8,24.8l-0.1,0.4c-0.4,1.4,1.1,1.5,2.1,1.5c0.6,0,2.4-0.3,2.7-1.1c0.2-0.6-0.3-0.9-0.8-1
		c-0.8-0.2-1.5-0.3-2.1-0.5c-3.1-0.7-3.6-1-4-1.7c-0.5-0.8-0.3-1.7-0.1-2.5c0.4-1.2,1.5-2.3,2.7-2.9c1.2-0.5,3.1-1,5.2-1
		c2.1,0,3.7,0.4,4.4,0.9s1,1.8,0.6,2.8v0.1h-4l0,0c0.2-0.3,0-0.7-0.3-0.9c-0.5-0.2-0.8-0.3-1.7-0.3c-0.7,0-2.2,0.2-2.3,0.9
		c-0.1,0.4,0.4,1,2.3,1.3c1.4,0.3,2.2,0.5,3.1,0.9c1.6,0.6,2,2,1.5,3.5c-0.3,1.2-1.6,2.5-2.9,3c-1.4,0.6-3.4,1.1-5.7,1.1
		c-2.2,0-3.9-0.5-4.5-1s-0.8-1.7-0.4-3.3l0.1-0.2L121.8,24.8L121.8,24.8z"/>
	<path class="st0" d="M30.2,18.9l-0.9,2.6h2.6c0.9,0,2.1-0.3,2.3-1.2c0.3-1.1-0.5-1.4-1.4-1.4H30.2L30.2,18.9z M26.3,30.1l-3.1-3.4
		l3.5-10.3h7.7c1.1,0,3.2-0.1,4.1,0.7c0.2,0.2,0.4,0.7,0.5,1c0,0.4-0.1,1.1-0.2,1.6c-0.2,0.8-0.8,1.5-1.5,2s-1.6,0.9-2.5,0.9
		c1,0,1.5,0.5,1.8,0.9c0.3,0.3,0.4,0.9,0.4,1.6c-0.1,1.4-0.1,2.8-0.1,4.2h-4.5c0-0.7,0.1-1.9,0.2-2.5c0.2-2,0.2-2.7-2-2.7h-2
		L26.3,30.1z"/>
	<path class="st0" d="M7.5,29.1l4.4-12.8h8.3c1.7,0,2.8,0.3,3.4,0.9c0.7,0.7,0.8,1.7,0.2,3c-0.6,1.7-2.4,3-3.4,3H20L15.3,18
		l-3.8,11.1H7.5z"/>
</g>
<g>
	<path class="st0" d="M17.7,10.7V5h1.7c0.8,0,1.4,0.2,1.8,0.7s0.7,1,0.7,1.8v0.8c0,0.7-0.2,1.3-0.7,1.8c-0.4,0.4-1.1,0.7-1.9,0.7
		h-1.6V10.7z M18.4,5.6v4.5h0.9c0.6,0,1.1-0.2,1.4-0.5s0.4-0.8,0.4-1.4V7.5c0-0.6-0.1-1-0.4-1.4c-0.3-0.3-0.7-0.5-1.3-0.5H18.4z"/>
	<path class="st0" d="M28,8.1h-2.6v2.1h3v0.6h-3.7V5h3.7v0.6h-3v1.9H28V8.1z"/>
	<path class="st0" d="M34.1,9.3c0-0.3-0.1-0.5-0.3-0.7s-0.6-0.3-1.1-0.5c-0.6-0.1-1.1-0.4-1.4-0.6c-0.3-0.3-0.5-0.6-0.5-1.1
		s0.2-0.8,0.5-1.1C31.7,5.1,32.2,5,32.7,5c0.6,0,1.1,0.2,1.5,0.5s0.5,0.7,0.5,1.2H34c0-0.3-0.1-0.6-0.3-0.8c-0.2-0.2-0.5-0.3-1-0.3
		c-0.4,0-0.7,0.1-0.9,0.3c-0.2,0.2-0.3,0.4-0.3,0.7c0,0.3,0.1,0.5,0.3,0.6c0.2,0.2,0.6,0.3,1.1,0.4C33.5,7.8,34,8,34.3,8.3
		c0.3,0.3,0.5,0.6,0.5,1.1s-0.2,0.8-0.6,1.1c-0.4,0.3-0.9,0.4-1.5,0.4s-1.1-0.2-1.5-0.5s-0.6-0.7-0.6-1.3h0.7c0,0.4,0.1,0.7,0.4,0.8
		c0.3,0.2,0.6,0.3,1,0.3s0.7-0.1,1-0.2C33.9,9.8,34.1,9.6,34.1,9.3z"/>
	<path class="st0" d="M40.8,8.1h-2.6v2.1h3v0.6h-3.7V5h3.7v0.6h-3v1.9h2.6V8.1z"/>
	<path class="st0" d="M48,10.7h-0.7l-2.8-4.5l0,0v4.5h-0.7V5h0.7l2.8,4.5l0,0V5H48V10.7z"/>
	<path class="st0" d="M52.7,9.4l0.1,0.5l0,0L53,9.4L54.5,5h0.8l-2.1,5.7h-0.6L50.5,5h0.8L52.7,9.4z"/>
	<path class="st0" d="M62.1,8.4c0,0.7-0.2,1.3-0.6,1.7c-0.4,0.5-1,0.7-1.7,0.7s-1.2-0.2-1.6-0.7c-0.4-0.5-0.6-1-0.6-1.7v-1
		c0-0.7,0.2-1.3,0.6-1.7C58.5,5.2,59.1,5,59.8,5s1.3,0.2,1.7,0.7s0.6,1,0.6,1.7V8.4z M61.3,7.4c0-0.5-0.1-1-0.4-1.3
		c-0.3-0.3-0.7-0.5-1.2-0.5s-0.8,0.2-1.1,0.5s-0.4,0.8-0.4,1.3v1c0,0.5,0.1,1,0.4,1.3s0.6,0.5,1.1,0.5s0.9-0.2,1.2-0.5
		s0.4-0.8,0.4-1.3V7.4z"/>
	<path class="st0" d="M65.6,10.2h2.7v0.6h-3.4V5h0.7C65.6,5,65.6,10.2,65.6,10.2z"/>
	<path class="st0" d="M71.9,9.4L72,9.8l0,0l0.1-0.5L73.7,5h0.8l-2.1,5.7h-0.6L69.6,5h0.8L71.9,9.4z"/>
	<path class="st0" d="M77.7,10.7H77V5h0.7V10.7z"/>
	<path class="st0" d="M80.8,10.7V5h1.7c0.8,0,1.4,0.2,1.8,0.7s0.7,1,0.7,1.8v0.8c0,0.7-0.2,1.3-0.7,1.8c-0.4,0.4-1.1,0.7-1.9,0.7
		h-1.6V10.7z M81.5,5.6v4.5h0.9c0.6,0,1.1-0.2,1.4-0.5s0.4-0.8,0.4-1.4V7.5c0-0.6-0.1-1-0.4-1.4c-0.3-0.3-0.7-0.5-1.3-0.5H81.5z"/>
	<path class="st0" d="M92.1,8.4c0,0.7-0.2,1.3-0.6,1.7c-0.4,0.5-1,0.7-1.7,0.7s-1.2-0.2-1.6-0.7s-0.6-1-0.6-1.7v-1
		c0-0.7,0.2-1.3,0.6-1.7c0.4-0.5,1-0.7,1.6-0.7c0.7,0,1.3,0.2,1.7,0.7c0.4,0.5,0.6,1,0.6,1.7V8.4z M91.4,7.4c0-0.5-0.1-1-0.4-1.3
		c-0.3-0.3-0.7-0.5-1.2-0.5S89,5.8,88.7,6.1s-0.4,0.8-0.4,1.3v1c0,0.5,0.1,1,0.4,1.3s0.6,0.5,1.1,0.5S90.7,10,91,9.7
		c0.3-0.3,0.4-0.8,0.4-1.3V7.4z"/>
	<path class="st0" d="M99.3,8.4v2.3h-0.7V5h2.1c0.6,0,1.1,0.2,1.4,0.5s0.5,0.7,0.5,1.2s-0.2,0.9-0.5,1.2c-0.3,0.3-0.8,0.5-1.4,0.5
		H99.3z M99.3,7.9h1.4c0.4,0,0.7-0.1,0.9-0.3c0.2-0.2,0.3-0.5,0.3-0.8s-0.1-0.6-0.3-0.8c-0.2-0.2-0.5-0.3-0.9-0.3h-1.4V7.9z"/>
	<path class="st0" d="M108.6,8.1H106v2.1h3v0.6h-3.7V5h3.7v0.6h-3v1.9h2.6V8.1z"/>
	<path class="st0" d="M112.2,10.2h2.7v0.6h-3.4V5h0.7C112.2,5,112.2,10.2,112.2,10.2z"/>
	<path class="st0" d="M120.7,9.2h-2.4l-0.6,1.5H117l2.2-5.7h0.6l2.2,5.7h-0.7L120.7,9.2z M118.5,8.6h2l-1-2.7L118.5,8.6z"/>
</g>
</svg>
